<?xml version="1.0" standalone="no"?>
<!DOCTYPE svg PUBLIC "-//W3C//DTD SVG 20010904//EN"
 "http://www.w3.org/TR/2001/REC-SVG-20010904/DTD/svg10.dtd">
<svg version="1.0" xmlns="http://www.w3.org/2000/svg"
 width="700.000000pt" height="700.000000pt" viewBox="0 0 700.000000 700.000000"
 preserveAspectRatio="xMidYMid meet">
<metadata>
Created by potrace 1.11, written by Peter Selinger 2001-2013
</metadata>
<g transform="translate(0.000000,700.000000) scale(0.100000,-0.100000)"
fill="#000000" stroke="none">
<path d="M1165 6985 c-359 -56 -679 -246 -889 -530 -130 -174 -205 -343 -253
-566 -17 -80 -18 -203 -18 -2364 0 -1254 3 -2305 7 -2335 50 -389 271 -743
603 -962 185 -122 349 -182 595 -218 39 -5 971 -9 2305 -8 2120 0 2246 1 2345
19 117 20 251 62 356 110 69 32 188 102 212 126 7 7 16 13 20 13 7 0 21 12
103 85 242 217 403 533 438 860 12 107 10 4562 -2 4620 -40 204 -87 336 -170
480 -85 147 -218 301 -350 402 -57 45 -234 153 -249 153 -4 0 -32 11 -61 25
-56 25 -199 69 -258 79 -19 3 -47 9 -64 13 -16 4 -1056 7 -2310 8 -1766 2
-2298 -1 -2360 -10z"/>
</g>
</svg>
