<?xml version="1.0" encoding="utf-8"?>
<!-- Generator: Adobe Illustrator 24.2.1, SVG Export Plug-In . SVG Version: 6.00 Build 0)  -->
<svg version="1.1" id="Layer_1" xmlns="http://www.w3.org/2000/svg" xmlns:xlink="http://www.w3.org/1999/xlink" x="0px" y="0px"
	 viewBox="0 0 2500 1844" style="enable-background:new 0 0 2500 1844;" xml:space="preserve">
<style type="text/css">
	.st0{clip-path:url(#SVGID_2_);fill:#383A42;}
</style>
<g>
	<defs>
		<rect id="SVGID_1_" y="0.11" width="2500" height="1843.83"/>
	</defs>
	<clipPath id="SVGID_2_">
		<use xlink:href="#SVGID_1_"  style="overflow:visible;"/>
	</clipPath>
	<path class="st0" d="M2500,880.87v82.3c-0.78,4.47-1.77,8.85-2.28,13.29c-4.26,35.8-7.02,71.83-12.9,107.37
		c-19.22,115.49-60.76,222.84-122.49,322.1c-93.74,150.7-220.47,265.62-379.73,344.09c-91.92,45.51-191.02,74.75-292.92,86.44
		c-22.63,2.61-45.25,4.96-67.88,7.45H743.52c-4.42-0.82-8.83-2.14-13.29-2.41c-88.56-5.58-173.77-25.76-254.98-61.3
		c-176.81-77.37-308.64-202.76-394.94-375.35c-38.13-76.13-62.81-158.28-72.94-242.82c-2.49-20.56-4.92-41.09-7.37-61.63v-79.86
		c0.84-4.42,2.14-8.85,2.41-13.29C7,930.54,22.74,856.03,50.45,784.43c74.59-192.67,204.61-335.58,389.38-428.07
		c95.86-48,198.05-73.23,304.92-78.83c52.33-2.72,104.61,0.21,156.63,7.18c4.71,0.64,11.5-1.46,14.77-4.81
		c74.79-76.4,159.96-138.46,255.99-185.49c93.15-45.62,191.17-75.02,294.36-86.79c24.28-2.78,48.62-5.06,72.94-7.57h74.88
		c4.9,0.76,9.81,1.63,14.71,2.2c37.1,4.32,74.4,7.04,111.15,13.19c114.65,19.24,221.38,60.39,320.14,121.52
		c151.44,93.74,266.85,220.64,345.7,380.39c45.6,91.96,74.88,191.14,86.52,293.13C2495.23,833.95,2497.51,857.43,2500,880.87
		 M1102.16,348.3c1.5,1.98,1.87,2.9,2.51,3.21c51.42,25.35,100.56,55.06,146.89,88.83c2.92,2.12,10.16,1.23,13.7-0.99
		c127.33-80.68,265.35-108.52,413.62-82.22c145.29,25.76,263.52,98.35,353.85,214.3c102.28,131.21,141.28,279.59,113.05,444.67
		c-18.93,110.64-63.25,209.9-138.58,293.05c-137.45,151.58-309.57,214.28-512.18,187.74c-124.73-16.34-232.41-70.14-321.52-160.21
		c-114.38-115.53-229.51-230.31-344.22-345.53c-15.29-15.35-32.3-27.7-54.32-30.39c-38.46-4.71-73.35,14.49-89.96,49.03
		c-14.81,30.84-12.9,65.62,19.24,97.22c127.88,125.53,254.63,252.22,382.37,377.88c21.86,21.62,45.31,41.57,70.14,59.69
		c93.31,67.76,198.52,105.23,312.45,120.31c89.42,11.81,178.15,9.28,266.19-10.51c167.94-37.72,307.06-123.44,416.63-255.7
		c90.47-109.3,145.19-234.9,164.26-375.91c11.05-80.41,8.74-162.09-6.83-241.75c-25.41-130.25-80.51-246.79-168.81-345.99
		c-168.46-189.16-380.39-273.6-632.59-254.75c-97.02,7.24-188.79,35.74-275.14,80.95C1186.3,285.43,1142.46,314.63,1102.16,348.3
		 M1040.45,1668.79c-3.47-3.22-6.93-6.45-10.37-9.69c-52.28-49.36-104.86-98.42-156.52-148.42c-10-9.67-19.2-14.38-33.35-14.05
		c-52.33,1.28-104.69,1.5-156.26-10.14c-256.38-57.98-405.25-336.73-310.76-582c74.53-193.4,280.84-311.17,484.3-274.86
		c91.19,16.28,171.23,54.88,236.93,122.63c80.12,82.72,162.63,163.07,243.62,244.94c18.44,18.64,39.61,27.14,65.14,23.5
		c33-4.71,59.28-20.43,71.21-52.8c11.69-31.85,6.03-62.02-18.09-86.44c-85-86.11-167.98-174.38-256.42-256.83
		c-171.52-159.98-373.79-207.55-597.49-139.53c-300.88,91.42-476.98,402.12-408.23,708.7c62.65,279.34,306.95,475.39,592.82,475.64
		c79.81,0.08,159.65,0.04,239.47,0C1030.41,1669.45,1034.36,1669.1,1040.45,1668.79"/>
</g>
</svg>
