<?xml version="1.0" encoding="utf-8"?>
<!-- Generator: Adobe Illustrator 25.0.0, SVG Export Plug-In . SVG Version: 6.00 Build 0)  -->
<svg version="1.1" xmlns="http://www.w3.org/2000/svg" xmlns:xlink="http://www.w3.org/1999/xlink" x="0px" y="0px"
	 viewBox="0 0 999.6 364.2" style="enable-background:new 0 0 999.6 364.2;" xml:space="preserve">
<style type="text/css">
	.st0{display:none;}
	.st1{display:inline;fill:url(#SVGID_1_);}
	.st2{display:inline;}
	.st3{clip-path:url(#SVGID_4_);}
	.st4{clip-path:url(#SVGID_5_);fill:url(#SVGID_6_);}
	.st5{clip-path:url(#SVGID_9_);}
	.st6{clip-path:url(#SVGID_10_);fill:url(#SVGID_11_);}
	.st7{clip-path:url(#SVGID_14_);}
	.st8{clip-path:url(#SVGID_15_);fill:url(#SVGID_16_);}
	.st9{clip-path:url(#SVGID_19_);}
	.st10{clip-path:url(#SVGID_20_);fill:url(#SVGID_21_);}
	.st11{clip-path:url(#SVGID_24_);}
	.st12{clip-path:url(#SVGID_25_);fill:url(#SVGID_26_);}
	.st13{clip-path:url(#SVGID_29_);}
	.st14{clip-path:url(#SVGID_30_);fill:url(#SVGID_33_);}
	.st15{clip-path:url(#SVGID_43_);}
	.st16{clip-path:url(#SVGID_51_);fill:url(#SVGID_54_);}
	.st17{clip-path:url(#SVGID_57_);}
	.st18{clip-path:url(#SVGID_58_);fill:url(#SVGID_59_);}
	.st19{clip-path:url(#SVGID_62_);}
	.st20{clip-path:url(#SVGID_63_);fill:url(#SVGID_64_);}
	.st21{clip-path:url(#SVGID_67_);}
	.st22{clip-path:url(#SVGID_68_);fill:url(#SVGID_69_);}
	.st23{clip-path:url(#SVGID_72_);}
	.st24{clip-path:url(#SVGID_73_);fill:url(#SVGID_74_);}
	.st25{clip-path:url(#SVGID_77_);}
	.st26{clip-path:url(#SVGID_78_);fill:url(#SVGID_79_);}
	.st27{clip-path:url(#SVGID_82_);}
	.st28{clip-path:url(#SVGID_83_);fill:url(#SVGID_84_);}
	.st29{clip-path:url(#SVGID_87_);}
	.st30{clip-path:url(#SVGID_88_);fill:url(#SVGID_89_);}
	.st31{clip-path:url(#SVGID_92_);}
	.st32{clip-path:url(#SVGID_93_);fill:url(#SVGID_94_);}
	.st33{clip-path:url(#SVGID_97_);}
	.st34{clip-path:url(#SVGID_98_);fill:url(#SVGID_99_);}
	.st35{clip-path:url(#SVGID_102_);}
	.st36{clip-path:url(#SVGID_103_);fill:url(#SVGID_104_);}
	.st37{clip-path:url(#SVGID_107_);}
	.st38{clip-path:url(#SVGID_108_);fill:url(#SVGID_109_);}
	.st39{fill:url(#SVGID_110_);}
	.st40{fill:url(#SVGID_111_);}
	.st41{fill:#FF9323;}
	.st42{display:inline;fill:url(#SVGID_112_);}
	.st43{display:inline;fill:#E6E6E6;}
	.st44{display:inline;fill:#FBB03B;}
	.st45{fill:#FFC06C;}
	.st46{display:inline;fill:none;stroke:#FFFFFF;stroke-width:3;stroke-miterlimit:10;}
	.st47{display:inline;fill:#CCCCCC;}
	.st48{fill:none;stroke:#FBB03B;stroke-width:5;stroke-miterlimit:10;}
	.st49{fill:none;}
	.st50{fill:#4D4D4D;}
	.st51{fill:#405A7F;}
	.st52{fill:#754C24;}
	.st53{fill:#BF844F;}
	.st54{fill:#A06D42;}
	.st55{fill:#603813;}
	.st56{fill:#8C6239;}
	.st57{fill:#333333;}
	.st58{display:inline;fill:#FCFCFC;}
	.st59{fill:url(#SVGID_113_);}
	.st60{fill:url(#SVGID_114_);}
	.st61{fill:url(#SVGID_115_);}
</style>
<g id="Layer_1" class="st0">
	
		<radialGradient id="SVGID_1_" cx="447.198" cy="450.7243" r="413.3853" gradientTransform="matrix(1 0 0 -1.0002 0 567.9557)" gradientUnits="userSpaceOnUse">
		<stop  offset="0" style="stop-color:#FFF39F"/>
		<stop  offset="0.3953" style="stop-color:#FF0068"/>
		<stop  offset="1" style="stop-color:#6200EF"/>
	</radialGradient>
	<rect x="0" y="102.2" class="st1" width="680" height="262"/>
	
		<image style="display:inline;overflow:visible;opacity:0.3;enable-background:new    ;" width="2399" height="1706" xlink:href="7AD5DAF470E7438.png"  transform="matrix(0.2425 0 0 0.2425 417.6757 75.5665)">
	</image>
	<g id="megaphone" class="st2">
		<g>
			<g>
				<defs>
					<polygon id="SVGID_2_" points="0.3,102.4 0.5,102.4 0.3,102.7 					"/>
				</defs>
				<defs>
					<polygon id="SVGID_3_" points="-0.2,101.9 -0.5,101.9 -0.2,101.7 					"/>
				</defs>
				<clipPath id="SVGID_4_">
					<use xlink:href="#SVGID_2_"  style="overflow:visible;"/>
				</clipPath>
				<clipPath id="SVGID_5_" class="st3">
					<use xlink:href="#SVGID_3_"  style="overflow:visible;"/>
				</clipPath>
				
					<linearGradient id="SVGID_6_" gradientUnits="userSpaceOnUse" x1="347.9578" y1="223.6932" x2="319.5081" y2="216.2844" gradientTransform="matrix(1 0 0 -1 0 567.338)">
					<stop  offset="0" style="stop-color:#FFFFFF"/>
					<stop  offset="0.9993" style="stop-color:#000000"/>
				</linearGradient>
				<path class="st4" d="M315.2,354.9c1.5,0,49.7-10.7,49.7-10.7l-5.9-0.8l-43.6,3.8L315.2,354.9z"/>
			</g>
		</g>
		<g>
			<g>
				<defs>
					<polygon id="SVGID_7_" points="0.3,102.4 0.5,102.4 0.3,102.7 					"/>
				</defs>
				<defs>
					<polygon id="SVGID_8_" points="-0.2,101.9 -0.5,101.9 -0.2,101.7 					"/>
				</defs>
				<clipPath id="SVGID_9_">
					<use xlink:href="#SVGID_7_"  style="overflow:visible;"/>
				</clipPath>
				<clipPath id="SVGID_10_" class="st5">
					<use xlink:href="#SVGID_8_"  style="overflow:visible;"/>
				</clipPath>
				
					<linearGradient id="SVGID_11_" gradientUnits="userSpaceOnUse" x1="411.9298" y1="119.09" x2="408.4912" y2="125.8422" gradientTransform="matrix(0.9995 3.030000e-02 3.030000e-02 -0.9995 -58.2547 393.1904)">
					<stop  offset="0" style="stop-color:#000000"/>
					<stop  offset="1" style="stop-color:#FFFFFF"/>
				</linearGradient>
				<path class="st6" d="M350.4,286.7c0,0,4.7-6.3,8.9-7.6l-0.1-2.3c0,0-8.3,5.2-8.3,5.3C350.9,282.3,350.4,286.7,350.4,286.7z"/>
			</g>
		</g>
		<g>
			<g>
				<defs>
					<polygon id="SVGID_12_" points="0.3,102.4 0.5,102.4 0.3,102.7 					"/>
				</defs>
				<defs>
					<polygon id="SVGID_13_" points="-0.2,101.9 -0.5,101.9 -0.2,101.7 					"/>
				</defs>
				<clipPath id="SVGID_14_">
					<use xlink:href="#SVGID_12_"  style="overflow:visible;"/>
				</clipPath>
				<clipPath id="SVGID_15_" class="st7">
					<use xlink:href="#SVGID_13_"  style="overflow:visible;"/>
				</clipPath>
				
					<linearGradient id="SVGID_16_" gradientUnits="userSpaceOnUse" x1="427.761" y1="152.7448" x2="425.4948" y2="147.6341" gradientTransform="matrix(0.9995 3.030000e-02 3.030000e-02 -0.9995 -58.2547 393.1904)">
					<stop  offset="0" style="stop-color:#000000"/>
					<stop  offset="1" style="stop-color:#FFFFFF"/>
				</linearGradient>
				<path class="st8" d="M372.6,256.6c0,0,0.7,0.8,0.7,0.8l0-5.2l-0.7,3.2L372.6,256.6z"/>
			</g>
		</g>
		<g>
			<g>
				<defs>
					<polygon id="SVGID_17_" points="0.3,102.4 0.5,102.4 0.3,102.7 					"/>
				</defs>
				<defs>
					<polygon id="SVGID_18_" points="-0.2,101.9 -0.5,101.9 -0.2,101.7 					"/>
				</defs>
				<clipPath id="SVGID_19_">
					<use xlink:href="#SVGID_17_"  style="overflow:visible;"/>
				</clipPath>
				<clipPath id="SVGID_20_" class="st9">
					<use xlink:href="#SVGID_18_"  style="overflow:visible;"/>
				</clipPath>
				
					<linearGradient id="SVGID_21_" gradientUnits="userSpaceOnUse" x1="423.0075" y1="128.1098" x2="407.5666" y2="118.7952" gradientTransform="matrix(0.9995 3.030000e-02 3.030000e-02 -0.9995 -58.2547 393.1904)">
					<stop  offset="0" style="stop-color:#000000"/>
					<stop  offset="1" style="stop-color:#FFFFFF"/>
				</linearGradient>
				<path class="st10" d="M359.1,277.1l0.7,10c0,0,2.7,0.3,4,0.4c0,0-3.3-7.7-2.6-12.4L359.1,277.1z"/>
			</g>
		</g>
		<g>
			<g>
				<defs>
					<polygon id="SVGID_22_" points="0.3,102.4 0.5,102.4 0.3,102.7 					"/>
				</defs>
				<defs>
					<polygon id="SVGID_23_" points="-0.2,101.9 -0.5,101.9 -0.2,101.7 					"/>
				</defs>
				<clipPath id="SVGID_24_">
					<use xlink:href="#SVGID_22_"  style="overflow:visible;"/>
				</clipPath>
				<clipPath id="SVGID_25_" class="st11">
					<use xlink:href="#SVGID_23_"  style="overflow:visible;"/>
				</clipPath>
				
					<linearGradient id="SVGID_26_" gradientUnits="userSpaceOnUse" x1="441.7537" y1="135.9381" x2="414.1913" y2="148.9593" gradientTransform="matrix(0.9995 3.030000e-02 3.030000e-02 -0.9995 -58.2547 393.1904)">
					<stop  offset="0" style="stop-color:#000000"/>
					<stop  offset="1" style="stop-color:#FFFFFF"/>
				</linearGradient>
				<path class="st12" d="M374.9,275.1l-0.2,0.6c0,0,1.8-7.3,1.7-11s-1.1-9.9-3-12.7c0,0,4.5,6.6,4.5,6.6c0,0.1-1.3,11.3-1.3,11.3
					L374.9,275.1z"/>
			</g>
		</g>
		<g>
			<g>
				<defs>
					<polygon id="SVGID_27_" points="0.3,102.4 0.5,102.4 0.3,102.7 					"/>
				</defs>
				<defs>
					<polygon id="SVGID_28_" points="-0.2,101.9 -0.5,101.9 -0.2,101.7 					"/>
				</defs>
				<clipPath id="SVGID_29_">
					<use xlink:href="#SVGID_27_"  style="overflow:visible;"/>
				</clipPath>
				<clipPath id="SVGID_30_" class="st13">
					<use xlink:href="#SVGID_28_"  style="overflow:visible;"/>
				</clipPath>
				
					<linearGradient id="SVGID_33_" gradientUnits="userSpaceOnUse" x1="430.0386" y1="136.2867" x2="407.3649" y2="146.9984" gradientTransform="matrix(0.9995 3.030000e-02 3.030000e-02 -0.9995 -58.2547 393.1904)">
					<stop  offset="0" style="stop-color:#000000"/>
					<stop  offset="1" style="stop-color:#FFFFFF"/>
				</linearGradient>
				<path class="st14" d="M359.1,277.1l0.1,1.3c0,0,4.9-3.7,7-6.7c2.2-2.9,4.3-8.9,0.9-23l-3.1,21.1L359.1,277.1z"/>
			</g>
		</g>
		<g>
			<g>
				<defs>
					<polygon id="SVGID_36_" points="0.3,102.4 0.5,102.4 0.3,102.7 					"/>
				</defs>
				<defs>
					<polygon id="SVGID_39_" points="-0.2,101.9 -0.5,101.9 -0.2,101.7 					"/>
				</defs>
				<clipPath id="SVGID_43_">
					<use xlink:href="#SVGID_36_"  style="overflow:visible;"/>
				</clipPath>
				<clipPath id="SVGID_51_" class="st15">
					<use xlink:href="#SVGID_39_"  style="overflow:visible;"/>
				</clipPath>
				
					<linearGradient id="SVGID_54_" gradientUnits="userSpaceOnUse" x1="425.8038" y1="118.1939" x2="426.3039" y2="143.4921" gradientTransform="matrix(0.9995 3.030000e-02 3.030000e-02 -0.9995 -58.2547 393.1904)">
					<stop  offset="0" style="stop-color:#000000"/>
					<stop  offset="1" style="stop-color:#FFFFFF"/>
				</linearGradient>
				<path class="st16" d="M372.8,267.4c-0.2,4.9-0.2,11.5-2.2,20.1c-0.1,0,0,0-0.1,0c0.3-1.3,1.6-9.9,1.9-17.7
					c0.3-8.4-0.8-14.3-0.8-14.3S373,259.1,372.8,267.4z"/>
			</g>
		</g>
		<g>
			<g>
				<defs>
					<polygon id="SVGID_55_" points="0.3,102.4 0.5,102.4 0.3,102.7 					"/>
				</defs>
				<defs>
					<polygon id="SVGID_56_" points="-0.2,101.9 -0.5,101.9 -0.2,101.7 					"/>
				</defs>
				<clipPath id="SVGID_57_">
					<use xlink:href="#SVGID_55_"  style="overflow:visible;"/>
				</clipPath>
				<clipPath id="SVGID_58_" class="st17">
					<use xlink:href="#SVGID_56_"  style="overflow:visible;"/>
				</clipPath>
				
					<linearGradient id="SVGID_59_" gradientUnits="userSpaceOnUse" x1="413.7734" y1="143.63" x2="426.2758" y2="144.4635" gradientTransform="matrix(0.9995 3.030000e-02 3.030000e-02 -0.9995 -58.2547 393.1904)">
					<stop  offset="0" style="stop-color:#000000"/>
					<stop  offset="1" style="stop-color:#FFFFFF"/>
				</linearGradient>
				<path class="st18" d="M367,248.1c0,0-2,11.1-2.5,11.9l2.1-0.3l-1.7,1.7c0,0,2.4,5.9-4.4,14.5c0,0,6.1-5.6,6.8-11.4
					C368.1,258.8,367,248.1,367,248.1z"/>
			</g>
		</g>
		<g>
			<g>
				<defs>
					<polygon id="SVGID_60_" points="0.3,102.4 0.5,102.4 0.3,102.7 					"/>
				</defs>
				<defs>
					<polygon id="SVGID_61_" points="-0.2,101.9 -0.5,101.9 -0.2,101.7 					"/>
				</defs>
				<clipPath id="SVGID_62_">
					<use xlink:href="#SVGID_60_"  style="overflow:visible;"/>
				</clipPath>
				<clipPath id="SVGID_63_" class="st19">
					<use xlink:href="#SVGID_61_"  style="overflow:visible;"/>
				</clipPath>
				
					<linearGradient id="SVGID_64_" gradientUnits="userSpaceOnUse" x1="422.7031" y1="159.8478" x2="438.05" y2="172.1576" gradientTransform="matrix(0.9995 3.030000e-02 3.030000e-02 -0.9995 -58.2547 393.1904)">
					<stop  offset="0" style="stop-color:#000000"/>
					<stop  offset="1" style="stop-color:#FFFFFF"/>
				</linearGradient>
				<path class="st20" d="M375.4,246.1L375.4,246.1l-5.9,5.2l-2.5-3.1l1-5.8c0,0,0.9-1.3,1.1-1.4c0.2-0.1,1.5,0.2,1.5,0.2
					L375.4,246.1z"/>
			</g>
		</g>
		<g>
			<g>
				<defs>
					<polygon id="SVGID_65_" points="0.3,102.4 0.5,102.4 0.3,102.7 					"/>
				</defs>
				<defs>
					<polygon id="SVGID_66_" points="-0.2,101.9 -0.5,101.9 -0.2,101.7 					"/>
				</defs>
				<clipPath id="SVGID_67_">
					<use xlink:href="#SVGID_65_"  style="overflow:visible;"/>
				</clipPath>
				<clipPath id="SVGID_68_" class="st21">
					<use xlink:href="#SVGID_66_"  style="overflow:visible;"/>
				</clipPath>
				
					<linearGradient id="SVGID_69_" gradientUnits="userSpaceOnUse" x1="402.353" y1="132.351" x2="415.1062" y2="150.5223" gradientTransform="matrix(0.9995 3.030000e-02 3.030000e-02 -0.9995 -58.2547 393.1904)">
					<stop  offset="0" style="stop-color:#000000"/>
					<stop  offset="1" style="stop-color:#FFFFFF"/>
				</linearGradient>
				<polygon class="st22" points="357.7,262.4 357.4,257.9 346.8,272.8 				"/>
			</g>
		</g>
		<g>
			<g>
				<defs>
					<polygon id="SVGID_70_" points="0.3,102.4 0.5,102.4 0.3,102.7 					"/>
				</defs>
				<defs>
					<polygon id="SVGID_71_" points="-0.2,101.9 -0.5,101.9 -0.2,101.7 					"/>
				</defs>
				<clipPath id="SVGID_72_">
					<use xlink:href="#SVGID_70_"  style="overflow:visible;"/>
				</clipPath>
				<clipPath id="SVGID_73_" class="st23">
					<use xlink:href="#SVGID_71_"  style="overflow:visible;"/>
				</clipPath>
				
					<linearGradient id="SVGID_74_" gradientUnits="userSpaceOnUse" x1="443.8657" y1="139.693" x2="431.1692" y2="147.1222" gradientTransform="matrix(0.9995 3.030000e-02 3.030000e-02 -0.9995 -58.2547 393.1904)">
					<stop  offset="0" style="stop-color:#000000"/>
					<stop  offset="1" style="stop-color:#FFFFFF"/>
				</linearGradient>
				<path class="st24" d="M378.8,262.8c0,0,0.3-1.5,0.3-2.8l10.4,4.3L378.8,262.8z"/>
			</g>
		</g>
		<g>
			<g>
				<defs>
					<polygon id="SVGID_75_" points="0.3,102.4 0.5,102.4 0.3,102.7 					"/>
				</defs>
				<defs>
					<polygon id="SVGID_76_" points="-0.2,101.9 -0.5,101.9 -0.2,101.7 					"/>
				</defs>
				<clipPath id="SVGID_77_">
					<use xlink:href="#SVGID_75_"  style="overflow:visible;"/>
				</clipPath>
				<clipPath id="SVGID_78_" class="st25">
					<use xlink:href="#SVGID_76_"  style="overflow:visible;"/>
				</clipPath>
				
					<linearGradient id="SVGID_79_" gradientUnits="userSpaceOnUse" x1="415.1886" y1="126.258" x2="422.9382" y2="146.6586" gradientTransform="matrix(0.9995 3.030000e-02 3.030000e-02 -0.9995 -58.2547 393.1904)">
					<stop  offset="0" style="stop-color:#000000"/>
					<stop  offset="1" style="stop-color:#FFFFFF"/>
				</linearGradient>
				<path class="st26" d="M371.4,257.1c0,0,0.2,9.5-3.3,11.9c-3.5,2.4-9.6,2.4-9.6,2.4l0.1,1.1L358,273c0,0,3.7,0.4,7.2-1
					c3.5-1.4,5-3,5.8-4.3c1.4-2.2,1.1-10.5,1.1-10.5l-0.4-1.6l-1.9,1.5l-1.2-3.8l1.1,5L371.4,257.1z"/>
			</g>
		</g>
		<g>
			<g>
				<defs>
					<polygon id="SVGID_80_" points="0.3,102.4 0.5,102.4 0.3,102.7 					"/>
				</defs>
				<defs>
					<polygon id="SVGID_81_" points="-0.2,101.9 -0.5,101.9 -0.2,101.7 					"/>
				</defs>
				<clipPath id="SVGID_82_">
					<use xlink:href="#SVGID_80_"  style="overflow:visible;"/>
				</clipPath>
				<clipPath id="SVGID_83_" class="st27">
					<use xlink:href="#SVGID_81_"  style="overflow:visible;"/>
				</clipPath>
				
					<linearGradient id="SVGID_84_" gradientUnits="userSpaceOnUse" x1="426.8196" y1="150.1768" x2="423.9126" y2="149.9892" gradientTransform="matrix(0.9995 3.030000e-02 3.030000e-02 -0.9995 -58.2547 393.1904)">
					<stop  offset="0" style="stop-color:#000000"/>
					<stop  offset="1" style="stop-color:#FFFFFF"/>
				</linearGradient>
				<path class="st28" d="M370.9,256.1l0.5,1l0.5,0c0,0-0.3-0.7,0-1.2c0.4-0.5,0.4-0.6,0.4-0.6l0.5,0.7l-0.5-1.1L370.9,256.1z"/>
			</g>
		</g>
		<g>
			<g>
				<defs>
					<polygon id="SVGID_85_" points="0.3,102.4 0.5,102.4 0.3,102.7 					"/>
				</defs>
				<defs>
					<polygon id="SVGID_86_" points="-0.2,101.9 -0.5,101.9 -0.2,101.7 					"/>
				</defs>
				<clipPath id="SVGID_87_">
					<use xlink:href="#SVGID_85_"  style="overflow:visible;"/>
				</clipPath>
				<clipPath id="SVGID_88_" class="st29">
					<use xlink:href="#SVGID_86_"  style="overflow:visible;"/>
				</clipPath>
				
					<linearGradient id="SVGID_89_" gradientUnits="userSpaceOnUse" x1="394.6151" y1="114.809" x2="394.9902" y2="120.6439" gradientTransform="matrix(0.9995 3.030000e-02 3.030000e-02 -0.9995 -58.2547 393.1904)">
					<stop  offset="0" style="stop-color:#000000"/>
					<stop  offset="1" style="stop-color:#FFFFFF"/>
				</linearGradient>
				<polygon class="st30" points="341,289 339.7,288.7 338.4,290.4 338.3,291.8 339.1,290.2 				"/>
			</g>
		</g>
		<g>
			<g>
				<defs>
					<polygon id="SVGID_90_" points="0.3,102.4 0.5,102.4 0.3,102.7 					"/>
				</defs>
				<defs>
					<polygon id="SVGID_91_" points="-0.2,101.9 -0.5,101.9 -0.2,101.7 					"/>
				</defs>
				<clipPath id="SVGID_92_">
					<use xlink:href="#SVGID_90_"  style="overflow:visible;"/>
				</clipPath>
				<clipPath id="SVGID_93_" class="st31">
					<use xlink:href="#SVGID_91_"  style="overflow:visible;"/>
				</clipPath>
				
					<linearGradient id="SVGID_94_" gradientUnits="userSpaceOnUse" x1="373.0853" y1="327.5059" x2="370.7331" y2="335.1736" gradientTransform="matrix(1 0 0 -1 0 567.338)">
					<stop  offset="0" style="stop-color:#000000"/>
					<stop  offset="1" style="stop-color:#6E6E6E"/>
				</linearGradient>
				<path class="st32" d="M369.7,240.2l0.1,0.2l1.1-0.2c0,0-0.8-2-0.6-3c0.2-1,0.6-1.6,0.6-1.6l-0.8-2.5c0,0,3.9-0.3,4.2-0.4
					l0.2-0.1l-0.2-0.4c0,0-2.4-0.2-2.5-0.2c0,0-2.6,0.1-2.6,0.1l-1.1,0.3c0,0,2.1,7.2,2,7.3C370,239.9,369.7,240.2,369.7,240.2z"/>
			</g>
		</g>
		<g>
			<g>
				<defs>
					<polygon id="SVGID_95_" points="0.3,102.4 0.5,102.4 0.3,102.7 					"/>
				</defs>
				<defs>
					<polygon id="SVGID_96_" points="-0.2,101.9 -0.5,101.9 -0.2,101.7 					"/>
				</defs>
				<clipPath id="SVGID_97_">
					<use xlink:href="#SVGID_95_"  style="overflow:visible;"/>
				</clipPath>
				<clipPath id="SVGID_98_" class="st33">
					<use xlink:href="#SVGID_96_"  style="overflow:visible;"/>
				</clipPath>
				
					<linearGradient id="SVGID_99_" gradientUnits="userSpaceOnUse" x1="428.0287" y1="168.0953" x2="429.2789" y2="172.6588" gradientTransform="matrix(0.9995 3.030000e-02 3.030000e-02 -0.9995 -58.2547 393.1904)">
					<stop  offset="0" style="stop-color:#000000"/>
					<stop  offset="1" style="stop-color:#FFFFFF"/>
				</linearGradient>
				<polygon class="st34" points="375.7,236.9 372.6,237.8 376.6,239.1 				"/>
			</g>
		</g>
		<g>
			<g>
				<defs>
					<polygon id="SVGID_100_" points="0.3,102.4 0.5,102.4 0.3,102.7 					"/>
				</defs>
				<defs>
					<polygon id="SVGID_101_" points="-0.2,101.9 -0.5,101.9 -0.2,101.7 					"/>
				</defs>
				<clipPath id="SVGID_102_">
					<use xlink:href="#SVGID_100_"  style="overflow:visible;"/>
				</clipPath>
				<clipPath id="SVGID_103_" class="st35">
					<use xlink:href="#SVGID_101_"  style="overflow:visible;"/>
				</clipPath>
				
					<linearGradient id="SVGID_104_" gradientUnits="userSpaceOnUse" x1="421.6045" y1="165.7862" x2="423.4904" y2="166.3801" gradientTransform="matrix(0.9995 3.030000e-02 3.030000e-02 -0.9995 -58.2547 393.1904)">
					<stop  offset="0" style="stop-color:#000000"/>
					<stop  offset="1" style="stop-color:#FFFFFF"/>
				</linearGradient>
				<path class="st36" d="M369.4,239.8l-0.1-0.5c0,0-1-0.3-1.1,0.5c-0.1,0.8,0.6,1.2,1.4,0.9l-0.1-0.4c0,0-0.6-0.1-0.6-0.4
					C369,239.6,369.4,239.6,369.4,239.8z"/>
			</g>
		</g>
		<g>
			<g>
				<defs>
					<polygon id="SVGID_105_" points="0.3,102.4 0.5,102.4 0.3,102.7 					"/>
				</defs>
				<defs>
					<polygon id="SVGID_106_" points="-0.2,101.9 -0.5,101.9 -0.2,101.7 					"/>
				</defs>
				<clipPath id="SVGID_107_">
					<use xlink:href="#SVGID_105_"  style="overflow:visible;"/>
				</clipPath>
				<clipPath id="SVGID_108_" class="st37">
					<use xlink:href="#SVGID_106_"  style="overflow:visible;"/>
				</clipPath>
				
					<linearGradient id="SVGID_109_" gradientUnits="userSpaceOnUse" x1="432.0972" y1="150.1789" x2="399.6306" y2="127.423" gradientTransform="matrix(0.9995 3.030000e-02 3.030000e-02 -0.9995 -58.2547 393.1904)">
					<stop  offset="0" style="stop-color:#000000"/>
					<stop  offset="1" style="stop-color:#FFFFFF"/>
				</linearGradient>
				<path class="st38" d="M370.6,264.5c-1.9,2.1-6.1,1.6-12.8,3.1c-6.7,1.5-9.1,8.5-9.1,8.5l0.7-3.3c0,0,3.7-4.9,9-5.9
					c5.3-0.9,10.8-0.7,12.1-2.9c1.4-2.2,1.1-5,0.7-6.9C371.8,258.9,372.5,262.5,370.6,264.5z"/>
			</g>
		</g>
		
			<linearGradient id="SVGID_110_" gradientUnits="userSpaceOnUse" x1="379.0005" y1="316.0421" x2="408.5717" y2="333.6382" gradientTransform="matrix(1 0 0 -1 0 567.338)">
			<stop  offset="0" style="stop-color:#CAEDFF"/>
			<stop  offset="1" style="stop-color:#FFFFFF"/>
		</linearGradient>
		<path class="st39" d="M413.1,238.6l-7.4,2.2l-1.1,0.3v0l-4.9,1.4c0,0-3.3-0.7-2.3-3.6l8.8-11.4L413.1,238.6z"/>
		
			<linearGradient id="SVGID_111_" gradientUnits="userSpaceOnUse" x1="417.8757" y1="325.8703" x2="398.8133" y2="356.6634" gradientTransform="matrix(1 0 0 -1 0 567.338)">
			<stop  offset="0" style="stop-color:#FFE75A"/>
			<stop  offset="1" style="stop-color:#FF0861"/>
		</linearGradient>
		<polygon class="st40" points="418.2,237.1 413.2,238.6 406.3,227.6 409.5,223.3 		"/>
		<polygon class="st41" points="404.6,241.1 407.3,245.3 407.8,245 405.7,240.7 		"/>
	</g>
	
		<radialGradient id="SVGID_112_" cx="310.2226" cy="1767.7759" r="49.0122" gradientTransform="matrix(0.571 0 0 -0.1036 185.8503 526.0176)" gradientUnits="userSpaceOnUse">
		<stop  offset="0" style="stop-color:#020202;stop-opacity:0.3"/>
		<stop  offset="9.538452e-02" style="stop-color:#080808;stop-opacity:0.2714"/>
		<stop  offset="0.2205" style="stop-color:#181818;stop-opacity:0.2339"/>
		<stop  offset="0.3622" style="stop-color:#333333;stop-opacity:0.1913"/>
		<stop  offset="0.5161" style="stop-color:#595959;stop-opacity:0.1452"/>
		<stop  offset="0.6799" style="stop-color:#8A8A8A;stop-opacity:9.601679e-02"/>
		<stop  offset="0.8492" style="stop-color:#C5C5C5;stop-opacity:4.522541e-02"/>
		<stop  offset="1" style="stop-color:#FFFFFF;stop-opacity:0"/>
	</radialGradient>
	<ellipse class="st42" cx="363" cy="342.8" rx="28.4" ry="4.9"/>
	<g class="st2">
		<g class="st0">
			<circle class="st43" cx="362.9" cy="211.5" r="1"/>
			<path class="st44" d="M357.8,202.6l0.1,0.2c0.9,1.5,1.9,1.1,1.9,2.8v1.2h6.1v-1.2c0-1.7,1.2-1.3,2-2.9l0.1-0.2
				c1.7-3.4-1.2-7.5-4.9-7.6c-0.1,0-0.2,0-0.2,0c-0.1,0-0.2,0-0.2,0C358.9,195.2,356.2,199.2,357.8,202.6z"/>
			<g class="st2">
				<path class="st45" d="M357.8,202.6l0.1,0.2c0.3,0.5,0.6,0.8,1,1.1c-0.1-0.1-0.1-0.2-0.2-0.3l-0.1-0.2c-1.6-3.4,1.1-7.4,4.8-7.6
					c0.1,0,0.2,0,0.2,0c0.1,0,0.2,0,0.2,0c1.3,0.1,2.4,0.6,3.4,1.3c-1-1.2-2.5-2-4.1-2.1c-0.1,0-0.2,0-0.2,0c-0.1,0-0.2,0-0.2,0
					C358.9,195.2,356.2,199.2,357.8,202.6z"/>
			</g>
			<path class="st46" d="M363.7,206.4c-0.1-1-0.2-1.9-0.2-2.9c0-1,0.2-2,0.7-2.8c0.1-0.2,0.3-0.4,0.5-0.6c0.3-0.2,0.8-0.2,1.2,0
				c0.3,0.3,0.5,0.7,0.3,1.1c-0.1,0.4-0.5,0.6-0.9,0.8c-0.7,0.3-3.9,0.3-4.6,0c-0.4-0.2-0.7-0.4-0.9-0.8c-0.1-0.4,0-0.9,0.3-1.1
				c0.3-0.2,0.8-0.3,1.2,0c0.2,0.1,0.3,0.4,0.5,0.6c0.5,0.9,0.7,1.8,0.7,2.8c0,1-0.1,2-0.2,2.9"/>
			<path class="st47" d="M359.8,210.9L359.8,210.9v-4.4c0-0.2,0.2-0.4,0.4-0.4h5.3c0.2,0,0.4,0.2,0.4,0.4v4.4l0,0
				c0,0.3-0.5,0.6-0.9,0.6h-4.4C360.3,211.5,359.8,211.3,359.8,210.9z"/>
			<path class="st43" d="M359.3,206.3l0-0.1c0-0.3,0.3-0.5,0.6-0.4l6.5,0.8c0.3,0,0.5,0.3,0.4,0.6l0,0.1c0,0.3-0.3,0.5-0.6,0.4
				l-6.5-0.8C359.5,206.8,359.3,206.6,359.3,206.3z"/>
			<path class="st43" d="M359.1,208.1l0-0.1c0-0.3,0.3-0.5,0.6-0.4l6.5,0.8c0.3,0,0.5,0.3,0.4,0.6l0,0.1c0,0.3-0.3,0.5-0.6,0.4
				l-6.5-0.8C359.2,208.6,359,208.4,359.1,208.1z"/>
			<path class="st43" d="M358.8,210l0-0.1c0-0.3,0.3-0.5,0.6-0.4l6.5,0.8c0.3,0,0.5,0.3,0.4,0.6l0,0.1c0,0.3-0.3,0.5-0.6,0.4
				l-6.5-0.8C359,210.5,358.8,210.2,358.8,210z"/>
			<g class="st2">
				<g>
					<g>
						<g>
							<line class="st48" x1="368.2" y1="204.7" x2="369.8" y2="206.1"/>
							<line class="st48" x1="368.2" y1="204.7" x2="369.8" y2="206.1"/>
							<path class="st49" d="M371.9,203.1c0,0,0,0.1-0.1,0.2s-0.1,0.2-0.1,0.4c-0.1,0.3-0.3,0.8-0.5,1.2c-0.2,0.4-0.5,0.8-0.7,1.1
								s-0.4,0.5-0.4,0.5l-2.5-2.1c0,0,0.1-0.1,0.2-0.3c0.1-0.2,0.3-0.4,0.5-0.7c0.1-0.3,0.3-0.6,0.4-0.8c0-0.1,0.1-0.2,0.1-0.3
								c0-0.1,0-0.1,0-0.1L371.9,203.1z"/>
						</g>
						<g>
							<line class="st48" x1="369.6" y1="202" x2="371.6" y2="202.6"/>
							<line class="st48" x1="369.6" y1="202" x2="371.6" y2="202.6"/>
							<path class="st49" d="M372.3,198.9c0,0,0,0.2,0.1,0.6c0,0.3,0,0.8,0,1.3s-0.1,1-0.2,1.3c0,0.2-0.1,0.3-0.1,0.4s0,0.2,0,0.2
								l-3.1-0.8c0,0,0,0,0-0.1c0-0.1,0-0.2,0.1-0.3c0.1-0.2,0.1-0.5,0.1-0.9c0-0.3,0-0.6,0-0.9c0-0.2,0-0.4,0-0.4L372.3,198.9z"/>
						</g>
						<g>
							<line class="st48" x1="369.7" y1="198.9" x2="371.8" y2="198.5"/>
							<line class="st48" x1="369.7" y1="198.9" x2="371.8" y2="198.5"/>
							<path class="st49" d="M370.8,195c0,0,0,0,0.1,0.1c0,0,0.1,0.1,0.1,0.2c0,0,0,0.1,0.1,0.1c0,0,0,0.1,0.1,0.1
								c0.1,0.2,0.2,0.3,0.3,0.5c0,0,0,0.1,0.1,0.1c0,0.1,0,0.1,0.1,0.2c0,0.1,0.1,0.2,0.1,0.3c0,0.1,0.1,0.2,0.1,0.3
								c0,0.1,0.1,0.2,0.1,0.3c0.1,0.2,0.1,0.4,0.2,0.6c0,0.2,0.1,0.3,0.1,0.4c0,0.1,0,0.2,0,0.2L369,199c0,0,0,0,0-0.1
								c0-0.1,0-0.2-0.1-0.3c0-0.1-0.1-0.2-0.1-0.4c0-0.1,0-0.1-0.1-0.2c0-0.1-0.1-0.1-0.1-0.2c0-0.1-0.1-0.1-0.1-0.2
								c0,0,0-0.1,0-0.1c0,0,0-0.1-0.1-0.1c-0.1-0.1-0.1-0.2-0.2-0.3c0,0,0,0,0-0.1c0,0,0,0,0-0.1c0,0-0.1-0.1-0.1-0.1
								c0-0.1-0.1-0.1-0.1-0.1L370.8,195z"/>
						</g>
						<g>
							<line class="st48" x1="368.5" y1="196.1" x2="370.2" y2="194.9"/>
							<line class="st48" x1="368.5" y1="196.1" x2="370.2" y2="194.9"/>
							<path class="st49" d="M367.7,192.1c0,0,0.1,0,0.1,0.1c0.1,0.1,0.2,0.1,0.4,0.2c0.1,0,0.1,0.1,0.2,0.2c0,0,0.1,0.1,0.1,0.1
								c0,0,0.1,0.1,0.1,0.1c0.2,0.1,0.3,0.3,0.5,0.4c0.2,0.2,0.3,0.3,0.5,0.5c0.1,0.1,0.1,0.2,0.2,0.2c0.1,0.1,0.1,0.1,0.2,0.2
								c0.1,0.1,0.2,0.2,0.3,0.3c0.1,0.1,0.1,0.1,0.1,0.1l-2.6,1.9c0,0,0,0-0.1-0.1c0,0-0.1-0.1-0.2-0.2c0,0-0.1-0.1-0.1-0.1
								c0-0.1-0.1-0.1-0.1-0.2c-0.1-0.1-0.2-0.2-0.3-0.3s-0.2-0.2-0.3-0.3c0,0-0.1-0.1-0.1-0.1c0,0-0.1,0-0.1-0.1
								c-0.1,0-0.1-0.1-0.2-0.1c-0.1-0.1-0.2-0.1-0.2-0.2c-0.1,0-0.1-0.1-0.1-0.1L367.7,192.1z"/>
						</g>
						<g>
							<line class="st48" x1="366.1" y1="194.1" x2="367.2" y2="192.2"/>
							<line class="st48" x1="366.1" y1="194.1" x2="367.2" y2="192.2"/>
							<path class="st49" d="M363.7,190.8c0,0,0.2,0,0.6,0.1c0.2,0,0.4,0.1,0.6,0.1c0.1,0,0.2,0,0.3,0.1c0.1,0,0.2,0.1,0.3,0.1
								c0.2,0.1,0.5,0.1,0.7,0.2c0.2,0.1,0.4,0.2,0.6,0.2c0.1,0,0.1,0.1,0.2,0.1c0.1,0,0.1,0.1,0.2,0.1c0.1,0,0.1,0.1,0.1,0.1
								l-1.5,2.9c0,0,0,0-0.1-0.1c0,0-0.1,0-0.1-0.1c0,0-0.1,0-0.1-0.1c-0.1,0-0.2-0.1-0.4-0.2c-0.1-0.1-0.3-0.1-0.4-0.1
								c-0.1,0-0.1-0.1-0.2-0.1s-0.1,0-0.2,0c-0.1,0-0.3-0.1-0.4-0.1c-0.2,0-0.4,0-0.4,0L363.7,190.8z"/>
						</g>
						<g>
							<line class="st48" x1="363.2" y1="193.3" x2="363.3" y2="191.2"/>
							<line class="st48" x1="363.2" y1="193.3" x2="363.3" y2="191.2"/>
							<path class="st49" d="M359.6,191.3C359.6,191.3,359.6,191.3,359.6,191.3c0.1,0,0.1,0,0.2-0.1c0.1,0,0.2-0.1,0.4-0.1
								c0.1,0,0.2-0.1,0.3-0.1c0.1,0,0.2-0.1,0.3-0.1c0.2,0,0.4-0.1,0.7-0.1c0.1,0,0.2,0,0.3,0c0.1,0,0.2,0,0.3,0s0.2,0,0.3,0
								c0.1,0,0.2,0,0.3,0c0.4,0,0.6,0,0.6,0l-0.1,3.2c0,0-0.2,0-0.4,0c-0.1,0-0.1,0-0.2,0c-0.1,0-0.1,0-0.2,0c-0.1,0-0.2,0-0.2,0
								c-0.1,0-0.2,0-0.2,0c-0.1,0-0.3,0.1-0.4,0.1c-0.1,0-0.1,0-0.2,0.1c-0.1,0-0.1,0-0.2,0.1c-0.1,0-0.2,0.1-0.3,0.1
								c0,0-0.1,0-0.1,0c0,0,0,0,0,0L359.6,191.3z"/>
						</g>
						<g>
							<line class="st48" x1="360.2" y1="193.8" x2="359.3" y2="191.9"/>
							<line class="st48" x1="360.2" y1="193.8" x2="359.3" y2="191.9"/>
							<path class="st49" d="M356.1,193.6c0,0,0.2-0.2,0.4-0.4c0.1-0.1,0.3-0.2,0.5-0.4c0.1-0.1,0.2-0.1,0.3-0.2
								c0.1-0.1,0.2-0.1,0.3-0.2c0.2-0.1,0.4-0.3,0.6-0.4c0.2-0.1,0.4-0.2,0.5-0.3c0.1,0,0.1-0.1,0.2-0.1s0.1-0.1,0.2-0.1
								c0.1,0,0.1-0.1,0.1-0.1l1.3,3c0,0,0,0-0.1,0c0,0-0.1,0-0.1,0c0,0-0.1,0-0.1,0.1c-0.1,0.1-0.2,0.1-0.3,0.2
								c-0.1,0.1-0.3,0.2-0.4,0.2c-0.1,0-0.1,0.1-0.2,0.1c-0.1,0-0.1,0.1-0.2,0.1c-0.1,0.1-0.2,0.2-0.3,0.3
								c-0.2,0.2-0.3,0.3-0.3,0.3L356.1,193.6z"/>
						</g>
						<g>
							<line class="st48" x1="357.7" y1="195.6" x2="356.1" y2="194.2"/>
							<line class="st48" x1="357.7" y1="195.6" x2="356.1" y2="194.2"/>
							<path class="st49" d="M353.9,197.2c0,0,0-0.1,0-0.2c0,0,0-0.1,0.1-0.2c0-0.1,0.1-0.1,0.1-0.2c0.1-0.2,0.2-0.4,0.2-0.6
								c0.1-0.2,0.2-0.4,0.3-0.6c0.1-0.1,0.1-0.2,0.2-0.3c0.1-0.1,0.1-0.2,0.2-0.3c0.1-0.1,0.1-0.2,0.2-0.3c0.1-0.1,0.1-0.2,0.2-0.2
								c0.2-0.3,0.4-0.5,0.4-0.5l2.4,2.2c0,0-0.1,0.1-0.2,0.3c0,0-0.1,0.1-0.1,0.2c0,0.1-0.1,0.1-0.1,0.2c0,0.1-0.1,0.1-0.1,0.2
								c0,0.1-0.1,0.1-0.1,0.2c-0.1,0.1-0.2,0.3-0.2,0.4c-0.1,0.1-0.1,0.3-0.2,0.4c0,0.1,0,0.1-0.1,0.1s0,0.1,0,0.1
								c0,0.1,0,0.1,0,0.1L353.9,197.2z"/>
						</g>
						<g>
							<line class="st48" x1="356.2" y1="198.3" x2="354.2" y2="197.7"/>
							<line class="st48" x1="356.2" y1="198.3" x2="354.2" y2="197.7"/>
							<path class="st49" d="M353.5,201.5C353.5,201.5,353.5,201.5,353.5,201.5c0-0.1,0-0.1,0-0.2c0-0.1,0-0.1,0-0.2
								c0-0.1,0-0.2,0-0.3c0-0.2,0-0.4,0-0.6c0-0.1,0-0.2,0-0.3c0-0.1,0-0.2,0-0.3c0-0.2,0-0.5,0.1-0.7c0-0.1,0-0.2,0.1-0.3
								s0-0.2,0.1-0.3c0-0.2,0.1-0.3,0.1-0.4s0-0.2,0-0.2l3.1,0.9c0,0,0,0,0,0.1c0,0.1,0,0.2-0.1,0.3c0,0.1,0,0.1,0,0.2
								c0,0.1,0,0.1,0,0.2c0,0.1,0,0.3,0,0.5c0,0.1,0,0.2,0,0.2c0,0.1,0,0.2,0,0.2c0,0.1,0,0.3,0,0.4c0,0,0,0.1,0,0.1
								c0,0,0,0.1,0,0.1c0,0,0,0.1,0,0.1c0,0,0,0,0,0L353.5,201.5z"/>
						</g>
						<g>
							<line class="st48" x1="356.1" y1="201.3" x2="354" y2="201.8"/>
							<line class="st48" x1="356.1" y1="201.3" x2="354" y2="201.8"/>
							<path class="st49" d="M354.8,205.2c0,0-0.1-0.2-0.2-0.5c-0.1-0.3-0.3-0.7-0.5-1.1c-0.2-0.4-0.3-0.8-0.4-1.2s-0.1-0.6-0.1-0.6
								l3.2-0.7c0,0,0,0.1,0.1,0.4c0.1,0.2,0.2,0.6,0.3,0.9c0.1,0.3,0.3,0.6,0.4,0.9c0.1,0.2,0.2,0.4,0.2,0.4L354.8,205.2z"/>
						</g>
						<g>
							<line class="st48" x1="357.3" y1="204.4" x2="355.4" y2="205.4"/>
							<line class="st48" x1="357.3" y1="204.4" x2="355.4" y2="205.4"/>
							<path class="st49" d="M357.6,208.6c0,0-0.1,0-0.2-0.1c-0.1-0.1-0.3-0.2-0.5-0.3c-0.3-0.3-0.7-0.7-1-1.1
								c-0.3-0.4-0.5-0.8-0.7-1.1s-0.3-0.5-0.3-0.5l2.9-1.5c0,0,0.1,0.2,0.2,0.4c0.1,0.2,0.3,0.5,0.5,0.8c0.2,0.2,0.4,0.5,0.5,0.5
								c0.1,0,0.1,0.1,0.1,0.1c0,0,0,0,0,0L357.6,208.6z"/>
						</g>
					</g>
				</g>
			</g>
		</g>
		<g>
			<path class="st50" d="M352,287.1L352,287.1l21.9,0v0c0,6-4.9,10.9-10.9,10.9h-0.2C356.9,298,352,293.1,352,287.1z"/>
			<path class="st51" d="M354.9,258.2L340,271.4c-1.1,1-1.2,2.7-0.2,3.8l0,0c1,1.1,2.7,1.2,3.8,0.2l14.8-13.1c1.1-1,1.2-2.7,0.2-3.8
				l0,0C357.6,257.4,356,257.3,354.9,258.2z"/>
			<path class="st51" d="M388.7,259.5l-19.7-2.1c-1.5-0.2-2.8,0.9-2.9,2.4l0,0c-0.2,1.5,0.9,2.8,2.4,2.9l19.7,2.1
				c1.5,0.2,2.8-0.9,2.9-2.4l0,0C391.2,260.9,390.2,259.6,388.7,259.5z"/>
			<path class="st51" d="M390.1,264.2l15.8-12c1.2-0.9,1.4-2.6,0.5-3.7l0,0c-0.9-1.2-2.6-1.4-3.7-0.5l-15.8,12
				c-1.2,0.9-1.4,2.6-0.5,3.7l0,0C387.3,264.8,388.9,265.1,390.1,264.2z"/>
			<path class="st51" d="M354.8,282.9L343.2,272c-1.1-1-2.8-0.9-3.8,0.1l0,0c-1,1.1-0.9,2.8,0.1,3.8l11.6,10.8
				c1.1,1,2.8,0.9,3.8-0.1l0,0C355.9,285.6,355.9,283.9,354.8,282.9z"/>
			<path class="st52" d="M366.5,336.4h2.8l0.3,3.9c0,0,2.4-1.6,5.3-1.1c2.9,0.5,3.3,3.2,3.3,3.2l-11.7-0.1V336.4L366.5,336.4z"/>
			<rect x="365" y="287" class="st50" width="5.9" height="49.4"/>
			<path class="st52" d="M356.8,336.4l-0.3,3.9c0,0-2.4-1.6-5.3-1.1c-2.9,0.5-3.3,3.2-3.3,3.2l11.7-0.1v-5.9H356.8z"/>
			<rect x="355.2" y="287" class="st50" width="5.9" height="49.4"/>
			<path class="st51" d="M374,263.9V287H352v-23.1c0-3.8,3.1-6.8,6.8-6.8h8.3C370.9,257.1,374,260.1,374,263.9z"/>
			<g>
				<path class="st53" d="M402.2,248l-1.2-4.1c-0.1-0.5,0.2-1,0.6-1.1l0,0c0.5-0.1,1,0.2,1.1,0.6l1.2,4.1c0.1,0.5-0.2,1-0.6,1.1l0,0
					C402.8,248.7,402.3,248.5,402.2,248z"/>
				<path class="st53" d="M405.6,251.9l-3.3-3.7c-0.5-0.5-0.4-1.3,0.1-1.8l1.1-1c0.5-0.4,1.2-0.4,1.6,0.1l3.4,3.8
					c0.4,0.5,0.4,1.2-0.1,1.6l-1.1,1C406.8,252.4,406,252.4,405.6,251.9z"/>
				<path class="st53" d="M403,245.9l6.4-5.7c0.4-0.3,1-0.3,1.3,0.1l0,0c0.3,0.4,0.3,1-0.1,1.3l-6.4,5.7c-0.4,0.3-1,0.3-1.3-0.1l0,0
					C402.6,246.8,402.6,246.3,403,245.9z"/>
				<path class="st53" d="M404.8,246.7l3.2-2.8c0.4-0.3,1-0.3,1.3,0.1l0,0c0.3,0.4,0.3,1-0.1,1.3l-3.2,2.8c-0.4,0.3-1,0.3-1.3-0.1
					l0,0C404.4,247.7,404.5,247.1,404.8,246.7z"/>
				<path class="st53" d="M405.7,248.4l3.2-2.8c0.4-0.3,1-0.3,1.3,0.1l0,0c0.3,0.4,0.3,1-0.1,1.3l-3.2,2.8c-0.4,0.3-1,0.3-1.3-0.1
					l0,0C405.3,249.4,405.3,248.8,405.7,248.4z"/>
				<path class="st53" d="M406.4,250.3l3.2-2.8c0.4-0.3,1-0.3,1.3,0.1l0,0c0.3,0.4,0.3,1-0.1,1.3l-3.2,2.8c-0.4,0.3-1,0.3-1.3-0.1
					l0,0C406,251.2,406.1,250.6,406.4,250.3z"/>
			</g>
			<g>
				<path class="st53" d="M355.4,291.2c0.2,0.4,0.1,0.9-0.3,1.1l0,0c-0.4,0.2-0.9,0.1-1.1-0.3l-2.5-4.5l1.4-0.8L355.4,291.2z"/>
				<path class="st53" d="M357.6,291.2c0.2,0.4,0.1,0.9-0.3,1.1l0,0c-0.4,0.2-0.9,0.1-1.1-0.3l-3.2-5.3l1.4-0.9L357.6,291.2z"/>
				<path class="st53" d="M359.7,290.6c0.3,0.4,0.2,0.9-0.1,1.2l0,0c-0.4,0.3-0.9,0.2-1.2-0.1l-3.8-4.9l1.3-1L359.7,290.6z"/>
				<path class="st53" d="M361,288.5c0.3,0.3,0.4,0.8,0.1,1.2l0,0c-0.3,0.3-0.8,0.4-1.2,0.1l-4.6-4.1l1.1-1.2L361,288.5z"/>
				<path class="st53" d="M359.5,284.3c0.4,0.1,0.7,0.6,0.6,1l0,0c-0.1,0.4-0.6,0.7-1,0.6l-3.6-1l0.4-1.6L359.5,284.3z"/>
				<path class="st53" d="M354.5,283.5l-2.6,2c-0.7,0.5-0.8,1.6-0.3,2.3l0.8,1c0.1,0.2,0.4,0.2,0.6,0.1l4.5-3.5
					c0.2-0.1,0.2-0.4,0.1-0.6l-0.8-1C356.2,283.1,355.2,283,354.5,283.5z"/>
			</g>
			<path class="st53" d="M358.7,254.5h7.1v3.1c0,1.9-1.6,3.5-3.5,3.5h0l0,0c-1.9,0-3.5-1.6-3.5-3.5V254.5z"/>
			<path class="st54" d="M365.8,255.1h-7.1v2.2c1,0.3,1.9,0.4,2.9,0.4c1.4,0,2.8-0.3,4.2-0.9V255.1z"/>
			<g>
				<path class="st55" d="M345.6,241.7c-0.3,0.5-0.5,1.2-0.5,1.8c0,1.9,1.5,3.4,3.4,3.4c0.1,0,0.2,0,0.3,0c-0.1,0.3-0.1,0.6-0.1,0.9
					c0,1.7,1.3,3,3,3c1.2,0,2.3-0.7,2.7-1.8c2.2,1.6,4.9,2.5,7.8,2.5c2.9,0,5.5-0.9,7.7-2.4c0.5,0.9,1.4,1.5,2.5,1.5
					c1.6,0,2.9-1.3,2.9-2.9c0-0.4-0.1-0.7-0.2-1.1c1.4-0.1,2.5-1.3,2.5-2.8c0-0.6-0.2-1.2-0.6-1.7c1.2-0.5,2-1.7,2-3
					c0-1.3-0.7-2.3-1.7-2.9c1.3-0.8,2.2-2.2,2.2-3.9c0-2.5-2-4.4-4.4-4.5c0.1-0.3,0.1-0.6,0.1-0.9c0-2.3-1.9-4.2-4.2-4.2
					c-0.8,0-1.5,0.2-2.1,0.6c-0.5-1.7-2.1-3-4-3c-1.3,0-2.4,0.5-3.2,1.4c-0.6-1-1.8-1.6-3-1.6c-2,0-3.6,1.6-3.6,3.6c0,0,0,0,0,0
					c-0.7-0.7-1.7-1.1-2.7-1.1c-2.2,0-3.9,1.7-3.9,3.9c0,0.5,0.1,1,0.3,1.5c-2.3,0.2-4,2.1-4,4.4c0,1.3,0.6,2.5,1.4,3.3
					c-1.3,0.4-2.2,1.7-2.2,3.1C343.9,240,344.6,241.1,345.6,241.7z"/>
				<path class="st53" d="M350.5,245.4v-9.6c0-5,4-9,9-9h4.2c5,0,9,4,9,9v9.6c0,6.2-6,10.6-11.1,10.6
					C356.6,255.9,350.5,251.5,350.5,245.4z"/>
				<rect x="370.1" y="235" class="st55" width="5.2" height="5.6"/>
				<circle class="st53" cx="372.8" cy="240.3" r="3.2"/>
				<path class="st56" d="M373.3,241.4c0.4-0.2,0.6-0.6,0.6-1c0-0.6-0.5-1.1-1.1-1.1c-0.4,0-0.8,0.2-1,0.5c0.1-0.1,0.3-0.1,0.5-0.1
					c0.6,0,1.1,0.5,1.1,1.1C373.4,241,373.4,241.2,373.3,241.4z"/>
				<ellipse class="st57" cx="365.2" cy="240.7" rx="0.7" ry="1.3"/>
				<ellipse class="st57" cx="356.1" cy="240.7" rx="0.7" ry="1.3"/>
				<path class="st56" d="M361,241.9l-1.6,1.9c-0.2,0.3,0,0.7,0.3,0.7h1.4c0.1,0,0.2-0.1,0.2-0.2V242
					C361.4,241.9,361.1,241.8,361,241.9z"/>
				<circle class="st53" cx="350.3" cy="240.3" r="3.2"/>
				<path class="st56" d="M349.4,241.4c-0.4-0.2-0.6-0.6-0.6-1c0-0.6,0.5-1.1,1.1-1.1c0.4,0,0.8,0.2,1,0.5c-0.1-0.1-0.3-0.1-0.5-0.1
					c-0.6,0-1.1,0.5-1.1,1.1C349.2,241,349.3,241.2,349.4,241.4z"/>
				<path class="st55" d="M350.1,234.5c0.9,1.5,3.1,1.7,4.9,0.6c1-0.6,1.6-1.5,1.8-2.4c0.6,0.8,1.7,1.3,2.9,1.3
					c1.6,0,2.9-0.9,3.4-2.2c0.4,1.2,1.4,2,2.7,2c0.5,0,1-0.1,1.4-0.3l0.3,0.1c-0.2,1.1,0.3,2.3,1.4,2.9c1.2,0.7,2.6,0.5,3.4-0.4
					l0.5-0.9c0.1-0.4,0.1-0.8,0-1.2v-3.4c0-2.4-2-4.4-4.4-4.4h-14c-2.4,0-4.4,2-4.4,4.4v1.2C349.6,232.8,349.6,233.8,350.1,234.5z"
					/>
			</g>
			<path class="st56" d="M357.1,246.2c0,2,1.6,3.6,3.6,3.6l0,0c2,0,3.6-1.6,3.6-3.6"/>
		</g>
	</g>
	<path class="st58" d="M648.8,102.1c-15.1-9.3-32.9-14.6-52-14.6c-12.5,0-24.4,2.3-35.4,6.5c-7.6-8.1-18.4-13.1-30.3-13.1
		c-5.3,0-10.3,1-14.9,2.8c1.6-4.8,2.5-10,2.5-15.4c0-9.7-2.8-18.8-7.7-26.4c2.8-9.3,4.3-19.2,4.3-29.5
		c0-56.4-45.7-102.2-102.2-102.2S310.9-44.2,310.9,12.3c0,6.9,0.7,13.6,2,20.1c-2.9-0.6-6-1-9.1-1c-5.2,0-10.1,0.9-14.7,2.5
		C276.6,9.2,250.9-7.8,221.3-7.8c-42,0-76,34-76,76c0,9.1,1.6,17.8,4.5,25.9c-2.7,1.7-4.5,4.7-4.5,8.1c0,5.3,4.3,9.5,9.5,9.5
		c1.3,0,2.6-0.3,3.7-0.7c13.7,20,36.7,33.1,62.7,33.1c24.8,0,46.8-11.9,60.6-30.2c6.4,3.7,13.9,5.8,21.9,5.8c3.5,0,7-0.4,10.3-1.2
		c6.8,6.3,16,10.1,26,10.1c15.2,0,28.4-8.8,34.6-21.7c11.9,4.8,24.9,7.5,38.5,7.5c10.6,0,20.9-1.6,30.5-4.6c7.5,4.7,16.4,7.5,26,7.5
		c7.6,0,14.7-1.7,21.1-4.8c-0.8,3.2-1.2,6.5-1.2,9.9c0,6,1.3,11.8,3.6,16.9c-23.4,3.2-41.5,23-42,47.2c-10.8,0.6-19.4,9.5-19.4,20.5
		c0,0.8,0,1.6,0.1,2.3c-5,0.8-8.8,5.2-8.8,10.4c0,5.8,4.7,10.5,10.5,10.5c3.8,0,7.2-2,9-5.1c2.9,1.5,6.1,2.4,9.6,2.4
		c5.2,0,10-1.9,13.6-5.1c8.8,8.5,20.7,13.8,34,13.8c3.4,0,6.7-0.4,9.9-1c0.3,0.6,0.6,1.1,1,1.7c-1,3.7-1.5,7.6-1.5,11.7
		c0,7.7,1.9,15,5.2,21.4c-25.2,22.4-41.1,55.1-41.1,91.5c0,67.7,54.8,122.5,122.5,122.5c66.8,0,121.1-53.4,122.5-119.9h276.2V102.1
		H648.8z"/>
</g>
<g id="Layer_2">
	<g>
		
			<radialGradient id="SVGID_113_" cx="553.0698" cy="175.3192" r="543.0144" fx="1019.1544" fy="25.4671" gradientTransform="matrix(0.9844 -0.176 0.1101 0.6155 -10.6603 164.7572)" gradientUnits="userSpaceOnUse">
			<stop  offset="0" style="stop-color:#FFF39F"/>
			<stop  offset="5.448388e-02" style="stop-color:#FFE19B"/>
			<stop  offset="0.1634" style="stop-color:#FFB391"/>
			<stop  offset="0.3168" style="stop-color:#FF6980"/>
			<stop  offset="0.5071" style="stop-color:#FF0469"/>
			<stop  offset="0.5148" style="stop-color:#FF0068"/>
			<stop  offset="1" style="stop-color:#6200EF"/>
		</radialGradient>
		<path class="st59" d="M398.4,0c36.8,0,56.1,5,92.1,11.2c27.2,4.6,47.5-0.1,47.5-0.1C563.1,6,635-3.6,677.8,16
			c64.9,29.7,105.9,21.2,131.5,10.2c48-20.7,57.9-1.6,116.8-18c60.8-16.9,54.8,25.5,54.8,25.5c-2.4,16.5-12.5,26.8-33.1,30.4
			c-20.4,3.6-24,23.3-26.2,29.5c-2.3,6.3-13.6,9.5-19.7,8.7c-6.1-0.7-19.6-6.6-27.8,7.7c-2.9,6.5-1.3,15.5-16.5,18.9
			c-10.4,2.4-16.1,11.8-16.1,11.8s10.7-5.9,15.5-5.5c6.3,0.5,8.1,3,19-0.3c20-5.9,18.7,0,26.2,8.9s9.1,8.8,21.7,11.1
			c12.7,2.4,21.6,19.3,24.6,26.3c3,7,15.9,16,27.2,19s24.4,12.5,24,33.4c0,0,2,59.7-44,101.7c-32.5,29.7-41.7,29.1-41.7,29.1
			l-413.5,0L0,364.2V0H398.4z"/>
	</g>
	<g>
		<path class="st50" d="M747.3,219.1L747.3,219.1l29.6,0v0c0,8.1-6.6,14.8-14.7,14.8h-0.3C753.8,233.8,747.3,227.2,747.3,219.1z"/>
		<path class="st51" d="M751.1,180.2l-20,17.7c-1.5,1.3-1.6,3.6-0.3,5.1l0,0c1.3,1.5,3.6,1.6,5.1,0.3l20-17.7
			c1.5-1.3,1.6-3.6,0.3-5.1l0,0C754.8,179,752.6,178.9,751.1,180.2z"/>
		<path class="st51" d="M796.8,181.8l-26.6-2.9c-2-0.2-3.7,1.2-4,3.2l0,0c-0.2,2,1.2,3.7,3.2,4L796,189c2,0.2,3.7-1.2,4-3.2l0,0
			C800.2,183.8,798.7,182,796.8,181.8z"/>
		<path class="st51" d="M798.6,188.2l21.3-16.2c1.6-1.2,1.9-3.4,0.7-5l0,0c-1.2-1.6-3.4-1.9-5-0.7l-21.3,16.2
			c-1.6,1.2-1.9,3.4-0.7,5l0,0C794.8,189.1,797.1,189.4,798.6,188.2z"/>
		<path class="st51" d="M751,213.4l-15.6-14.6c-1.5-1.3-3.7-1.3-5.1,0.2l0,0c-1.3,1.5-1.3,3.7,0.2,5.1l15.6,14.6
			c1.5,1.3,3.7,1.3,5.1-0.2l0,0C752.5,217.1,752.5,214.8,751,213.4z"/>
		<path class="st52" d="M766.8,285.7h3.7l0.4,5.3c0,0,3.3-2.2,7.1-1.5c3.9,0.7,4.5,4.3,4.5,4.3l-15.7-0.1V285.7L766.8,285.7z"/>
		<rect x="764.8" y="219" class="st50" width="8" height="66.6"/>
		<path class="st52" d="M753.7,285.7l-0.4,5.3c0,0-3.3-2.2-7.1-1.5c-3.9,0.7-4.5,4.3-4.5,4.3l15.7-0.1v-8H753.7z"/>
		<rect x="751.5" y="219" class="st50" width="8" height="66.6"/>
		<path class="st51" d="M776.8,187.8V219h-29.6v-31.2c0-5.1,4.1-9.2,9.2-9.2h11.2C772.8,178.6,776.9,182.7,776.8,187.8z"/>
		<g>
			<path class="st53" d="M814.9,166.3l-1.6-5.5c-0.2-0.7,0.2-1.3,0.9-1.5l0,0c0.7-0.2,1.3,0.2,1.5,0.9l1.6,5.5
				c0.2,0.7-0.2,1.3-0.9,1.5l0,0C815.8,167.4,815.1,167,814.9,166.3z"/>
			<path class="st53" d="M819.5,171.6l-4.4-5c-0.6-0.7-0.6-1.8,0.1-2.4l1.5-1.3c0.6-0.6,1.6-0.5,2.2,0.1l4.5,5.1
				c0.6,0.6,0.5,1.6-0.1,2.2l-1.5,1.3C821.2,172.4,820.1,172.3,819.5,171.6z"/>
			<path class="st53" d="M816,163.6l8.7-7.7c0.5-0.4,1.3-0.4,1.8,0.1l0,0c0.4,0.5,0.4,1.3-0.1,1.8l-8.7,7.7
				c-0.5,0.4-1.3,0.4-1.8-0.1l0,0C815.5,164.8,815.5,164,816,163.6z"/>
			<path class="st53" d="M818.5,164.7l4.3-3.8c0.5-0.4,1.3-0.4,1.8,0.1l0,0c0.4,0.5,0.4,1.3-0.1,1.8l-4.3,3.8
				c-0.5,0.4-1.3,0.4-1.8-0.1l0,0C818,165.9,818,165.1,818.5,164.7z"/>
			<path class="st53" d="M819.7,167l4.3-3.8c0.5-0.4,1.3-0.4,1.8,0.1l0,0c0.4,0.5,0.4,1.3-0.1,1.8l-4.3,3.8
				c-0.5,0.4-1.3,0.4-1.8-0.1l0,0C819.2,168.2,819.2,167.4,819.7,167z"/>
			<path class="st53" d="M820.7,169.4l4.3-3.8c0.5-0.4,1.3-0.4,1.8,0.1l0,0c0.4,0.5,0.4,1.3-0.1,1.8l-4.3,3.8
				c-0.5,0.4-1.3,0.4-1.8-0.1l0,0C820.1,170.7,820.2,169.9,820.7,169.4z"/>
		</g>
		<g>
			<path class="st53" d="M751.8,224.7c0.3,0.5,0.1,1.2-0.4,1.5l0,0c-0.5,0.3-1.2,0.1-1.5-0.4l-3.4-6l1.9-1.1L751.8,224.7z"/>
			<path class="st53" d="M754.8,224.7c0.3,0.5,0.2,1.2-0.4,1.5l0,0c-0.5,0.3-1.2,0.2-1.5-0.4l-4.4-7.1l1.9-1.1L754.8,224.7z"/>
			<path class="st53" d="M757.6,223.8c0.4,0.5,0.3,1.2-0.2,1.6l0,0c-0.5,0.4-1.2,0.3-1.6-0.2l-5.1-6.6l1.8-1.3L757.6,223.8z"/>
			<path class="st53" d="M759.3,221c0.5,0.4,0.5,1.1,0.1,1.6l0,0c-0.4,0.5-1.1,0.5-1.6,0.1l-6.3-5.6l1.5-1.7L759.3,221z"/>
			<path class="st53" d="M757.3,215.3c0.6,0.2,0.9,0.8,0.8,1.4l0,0c-0.2,0.6-0.8,0.9-1.4,0.8l-4.9-1.3l0.6-2.1L757.3,215.3z"/>
			<path class="st53" d="M750.5,214.3l-3.5,2.7c-1,0.7-1.1,2.1-0.4,3.1l1.1,1.4c0.2,0.3,0.6,0.3,0.8,0.1l6.1-4.7
				c0.3-0.2,0.3-0.6,0.1-0.8l-1.1-1.4C752.9,213.8,751.5,213.6,750.5,214.3z"/>
		</g>
		<path class="st53" d="M756.2,175.2h9.5v4.2c0,2.6-2.2,4.8-4.8,4.8h0l0,0c-2.6,0-4.7-2.2-4.7-4.8V175.2z"/>
		<path class="st54" d="M765.8,175.9h-9.5v3c1.3,0.4,2.6,0.6,3.9,0.6c1.9,0,3.8-0.4,5.6-1.2V175.9z"/>
		<g>
			<path class="st55" d="M738.5,157.8c-0.5,0.7-0.7,1.6-0.7,2.5c0,2.5,2,4.6,4.6,4.6c0.1,0,0.2,0,0.4,0c-0.1,0.4-0.2,0.8-0.2,1.1
				c0,2.2,1.8,4,4,4c1.6,0,3-1,3.7-2.4c3,2.1,6.6,3.3,10.5,3.3c3.9,0,7.5-1.2,10.4-3.3c0.6,1.2,1.9,2,3.4,2c2.1,0,3.9-1.7,3.9-3.9
				c0-0.5-0.1-1-0.3-1.4c1.9-0.2,3.4-1.8,3.4-3.8c0-0.9-0.3-1.6-0.8-2.3c1.6-0.7,2.7-2.2,2.7-4.1c0-1.7-0.9-3.2-2.3-3.9
				c1.8-1.1,3-3,3-5.2c0-3.3-2.7-6-6-6c0.1-0.4,0.1-0.8,0.1-1.2c0-3.1-2.5-5.7-5.7-5.7c-1.1,0-2,0.3-2.9,0.8
				c-0.7-2.4-2.8-4.1-5.4-4.1c-1.7,0-3.2,0.7-4.3,1.9c-0.9-1.3-2.4-2.2-4.1-2.2c-2.7,0-4.9,2.2-4.9,4.9c0,0,0,0,0,0
				c-1-0.9-2.2-1.5-3.7-1.5c-2.9,0-5.3,2.4-5.3,5.3c0,0.7,0.1,1.4,0.4,2c-3,0.3-5.4,2.8-5.4,5.9c0,1.8,0.8,3.3,1.9,4.4
				c-1.7,0.6-3,2.3-3,4.2C736.2,155.5,737.2,157,738.5,157.8z"/>
			<path class="st53" d="M745.2,162.8v-12.9c0-6.7,5.5-12.2,12.2-12.2h5.7c6.7,0,12.2,5.5,12.2,12.2v12.9c0,8.3-8.2,14.3-15,14.3
				S745.2,171.1,745.2,162.8z"/>
			<rect x="771.7" y="148.9" class="st55" width="7.1" height="7.6"/>
			<circle class="st53" cx="775.3" cy="156" r="4.3"/>
			<path class="st56" d="M775.9,157.4c0.5-0.2,0.9-0.8,0.9-1.4c0-0.8-0.7-1.5-1.5-1.5c-0.6,0-1,0.3-1.3,0.7c0.2-0.1,0.4-0.1,0.6-0.1
				c0.8,0,1.5,0.7,1.5,1.5C776.1,156.9,776,157.2,775.9,157.4z"/>
			<ellipse class="st57" cx="765.1" cy="156.5" rx="1" ry="1.7"/>
			<ellipse class="st57" cx="752.7" cy="156.5" rx="1" ry="1.7"/>
			<path class="st56" d="M759.4,158.2l-2.1,2.5c-0.3,0.4-0.1,1,0.4,1h1.8c0.1,0,0.3-0.1,0.3-0.3v-3.1
				C759.8,158.1,759.5,158,759.4,158.2z"/>
			<circle class="st53" cx="744.9" cy="156" r="4.3"/>
			<path class="st56" d="M743.7,157.4c-0.5-0.2-0.9-0.8-0.9-1.4c0-0.8,0.7-1.5,1.5-1.5c0.6,0,1,0.3,1.3,0.7
				c-0.2-0.1-0.4-0.1-0.6-0.1c-0.8,0-1.5,0.7-1.5,1.5C743.4,156.9,743.5,157.2,743.7,157.4z"/>
			<path class="st55" d="M744.7,148.2c1.3,2,4.2,2.4,6.6,0.9c1.3-0.8,2.1-2,2.5-3.3c0.9,1.1,2.3,1.8,3.9,1.8c2.1,0,3.9-1.3,4.6-3
				c0.5,1.6,1.9,2.7,3.6,2.7c0.7,0,1.3-0.2,1.8-0.5l0.4,0.2c-0.3,1.5,0.4,3.1,1.9,4c1.6,0.9,3.5,0.7,4.6-0.5l0.7-1.3
				c0.2-0.5,0.2-1.1,0-1.6V143c0-3.3-2.6-5.9-5.9-5.9h-18.9c-3.3,0-5.9,2.6-5.9,5.9v1.7C744,145.8,744,147.1,744.7,148.2z"/>
		</g>
		<path class="st56" d="M754.1,164c0,2.6,2.2,4.8,4.8,4.8l0,0c2.6,0,4.8-2.2,4.8-4.8"/>
	</g>
	<g id="megaphone_1_">
		
			<linearGradient id="SVGID_114_" gradientUnits="userSpaceOnUse" x1="782.6365" y1="393.9307" x2="822.5524" y2="417.6823" gradientTransform="matrix(1 0 0 -1 0 567.338)">
			<stop  offset="0" style="stop-color:#CAEDFF"/>
			<stop  offset="1" style="stop-color:#FFFFFF"/>
		</linearGradient>
		<path class="st60" d="M828.7,156.2l-10,2.9l-1.5,0.4v0l-6.7,1.9c0,0-4.5-0.9-3-4.8l11.9-15.4L828.7,156.2z"/>
		
			<linearGradient id="SVGID_115_" gradientUnits="userSpaceOnUse" x1="835.1112" y1="407.1971" x2="809.3802" y2="448.7625" gradientTransform="matrix(1 0 0 -1 0 567.338)">
			<stop  offset="0" style="stop-color:#FFE75A"/>
			<stop  offset="1" style="stop-color:#FF0861"/>
		</linearGradient>
		<polygon class="st61" points="835.5,154.3 828.8,156.2 819.4,141.4 823.9,135.7 		"/>
		<polygon class="st41" points="817.1,159.6 820.8,165.3 821.5,164.9 818.7,159.1 		"/>
	</g>
</g>
</svg>
