<?xml version="1.0" encoding="utf-8"?>
<!-- Generator: Adobe Illustrator 25.0.0, SVG Export Plug-In . SVG Version: 6.00 Build 0)  -->
<svg version="1.1" id="Layer_1" xmlns="http://www.w3.org/2000/svg" xmlns:xlink="http://www.w3.org/1999/xlink" x="0px" y="0px"
	 viewBox="0 0 1010.5 547.1" style="enable-background:new 0 0 1010.5 547.1;" xml:space="preserve">
<style type="text/css">
	.st0{fill:#FCFCFC;}
</style>
<path class="st0" d="M354,8.6c0,0,57.4,22.1,106.7,16.4S564.3,6.4,594.3,8.6S716.4,26.9,768.6,26c52.1-0.9,77.9-7.4,92.9-13.1
	s58.6-19.3,95-1.4s50,57.1,53.6,82.1s-12.9,112.1-23.6,132.1s-24.3,82.1-7.1,150.7c17.1,68.6,0.7,93.6-12.9,117.9
	c-13.6,24.3-38.6,36.4-68.6,43.6c-30,7.1-149.3,8.6-199.3-10c-50-18.6-115.7-31.4-187.9-21.4c-72.1,10-156.7,36.3-156.7,36.3
	s-39,12.9-151.9-5.6C89.3,518.6,0,539.3,0,539.3V2.5c0,0,75.7,23.2,146.4,18.9S238-15,354,8.6z"/>
</svg>
