<?xml version="1.0" encoding="utf-8"?>
<!-- Generator: Adobe Illustrator 25.0.0, SVG Export Plug-In . SVG Version: 6.00 Build 0)  -->
<svg version="1.1" id="Layer_1" xmlns="http://www.w3.org/2000/svg" xmlns:xlink="http://www.w3.org/1999/xlink" x="0px" y="0px"
	 viewBox="0 0 1500.2 547.1" style="enable-background:new 0 0 1500.2 547.1;" xml:space="preserve">
<style type="text/css">
	.st0{fill:#FCFCFC;}
</style>
<path class="st0" d="M0,10.9c19.6-0.8,49.9-1.6,106.3,1.6s73.6,16.3,224.8,1.6S489.7,7,489.7,7s75.7,18.7,146.4,14.4
	S727.7-15,843.7,8.6c0,0,57.4,22.1,106.7,16.4C999.7,19.3,1054,6.4,1084,8.6s122.1,18.3,174.3,17.4c52.1-0.9,77.9-7.4,92.9-13.1
	s58.6-19.3,95-1.4s50,57.1,53.6,82.1s-12.9,112.1-23.6,132.1s-24.3,82.1-7.1,150.7c17.1,68.6,0.7,93.6-12.9,117.9
	c-13.6,24.3-38.6,36.4-68.6,43.6c-30,7.1-149.3,8.6-199.3-10c-50-18.6-115.7-31.4-187.9-21.4c-72.1,10-156.7,36.3-156.7,36.3
	s-39,12.9-151.9-5.6c-112.8-18.6-202.1,2.1-202.1,2.1s-5.9,5.4-108,1.3s-118.5-4.1-152.8-9.8c-34.3-5.7-121.8-0.8-156.1,3.3
	S0,547.1,0,547.1V10.9z"/>
</svg>
