<?xml version="1.0" encoding="utf-8"?>
<!-- Generator: Adobe Illustrator 25.0.0, SVG Export Plug-In . SVG Version: 6.00 Build 0)  -->
<svg version="1.1" id="Layer_1" xmlns="http://www.w3.org/2000/svg" xmlns:xlink="http://www.w3.org/1999/xlink" x="0px" y="0px"
	 viewBox="0 0 587.4 884.6" style="enable-background:new 0 0 587.4 884.6;" xml:space="preserve">
<style type="text/css">
	.st0{fill:url(#SVGID_1_);}
	.st1{fill:#FF9323;}
	.st2{fill:url(#SVGID_2_);}
	.st3{fill:url(#SVGID_3_);}
	.st4{display:none;}
	.st5{display:inline;fill:#E6E6E6;}
	.st6{display:inline;fill:#FBB03B;}
	.st7{display:inline;}
	.st8{fill:#FFC06C;}
	.st9{display:inline;fill:none;stroke:#FFFFFF;stroke-width:3;stroke-miterlimit:10;}
	.st10{display:inline;fill:#CCCCCC;}
	.st11{fill:none;stroke:#FBB03B;stroke-width:5;stroke-miterlimit:10;}
	.st12{fill:none;}
	.st13{fill:#4D4D4D;}
	.st14{fill:#405A7F;}
	.st15{fill:#754C24;}
	.st16{fill:#BF844F;}
	.st17{fill:#A06D42;}
	.st18{fill:#603813;}
	.st19{fill:#8C6239;}
	.st20{fill:#333333;}
</style>
<radialGradient id="SVGID_1_" cx="196.8" cy="816.993" r="193.9382" gradientTransform="matrix(1 0 0 -0.1815 0 998.5842)" gradientUnits="userSpaceOnUse">
	<stop  offset="0" style="stop-color:#020202;stop-opacity:0.3"/>
	<stop  offset="9.538452e-02" style="stop-color:#080808;stop-opacity:0.2714"/>
	<stop  offset="0.2205" style="stop-color:#181818;stop-opacity:0.2339"/>
	<stop  offset="0.3622" style="stop-color:#333333;stop-opacity:0.1913"/>
	<stop  offset="0.5161" style="stop-color:#595959;stop-opacity:0.1452"/>
	<stop  offset="0.6799" style="stop-color:#8A8A8A;stop-opacity:9.601679e-02"/>
	<stop  offset="0.8492" style="stop-color:#C5C5C5;stop-opacity:4.522541e-02"/>
	<stop  offset="1" style="stop-color:#FFFFFF;stop-opacity:0"/>
</radialGradient>
<ellipse class="st0" cx="196.8" cy="850.3" rx="196.8" ry="34.3"/>
<g id="megaphone_1_">
	<polygon class="st1" points="495,178.4 512.4,205.6 520.3,200.2 507.8,175 	"/>
	
		<linearGradient id="SVGID_2_" gradientUnits="userSpaceOnUse" x1="351.549" y1="694.3746" x2="526.6273" y2="798.5534" gradientTransform="matrix(1 0 0 -1 -1.8334 931.986)">
		<stop  offset="0" style="stop-color:#CAEDFF"/>
		<stop  offset="1" style="stop-color:#FFFFFF"/>
	</linearGradient>
	<path class="st2" d="M551.6,162.2L507.8,175l-6.7,2v0l-29.2,8.5c0,0-19.7-3.9-13.4-21.1L510.7,97L551.6,162.2z"/>
	
		<linearGradient id="SVGID_3_" gradientUnits="userSpaceOnUse" x1="581.7123" y1="752.5633" x2="468.8519" y2="934.876" gradientTransform="matrix(1 0 0 -1 -1.8334 931.986)">
		<stop  offset="0" style="stop-color:#FFE75A"/>
		<stop  offset="1" style="stop-color:#FF0861"/>
	</linearGradient>
	<polygon class="st3" points="581.8,153.7 552,162.3 511.1,97.2 530.6,72.1 	"/>
</g>
<g>
	<g class="st4">
		<circle class="st5" cx="196.3" cy="-59.5" r="7.2"/>
		<path class="st6" d="M160.9-121.4l0.6,1.3c6,10.1,13.2,7.6,13.2,19.6v8.6H217v-8.5c0-12.1,8-9.2,14.1-19.8l0.5-1.1
			c11.6-23.5-8-51.7-34.1-52.7c-0.5,0-1.1,0-1.6,0s-1.1,0-1.6,0C168.3-173,149.6-145,160.9-121.4z"/>
		<g class="st7">
			<path class="st8" d="M160.8-121.4l0.6,1.3c2.2,3.6,4.5,5.7,6.6,7.3c-0.5-0.6-0.9-1.3-1.4-2.1l-0.6-1.3
				c-11.3-23.6,7.4-51.5,33.5-52.6c0.5,0,1.1,0,1.6,0c0.6,0,1.1,0,1.6,0c8.8,0.4,16.9,3.9,23.3,9.2c-6.8-8.3-17-13.9-28.5-14.4
				c-0.5,0-1.1,0-1.6,0s-1.1,0-1.6,0C168.3-173,149.6-145,160.8-121.4z"/>
		</g>
		<path class="st9" d="M201.5-95.1c-0.7-6.7-1.5-13.5-1.2-20.3s1.7-13.6,4.9-19.6c0.8-1.5,1.8-3,3.2-4c2.4-1.7,5.8-1.6,8.1,0.1
			c2.3,1.8,3.3,5.1,2.3,7.8c-0.9,2.7-3.4,4.5-6,5.7c-5.1,2.4-27,2.4-32.1,0c-2.5-1.2-5-3-6-5.7c-1-2.8,0-6.1,2.3-7.8
			s5.7-1.8,8.1-0.1c1.4,1,2.4,2.5,3.2,4c3.3,6,4.6,12.8,4.9,19.6s-0.4,13.6-1.2,20.3"/>
		<path class="st10" d="M174.5-63.8L174.5-63.8v-30.4c0-1.6,1.3-2.9,2.9-2.9h36.8c1.6,0,2.9,1.3,2.9,2.9v30.5l0,0
			c0,2.3-3.8,4.2-6.2,4.2h-30.3C178.2-59.5,174.4-61.4,174.5-63.8z"/>
		<path class="st5" d="M171.2-95.9l0.1-0.7c0.2-2,2-3.3,3.9-3.1l45.3,5.5c2,0.2,3.3,2,3.1,3.9l-0.1,0.7c-0.2,2-2,3.3-3.9,3.1
			L174.3-92C172.4-92.3,171-94,171.2-95.9z"/>
		<path class="st5" d="M169.7-83.2l0.1-0.7c0.2-2,2-3.3,3.9-3.1l45.3,5.5c2,0.2,3.3,2,3.1,3.9l-0.1,0.7c-0.2,2-2,3.3-3.9,3.1
			l-45.3-5.5C170.8-79.5,169.5-81.3,169.7-83.2z"/>
		<path class="st5" d="M168.1-70.4l0.1-0.7c0.2-2,2-3.3,3.9-3.1l45.3,5.5c2,0.2,3.3,2,3.1,3.9l-0.1,0.7c-0.2,2-2,3.3-3.9,3.1
			l-45.3-5.5C169.3-66.8,167.9-68.5,168.1-70.4z"/>
		<g class="st7">
			<g>
				<g>
					<g>
						<line class="st11" x1="232.6" y1="-106.7" x2="243.8" y2="-97.1"/>
						<line class="st11" x1="232.6" y1="-106.7" x2="243.8" y2="-97.1"/>
						<path class="st12" d="M258.7-118.2c0,0-0.2,0.4-0.4,1.1c-0.2,0.7-0.5,1.7-1,2.8c-0.8,2.3-2.2,5.3-3.8,8.2
							c-1.6,2.9-3.4,5.6-4.9,7.6s-2.6,3.2-2.6,3.2l-17.1-14.6c0,0,0.7-0.8,1.7-2.1c0.9-1.3,2.2-3.1,3.2-5s1.9-3.9,2.5-5.4
							c0.3-0.7,0.5-1.4,0.7-1.8c0.1-0.4,0.2-0.7,0.2-0.7L258.7-118.2z"/>
					</g>
					<g>
						<line class="st11" x1="242.5" y1="-125.5" x2="256.7" y2="-121.7"/>
						<line class="st11" x1="242.5" y1="-125.5" x2="256.7" y2="-121.7"/>
						<path class="st12" d="M261.1-147c0,0,0.2,1.6,0.4,4.1c0.2,2.4,0.3,5.7,0.1,9c-0.2,3.3-0.7,6.6-1.2,9c-0.3,1.2-0.5,2.2-0.7,2.9
							c-0.2,0.7-0.3,1.1-0.3,1.1l-21.7-5.8c0,0,0.1-0.2,0.2-0.7c0.1-0.4,0.3-1.1,0.4-1.9c0.4-1.6,0.7-3.7,0.8-5.9s0.1-4.4-0.1-6
							c-0.1-1.6-0.2-2.7-0.2-2.7L261.1-147z"/>
					</g>
					<g>
						<line class="st11" x1="243.2" y1="-146.7" x2="257.7" y2="-149.5"/>
						<line class="st11" x1="243.2" y1="-146.7" x2="257.7" y2="-149.5"/>
						<path class="st12" d="M250.9-174.3c0,0,0.2,0.3,0.6,0.9c0.2,0.3,0.4,0.7,0.7,1.1c0.1,0.2,0.2,0.5,0.4,0.7
							c0.1,0.3,0.3,0.5,0.4,0.8c0.6,1.1,1.3,2.3,2,3.7c0.1,0.3,0.3,0.6,0.5,1c0.2,0.4,0.3,0.7,0.5,1.1c0.3,0.8,0.6,1.5,0.9,2.3
							s0.6,1.5,0.9,2.3c0.3,0.8,0.5,1.6,0.7,2.3c0.4,1.4,0.8,2.8,1.2,4c0.3,1.2,0.4,2.2,0.6,2.9c0.1,0.7,0.2,1.1,0.2,1.1l-22.1,4.1
							c0,0,0-0.2-0.1-0.7c-0.1-0.4-0.2-1.1-0.4-1.9c-0.2-0.7-0.5-1.6-0.8-2.6c-0.2-0.5-0.3-1-0.5-1.5s-0.4-1-0.6-1.5s-0.4-1-0.6-1.5
							c-0.1-0.2-0.2-0.5-0.3-0.7c-0.2-0.3-0.3-0.5-0.4-0.7c-0.5-0.8-0.9-1.7-1.3-2.4c-0.1-0.2-0.2-0.3-0.3-0.5
							c-0.1-0.1-0.2-0.3-0.3-0.4c-0.2-0.3-0.4-0.5-0.5-0.7c-0.2-0.4-0.4-0.6-0.4-0.6L250.9-174.3z"/>
					</g>
					<g>
						<line class="st11" x1="234.8" y1="-166.3" x2="246.7" y2="-175"/>
						<line class="st11" x1="234.8" y1="-166.3" x2="246.7" y2="-175"/>
						<path class="st12" d="M229.6-194.1c0,0,0.4,0.2,1,0.6s1.5,1,2.5,1.7c0.5,0.3,1,0.7,1.6,1.1c0.3,0.2,0.6,0.4,0.9,0.6
							s0.6,0.5,0.9,0.7c1.2,1,2.4,2,3.7,3.1c1.2,1.1,2.3,2.3,3.4,3.4c0.5,0.5,1,1.1,1.5,1.6s0.9,1,1.3,1.5c0.8,0.9,1.4,1.7,1.9,2.3
							c0.5,0.6,0.7,0.9,0.7,0.9l-18.1,13.3c0,0-0.2-0.2-0.5-0.6c-0.3-0.3-0.7-0.9-1.2-1.5c-0.2-0.3-0.5-0.6-0.8-1
							c-0.3-0.4-0.6-0.7-1-1.1c-0.8-0.8-1.5-1.6-2.3-2.3s-1.6-1.3-2.4-2c-0.2-0.2-0.4-0.4-0.6-0.5c-0.2-0.1-0.4-0.3-0.6-0.4
							c-0.4-0.2-0.8-0.5-1.1-0.7c-0.7-0.4-1.2-0.8-1.6-1.1c-0.5-0.3-0.7-0.4-0.7-0.4L229.6-194.1z"/>
					</g>
					<g>
						<line class="st11" x1="218.7" y1="-180.2" x2="225.7" y2="-193.1"/>
						<line class="st11" x1="218.7" y1="-180.2" x2="225.7" y2="-193.1"/>
						<path class="st12" d="M201.7-203.1c0,0,1.6,0.2,4.1,0.5c1.2,0.1,2.6,0.5,4.1,0.8c0.7,0.2,1.5,0.3,2.3,0.5s1.6,0.5,2.4,0.7
							c1.6,0.5,3.2,1,4.6,1.5c1.4,0.6,2.8,1.2,3.9,1.7c0.5,0.3,1,0.5,1.5,0.7c0.4,0.2,0.8,0.4,1.1,0.6c0.6,0.3,1,0.5,1,0.5
							l-10.6,19.8c0,0-0.2-0.2-0.6-0.4c-0.2-0.1-0.4-0.2-0.7-0.4c-0.3-0.1-0.6-0.2-1-0.4c-0.7-0.3-1.6-0.7-2.5-1.1s-2-0.7-3-1
							c-0.5-0.2-1-0.4-1.5-0.5s-1-0.2-1.5-0.3c-1-0.2-1.9-0.5-2.7-0.6c-1.6-0.2-2.7-0.3-2.7-0.3L201.7-203.1z"/>
					</g>
					<g>
						<line class="st11" x1="198.2" y1="-185.8" x2="198.9" y2="-200.5"/>
						<line class="st11" x1="198.2" y1="-185.8" x2="198.9" y2="-200.5"/>
						<path class="st12" d="M173.2-199.4c0,0,0.1,0,0.3-0.1s0.5-0.2,0.8-0.3c0.7-0.2,1.7-0.5,2.9-0.9c0.6-0.2,1.2-0.4,1.9-0.6
							s1.4-0.4,2.2-0.5c1.5-0.3,3.1-0.6,4.7-0.9c0.8-0.2,1.6-0.2,2.4-0.3c0.8-0.1,1.6-0.1,2.4-0.2c0.8-0.1,1.5-0.1,2.2-0.2
							c0.7,0,1.4,0,2,0c2.5,0,4.1,0,4.1,0l-1,22.4c0,0-1.1,0-2.7,0c-0.4,0-0.8-0.1-1.3,0c-0.5,0-1,0-1.5,0.1c-0.5,0-1.1,0.1-1.6,0.1
							c-0.5,0.1-1.1,0.1-1.6,0.2c-1,0.2-2.1,0.4-3.1,0.6c-0.5,0.1-1,0.3-1.4,0.4c-0.5,0.2-0.9,0.3-1.3,0.4c-0.8,0.3-1.4,0.5-1.9,0.6
							c-0.2,0.1-0.4,0.2-0.5,0.2c-0.1,0.1-0.2,0.1-0.2,0.1L173.2-199.4z"/>
					</g>
					<g>
						<line class="st11" x1="177.3" y1="-182.1" x2="171.6" y2="-195.6"/>
						<line class="st11" x1="177.3" y1="-182.1" x2="171.6" y2="-195.6"/>
						<path class="st12" d="M148.8-183.4c0,0,1.1-1.2,2.9-2.9c0.9-0.8,2-1.7,3.2-2.7c0.6-0.5,1.3-1,1.9-1.5s1.3-0.9,2-1.4
							c1.4-0.9,2.8-1.8,4.1-2.6c1.3-0.7,2.6-1.4,3.7-2c0.5-0.3,1-0.6,1.5-0.8s0.9-0.4,1.2-0.5c0.6-0.2,1-0.4,1-0.4l8.8,20.7
							c0,0-0.3,0.1-0.7,0.3c-0.2,0.1-0.5,0.2-0.8,0.3s-0.6,0.3-1,0.5c-0.7,0.4-1.5,0.8-2.4,1.3s-1.8,1.1-2.7,1.7
							c-0.4,0.3-0.9,0.6-1.3,0.9s-0.8,0.7-1.2,1c-0.7,0.7-1.5,1.2-2.1,1.8c-1.1,1.1-1.9,1.9-1.9,1.9L148.8-183.4z"/>
					</g>
					<g>
						<line class="st11" x1="160" y1="-169.6" x2="149" y2="-179.4"/>
						<line class="st11" x1="160" y1="-169.6" x2="149" y2="-179.4"/>
						<path class="st12" d="M133.8-158.5c0,0,0.1-0.4,0.3-1.1c0.1-0.3,0.2-0.7,0.4-1.2s0.5-1,0.7-1.6c0.5-1.2,1.1-2.5,1.7-3.9
							c0.7-1.4,1.5-2.9,2.3-4.3c0.4-0.7,0.7-1.4,1.2-2.1c0.4-0.7,0.9-1.4,1.3-2c0.5-0.6,0.9-1.2,1.3-1.8s0.8-1.1,1.2-1.6
							c1.5-1.9,2.6-3.2,2.6-3.2l16.8,14.9c0,0-0.7,0.9-1.7,2.1c-0.3,0.3-0.5,0.7-0.8,1.1c-0.2,0.4-0.5,0.8-0.8,1.2s-0.6,0.9-0.9,1.3
							s-0.5,0.9-0.8,1.4c-0.5,1-1.1,1.9-1.5,2.8s-0.8,1.8-1.1,2.5c-0.1,0.4-0.3,0.7-0.4,1s-0.2,0.6-0.3,0.8
							c-0.1,0.4-0.2,0.7-0.2,0.7L133.8-158.5z"/>
					</g>
					<g>
						<line class="st11" x1="149.8" y1="-151" x2="135.7" y2="-155"/>
						<line class="st11" x1="149.8" y1="-151" x2="135.7" y2="-155"/>
						<path class="st12" d="M131.4-129c0,0-0.1-0.1-0.1-0.3s0-0.5-0.1-0.9c0-0.4-0.1-0.9-0.2-1.4c-0.1-0.6-0.1-1.2-0.2-1.9
							c-0.2-1.6-0.1-2.9-0.1-4.5c0-0.8,0-1.6,0-2.4c0-0.8,0-1.6,0.1-2.4c0.1-1.6,0.3-3.3,0.5-4.8c0.1-0.8,0.3-1.5,0.4-2.2
							s0.3-1.4,0.4-2c0.2-1.2,0.4-2.2,0.6-2.9c0.2-0.7,0.3-1.1,0.3-1.1l21.6,6.1c0,0-0.1,0.3-0.2,0.7s-0.2,1.1-0.4,1.9
							c-0.1,0.4-0.2,0.8-0.3,1.3c-0.1,0.4-0.3,0.9-0.3,1.4c-0.1,1-0.2,2.1-0.3,3.2c-0.1,0.5-0.1,1.1-0.1,1.6c0,0.6,0,1.1,0,1.6
							c0,1-0.1,2.1,0,2.5c0,0.3,0.1,0.6,0.1,0.9c0,0.2,0.1,0.5,0.1,0.7s0.1,0.4,0.1,0.5c0,0.1,0,0.2,0,0.2L131.4-129z"/>
					</g>
					<g>
						<line class="st11" x1="148.9" y1="-130.2" x2="134.6" y2="-126.8"/>
						<line class="st11" x1="148.9" y1="-130.2" x2="134.6" y2="-126.8"/>
						<path class="st12" d="M140.3-103.2c0,0-0.6-1.4-1.6-3.4c-0.9-2-2.1-4.8-3.2-7.6s-2.1-5.7-2.7-8s-1-3.9-1-3.9l21.9-5.1
							c0,0,0.2,1,0.7,2.7c0.5,1.6,1.2,3.9,2.1,6.2c0.8,2.3,1.8,4.5,2.6,6.2c0.7,1.6,1.3,2.7,1.3,2.7L140.3-103.2z"/>
					</g>
					<g>
						<line class="st11" x1="157.1" y1="-109.2" x2="144.2" y2="-102.2"/>
						<line class="st11" x1="157.1" y1="-109.2" x2="144.2" y2="-102.2"/>
						<path class="st12" d="M159.8-79.6c0,0-0.6-0.3-1.5-0.9c-0.9-0.5-2-1.4-3.2-2.4c-2.4-2.1-4.7-4.7-6.7-7.4
							c-2-2.6-3.6-5.3-4.8-7.3s-1.9-3.3-1.9-3.3l19.8-10.6c0,0,0.6,1.1,1.5,2.6s2.1,3.5,3.4,5.2c1.2,1.7,2.6,3.2,3.3,3.8
							c0.4,0.3,0.6,0.4,0.7,0.5s0.1,0.1,0.1,0.1L159.8-79.6z"/>
					</g>
				</g>
			</g>
		</g>
	</g>
	<g>
		<path class="st13" d="M120.9,463.9v-0.2h152v0.2c0,41.6-33.8,75.8-75.4,75.8h-1.3C154.6,539.7,120.9,505.5,120.9,463.9z"/>
		<path class="st14" d="M140.5,264.2l-102.9,91c-7.6,6.7-8.3,18.4-1.6,26l0,0c6.7,7.6,18.4,8.3,26,1.6l102.9-91
			c7.6-6.7,8.3-18.4,1.6-26l0,0C159.7,258.2,148.1,257.5,140.5,264.2z"/>
		<path class="st14" d="M375.1,272.7L238.5,258c-10.1-1.1-19.2,6.3-20.3,16.4l0,0c-1.1,10.1,6.3,19.2,16.4,20.3l136.6,14.7
			c10.1,1.1,19.2-6.3,20.3-16.4l0,0C392.6,282.8,385.2,273.7,375.1,272.7z"/>
		<path class="st14" d="M383.3,307.6l122.1-62.9c9-4.7,12.5-15.7,7.9-24.9l0,0c-4.7-9-15.7-12.5-24.9-7.9l-122.1,62.9
			c-9,4.7-12.5,15.7-7.9,24.9l0,0C363.1,308.8,374.2,312.3,383.3,307.6z"/>
		<path class="st14" d="M140.2,434.9l-80.3-75.1c-7.5-6.9-19.1-6.5-26.1,0.9l0,0c-6.9,7.5-6.5,19.1,0.9,26.1l80.2,75.1
			c7.5,6.9,19.1,6.5,26.1-0.9l0,0C148,453.6,147.6,441.9,140.2,434.9z"/>
		<path class="st15" d="M221.3,805.7h19.2l2.1,27.3c0,0,16.8-11.4,36.6-7.8c19.9,3.5,22.9,21.9,22.9,21.9l-80.8-0.4V805.7
			L221.3,805.7z"/>
		<rect x="210.9" y="463.7" class="st13" width="41" height="342"/>
		<path class="st15" d="M154,805.7l-2.1,27.3c0,0-16.8-11.4-36.6-7.8c-19.9,3.5-22.9,21.9-22.9,21.9l80.8-0.4v-41H154z"/>
		<rect x="142.9" y="463.7" class="st13" width="41" height="342"/>
		<path class="st14" d="M272.8,303.3v160.4h-152V303.3c0-26.1,21.2-47.2,47.2-47.2h57.7C251.8,256.1,272.9,277.2,272.8,303.3z"/>
		<g>
			<path class="st16" d="M487,209.9l-2.3-15.6c-0.5-3.5,1.8-6.7,5.3-7.4l0,0c3.5-0.5,6.7,1.8,7.4,5.3l2.3,15.6
				c0.5,3.5-1.8,6.7-5.3,7.4l0,0C490.9,215.8,487.5,213.4,487,209.9z"/>
			<path class="st16" d="M507.4,239.4l-19.8-27.7c-2.8-3.9-1.9-9.3,2-12l8.4-6c3.6-2.6,8.7-1.7,11.2,1.9l20.4,28.6
				c2.6,3.6,1.7,8.7-1.9,11.2l-8.4,6C515.5,244.1,510.1,243.2,507.4,239.4z"/>
			<path class="st16" d="M494,196.4l25.6-18.1c2.8-2,6.9-1.4,8.9,1.5l0,0c2,2.8,1.4,6.9-1.5,8.9l-25.6,18.1c-2.8,2-6.9,1.4-8.9-1.5
				l0,0C490.5,202.5,491.1,198.4,494,196.4z"/>
			<path class="st16" d="M506.1,203.5l23.9-17.1c2.8-2,6.9-1.4,8.9,1.5l0,0c2,2.8,1.4,6.9-1.5,8.9l-23.9,17.1
				c-2.8,2-6.9,1.4-8.9-1.5l0,0C502.7,209.6,503.3,205.5,506.1,203.5z"/>
			<path class="st16" d="M511,215.8l23.9-17.1c2.8-2,6.9-1.4,8.9,1.5l0,0c2,2.8,1.4,6.9-1.5,8.9l-23.9,17.1c-2.8,2-6.9,1.4-8.9-1.5
				l0,0C507.4,221.8,508.1,217.8,511,215.8z"/>
			<path class="st16" d="M514.6,228.9l23.9-17.1c2.8-2,6.9-1.4,8.9,1.5l0,0c2,2.8,1.4,6.9-1.5,8.9l-23.9,17.1
				c-2.8,2-6.9,1.4-8.9-1.5l0,0C511.1,234.9,511.8,230.9,514.6,228.9z"/>
		</g>
		<g>
			<path class="st16" d="M144.1,492.9c1.6,2.7,0.6,6.2-2.1,7.7l0,0c-2.7,1.6-6.2,0.6-7.7-2.1l-17.5-30.9l9.9-5.6L144.1,492.9z"/>
			<path class="st16" d="M159.4,492.8c1.6,2.7,0.8,6.2-1.9,7.8l0,0c-2.7,1.6-6.2,0.8-7.8-1.9l-22.4-36.6l9.7-5.9L159.4,492.8z"/>
			<path class="st16" d="M174.2,488.3c1.9,2.5,1.5,6.1-1,8l0,0c-2.5,1.9-6.1,1.5-8-1l-26.2-34l9-6.9L174.2,488.3z"/>
			<path class="st16" d="M182.9,473.8c2.4,2.1,2.6,5.7,0.5,8l0,0c-2.1,2.4-5.7,2.6-8,0.5l-32.1-28.5l7.6-8.5L182.9,473.8z"/>
			<path class="st16" d="M172.7,444.6c3,0.9,4.8,4,4,7l0,0c-0.9,3-4,4.8-7,4l-25-6.7l2.9-11L172.7,444.6z"/>
			<path class="st16" d="M137.8,439.5l-18.2,14.1c-4.9,3.8-5.8,11-2,15.9l5.5,7.2c1,1.3,2.9,1.5,4.2,0.5l31.4-24.2
				c1.3-1,1.5-2.9,0.5-4.2l-5.5-7.1C149.9,436.7,142.7,435.8,137.8,439.5z"/>
		</g>
		<path class="st16" d="M167,238.6h49v21.5c0,13.4-11.1,24.5-24.5,24.5h-0.2l0,0c-13.4,0-24.3-11.1-24.3-24.5V238.6z"/>
		<path class="st17" d="M216,242.2h-49v15.5c6.7,2,13.5,3.1,20.1,3.1c9.5,0,19.4-2.2,28.9-6.3V242.2z"/>
		<g>
			<path class="st18" d="M76.2,149.3c-2.4,3.7-3.8,8.1-3.8,12.8c0,12.9,10.5,23.4,23.4,23.4c0.6,0,1.2-0.1,1.8-0.1
				c-0.6,1.9-0.9,3.9-0.9,5.9c0,11.5,9.3,20.7,20.7,20.7c8.4,0,15.6-5,18.8-12.2c15.2,10.8,33.9,17.1,54,17.1
				c19.9,0,38.3-6.2,53.4-16.7c3.3,6.2,9.9,10.5,17.5,10.5c11,0,19.9-8.9,19.9-19.9c0-2.6-0.5-5.1-1.4-7.4
				c9.9-0.9,17.6-9.2,17.6-19.3c0-4.4-1.5-8.4-3.9-11.6c8.3-3.4,14.1-11.5,14.1-21c0-8.7-4.8-16.2-11.9-20
				c9.1-5.4,15.3-15.3,15.3-26.7c0-17-13.7-30.7-30.6-30.9c0.5-2,0.7-4.1,0.7-6.3c0-16.1-13-29.1-29.1-29.1c-5.4,0-10.5,1.4-14.8,4
				c-3.4-12.1-14.6-21-27.9-21c-8.7,0-16.6,3.8-21.9,9.9C182.7,4.5,175,0,166.2,0c-13.8,0-25,11.2-25,25c0,0.1,0,0.1,0,0.2
				c-4.9-4.8-11.5-7.7-18.9-7.7c-14.9,0-27,12.1-27,27c0,3.6,0.7,7,2,10.1C81.7,56,69.5,69.1,69.5,85c0,9,3.9,17,10,22.6
				c-8.9,3.1-15.2,11.6-15.2,21.5C64.3,137.7,69.1,145.2,76.2,149.3z"/>
			<path class="st16" d="M110.1,174.9v-66.2c0-34.5,28-62.4,62.4-62.4h29.4c34.5,0,62.4,28,62.4,62.4v66.2
				c0,42.7-41.9,73.2-76.8,73.2S110.3,217.6,110.1,174.9z"/>
			<rect x="246.2" y="103.4" class="st18" width="36.3" height="39"/>
			<circle class="st16" cx="264.7" cy="140.2" r="21.9"/>
			<path class="st19" d="M268,147.2c2.7-1.2,4.5-3.9,4.5-7c0-4.3-3.5-7.8-7.8-7.8c-2.9,0-5.3,1.5-6.7,3.8c1-0.4,2.1-0.7,3.3-0.7
				c4.3,0,7.8,3.5,7.8,7.8C269.1,144.7,268.7,146.1,268,147.2z"/>
			<ellipse class="st20" cx="212.4" cy="142.8" rx="5" ry="8.8"/>
			<ellipse class="st20" cx="148.9" cy="142.8" rx="5" ry="8.8"/>
			<path class="st19" d="M183.1,151.2l-10.9,13c-1.7,1.9-0.3,4.9,2.3,4.9h9.4c0.7,0,1.6-0.6,1.6-1.3v-15.9
				C185.5,150.7,183.8,150.2,183.1,151.2z"/>
			<circle class="st16" cx="108.6" cy="140.2" r="21.9"/>
			<path class="st19" d="M102.4,147.2c-2.7-1.2-4.5-3.9-4.5-7c0-4.3,3.5-7.8,7.8-7.8c2.9,0,5.3,1.5,6.7,3.8c-1-0.4-2.1-0.7-3.3-0.7
				c-4.3,0-7.8,3.5-7.8,7.8C101.3,144.7,101.7,146.1,102.4,147.2z"/>
			<path class="st18" d="M107.7,99.9c6.5,10.1,21.7,12.1,33.9,4.4c6.6-4.2,11-10.4,12.6-16.8c4.4,5.6,11.7,9.2,19.8,9.2
				c10.9,0,20.2-6.5,23.4-15.5c2.5,8,9.9,13.7,18.6,13.7c3.4,0,6.6-0.9,9.4-2.4l1.9,1c-1.7,7.5,2.1,15.9,9.9,20.4
				c8.2,4.7,17.9,3.5,23.4-2.5l3.4-6.5c1-2.8,1-5.6,0-8.4V73.2c0-16.8-13.6-30.4-30.4-30.4h-97.1c-16.8,0-30.4,13.6-30.4,30.4v8.5
				C104.1,87.9,104.3,94.5,107.7,99.9z"/>
		</g>
		<path class="st19" d="M155.8,180.9c0,13.6,11.1,24.7,24.7,24.7l0,0c13.6,0,24.7-11.1,24.7-24.7"/>
	</g>
</g>
</svg>
