<?xml version="1.0" encoding="utf-8"?>
<!-- Generator: Adobe Illustrator 24.2.1, SVG Export Plug-In . SVG Version: 6.00 Build 0)  -->
<svg version="1.1" id="svg2948" xmlns:svg="http://www.w3.org/2000/svg"
	 xmlns="http://www.w3.org/2000/svg" xmlns:xlink="http://www.w3.org/1999/xlink" x="0px" y="0px" viewBox="0 0 260 90"
	 style="enable-background:new 0 0 260 90;" xml:space="preserve">
<style type="text/css">
	.st0{fill-rule:evenodd;clip-rule:evenodd;fill:#383A42;}
</style>
<g id="layer1" transform="translate(121.06306,-355.93976)">
	<path id="path2838" class="st0" d="M-101.48,400c-0.04,8.2,5.97,13.08,15.56,10.86v-21.73C-95.63,386.18-101.44,392.17-101.48,400
		 M-85.62,357.73h13.21v62.53c-12.66,2.07-24.79,3.38-33.47-1.47c-11.17-6.25-12.07-26.1-3.23-34.94
		c4.48-4.48,13.51-7.64,23.19-5.58v-19.67C-85.94,358.19-85.96,357.78-85.62,357.73"/>
	<path id="path2840" class="st0" d="M-50.98,371.53h-13.21v-13.8h13.21C-50.98,357.73-50.98,371.53-50.98,371.53z"/>
	<path id="path2844" class="st0" d="M107.56,411.45c14.4,5.6,16-25.78,1.47-22.9C100,390.34,100.29,408.63,107.56,411.45
		 M108.14,377.69c11-1.18,19.3,3.68,22.61,11.16c5.65,12.76-0.31,27.4-9.39,31.71c-4.71,2.23-9.64,2.44-14.09,2.05
		c-13.77-1.2-22.45-15.23-17.61-30.83c0.76-2.44,1.61-3.93,2.06-4.7C94.7,382,99.75,378.59,108.14,377.69"/>
	<path id="path2848" class="st0" d="M-32.78,406.46c-3.65,6.14,5.53,7.61,11.45,5.87v-9.1C-25.88,403.87-31.06,403.57-32.78,406.46
		 M-9.58,420.85c-10.91,0.63-27.5,4.35-33.47-2.94c-3.51-4.28-3.13-12.44,0-16.44c4.05-5.17,12.88-6.3,20.84-7.05
		c0.72-1.78,0.24-4.68-0.59-5.87c-7.29-1.86-14.53,1.02-19.67,3.23v-10.27c7.76-3.57,25.74-7.32,31.12,0.88
		c2.82,4.31,1.76,11.82,1.76,18.5C-9.58,400.89-9.58,420.85-9.58,420.85z"/>
	<path id="path2852" class="st0" d="M36.8,421.44H23.59v-17.03c0-5.61,0.91-12.72-2.06-14.97c-2.32-1.77-7.82-0.88-11.16,0v32H-2.83
		v-40.81c13.51-3.51,37.88-7.27,39.63,9.69C37.67,398.68,36.16,411.22,36.8,421.44"/>
	<path id="path2856" class="st0" d="M56.47,407.34c2.22,3.6,8.24,4.95,13.21,2.64c-0.27-6.87-0.37-13.92-0.29-21.14
		C57.97,385.83,51.17,398.76,56.47,407.34 M89.65,379.45c-1.18,3.52-2.9,6.5-4.4,9.69c-1.36,0.3-2.54-0.54-3.23,0
		c-0.3,14.31,3.05,33.71-2.64,44.04c-3.43,6.22-9.73,10.21-19.38,10.86c-7.02,0.48-12.48-0.67-17.61-2.64v-12.33
		c6.03,3.52,21.25,6.39,25.54-0.88c1.26-2.14,1.18-4.35,1.76-7.63c-2.76,0.14-5.44,1.42-8.81,1.47
		c-13.85,0.18-22.41-10.84-19.08-26.13c1.29-5.91,4.75-10.68,9.4-13.5C60.83,376.51,75.65,376.96,89.65,379.45"/>
	<path id="path2860" class="st0" d="M-50.98,378.51c-0.01,9.73-0.01,16.72-0.01,28.54c-0.56,11.61-0.43,20.86-4.68,26.42
		c-0.84,1.1-2.62,2.69-4.11,3.82c-1.25,0.94-3.64,2.85-4.99,2.94c-1.36,0.08-4.87-1.89-6.46-2.64c-2.08-0.98-4.01-2.29-6.17-2.94
		c5.03-3.11,9.8-5.45,11.74-11.74c1.69-5.47,1.47-13.41,1.47-21.14c0-7.63,0.03-16.51,0.03-23.25L-50.98,378.51L-50.98,378.51z"/>
</g>
</svg>
