<?xml version="1.0" encoding="utf-8"?>
<!-- Generator: Adobe Illustrator 25.0.0, SVG Export Plug-In . SVG Version: 6.00 Build 0)  -->
<svg version="1.1" id="Layer_1" xmlns="http://www.w3.org/2000/svg" xmlns:xlink="http://www.w3.org/1999/xlink" x="0px" y="0px"
	 viewBox="0 0 1600 250" style="enable-background:new 0 0 1600 250;" xml:space="preserve">
<style type="text/css">
	.st0{fill:#FCFCFC;}
</style>
<g>
	<path class="st0" d="M1600,250H0V-0.1L516.5,0c0,0,45.3-1.2,62.7,22.9c23.4,32.5,38.8,26.7,47.8,26.7c9.1,0,25.7-1.6,39.3,33.2
		s28.7,29.7,44.8,32.9s25.7,13.9,28.2,34.6c2.5,20.6,21.7,25.2,27.7,27.7c6.1,2.6,8.6,14.1,7.5,20.1c-1,6.1-7.5,19.2,6.1,28.2
		c13.6,9.1,23,12.6,15,22.2c0,0,13.2-2,9.6-22.7c-3.5-20.6,1-18.7,10.1-25.7s9.1-8.6,12.1-21.1c3-12.6,20.1-20.6,27.2-23.2
		c7.1-2.6,16.6-15.1,20.1-26.2c3.5-11.1,13.1-19.2,34.2-22.2c21.1-3,38.6-22.2,44.7-35.8s16.7-21.7,35.4-27.2
		c18.7-5.6,22.7-4,40.8-25.2C1048.2-1.7,1083.5,0,1083.5,0L1600-0.1V250z"/>
</g>
</svg>
