<?xml version="1.0" encoding="utf-8"?>
<!-- Generator: Adobe Illustrator 24.2.1, SVG Export Plug-In . SVG Version: 6.00 Build 0)  -->
<svg version="1.1" id="Layer_1" xmlns="http://www.w3.org/2000/svg" xmlns:xlink="http://www.w3.org/1999/xlink" x="0px" y="0px"
	 viewBox="0 0 556 557.14" style="enable-background:new 0 0 556 557.14;" xml:space="preserve">
<style type="text/css">
	.st0{display:none;}
	.st1{display:inline;}
	.st2{fill:url(#SVGID_1_);}
</style>
<g id="Capa_1" class="st0">
	<g class="st1">
		<path d="M64.7,341.54c4.9,16.8,11.7,33,20.3,48.2l-24.5,30.9c-8,10.1-7.1,24.5,1.9,33.6l42.2,42.2c9.1,9.1,23.5,9.9,33.6,1.9
			l30.7-24.3c15.8,9.1,32.6,16.2,50.1,21.2l4.6,39.5c1.5,12.8,12.3,22.4,25.1,22.4h59.7c12.8,0,23.6-9.6,25.1-22.4l4.4-38.1
			c18.8-4.9,36.8-12.2,53.7-21.7l29.7,23.5c10.1,8,24.5,7.1,33.6-1.9l42.2-42.2c9.1-9.1,9.9-23.5,1.9-33.6l-23.1-29.3
			c9.6-16.6,17.1-34.3,22.1-52.8l35.6-4.1c12.8-1.5,22.4-12.3,22.4-25.1v-59.7c0-12.8-9.6-23.6-22.4-25.1l-35.1-4.1
			c-4.8-18.3-12-35.8-21.2-52.2l21.6-27.3c8-10.1,7.1-24.5-1.9-33.6l-42.1-42.1c-9.1-9.1-23.5-9.9-33.6-1.9l-26.5,21
			c-17.2-10.1-35.6-17.8-54.9-23l-4-34.3c-1.5-12.8-12.3-22.4-25.1-22.4h-59.7c-12.8,0-23.6,9.6-25.1,22.4l-4,34.3
			c-19.8,5.3-38.7,13.3-56.3,23.8l-27.5-21.8c-10.1-8-24.5-7.1-33.6,1.9l-42.2,42.2c-9.1,9.1-9.9,23.5-1.9,33.6l23,29.1
			c-9.2,16.6-16.2,34.3-20.8,52.7l-36.8,4.2c-12.8,1.5-22.4,12.3-22.4,25.1v59.7c0,12.8,9.6,23.6,22.4,25.1L64.7,341.54z
			 M281,180.04c54.4,0,98.7,44.3,98.7,98.7s-44.3,98.7-98.7,98.7s-98.7-44.3-98.7-98.7S226.6,180.04,281,180.04z"/>
	</g>
</g>
<path d="M359.45,278c0-44.91-36.54-81.45-81.45-81.45s-81.45,36.54-81.45,81.45s36.54,81.45,81.45,81.45S359.45,322.91,359.45,278z
	 M212.84,278c0-35.93,29.23-65.16,65.16-65.16s65.16,29.23,65.16,65.16s-29.23,65.16-65.16,65.16S212.84,313.93,212.84,278z"/>
<path d="M392.02,278c0-62.87-51.15-114.02-114.02-114.02S163.98,215.13,163.98,278S215.13,392.02,278,392.02
	S392.02,340.87,392.02,278z M180.27,278c0-53.89,43.84-97.73,97.73-97.73s97.73,43.84,97.73,97.73s-43.84,97.73-97.73,97.73
	S180.27,331.89,180.27,278z"/>
<radialGradient id="SVGID_1_" cx="278" cy="278" r="278" fx="153.2307" fy="39.2867" gradientUnits="userSpaceOnUse">
	<stop  offset="0.2646" style="stop-color:#ED2F8B"/>
	<stop  offset="1" style="stop-color:#FFCF7B"/>
</radialGradient>
<path class="st2" d="M549.19,221.1l-52.77-8.79c-4.4-14.64-10.28-28.82-17.53-42.29l31.1-43.54c2.32-3.24,1.95-7.68-0.87-10.49
	l-69.11-69.11c-2.82-2.82-7.25-3.18-10.49-0.87l-43.54,31.1c-13.47-7.25-27.65-13.13-42.29-17.53l-8.8-52.77
	C334.25,2.88,330.85,0,326.87,0h-97.73c-3.98,0-7.38,2.88-8.03,6.81l-8.79,52.77c-14.64,4.4-28.82,10.28-42.29,17.53L126.47,46
	c-3.24-2.31-7.68-1.95-10.49,0.87l-69.11,69.11c-2.82,2.81-3.18,7.25-0.87,10.49l31.1,43.54c-7.25,13.47-13.13,27.65-17.53,42.29
	L6.81,221.1C2.88,221.75,0,225.15,0,229.13v97.73c0,3.98,2.88,7.38,6.81,8.03l52.77,8.8c4.4,14.64,10.28,28.82,17.53,42.29
	L46,429.53c-2.31,3.24-1.95,7.68,0.87,10.49l69.11,69.11c2.82,2.81,7.25,3.18,10.49,0.87l43.54-31.1
	c13.47,7.25,27.65,13.13,42.29,17.53l8.79,52.77c0.65,3.93,4.05,6.81,8.03,6.81h97.73c3.98,0,7.38-2.88,8.03-6.81l8.8-52.77
	c14.58-4.38,28.75-10.27,42.26-17.55L429.53,510c3.24,2.31,7.68,1.95,10.49-0.87l69.11-69.11c2.81-2.81,3.18-7.25,0.87-10.49
	l-31.12-43.57c7.28-13.51,13.16-27.68,17.55-42.26l52.77-8.79c3.93-0.65,6.8-4.05,6.8-8.03v-97.73
	C556,225.15,553.12,221.75,549.19,221.1L549.19,221.1z M539.71,319.97l-51.03,8.51c-3.13,0.52-5.67,2.81-6.51,5.87
	c-4.6,16.71-11.33,32.91-19.98,48.14c-1.57,2.76-1.39,6.18,0.45,8.76l30.1,42.14l-59.35,59.35l-42.14-30.1
	c-2.58-1.84-6-2.02-8.76-0.45c-15.23,8.66-31.43,15.38-48.14,19.98c-3.06,0.84-5.35,3.38-5.87,6.51l-8.51,51.03h-83.94l-8.51-51.03
	c-0.52-3.13-2.81-5.67-5.87-6.51c-16.8-4.62-33-11.34-48.17-19.96c-2.76-1.57-6.18-1.39-8.76,0.45l-42.11,30.08l-59.35-59.35
	l30.08-42.11c1.85-2.58,2.02-6,0.45-8.76c-8.62-15.16-15.34-31.37-19.96-48.17c-0.84-3.06-3.38-5.35-6.51-5.87l-51.03-8.51v-83.94
	l51.03-8.51c3.13-0.52,5.67-2.81,6.51-5.87c4.63-16.8,11.34-33,19.96-48.17c1.57-2.76,1.39-6.18-0.45-8.76l-30.08-42.11l59.35-59.35
	l42.11,30.08c2.58,1.85,6,2.02,8.76,0.45c15.16-8.62,31.37-15.34,48.17-19.96c3.06-0.84,5.35-3.38,5.87-6.51l8.51-51.03h83.94
	l8.51,51.03c0.52,3.13,2.81,5.67,5.87,6.51c16.8,4.63,33.01,11.34,48.17,19.96c2.76,1.57,6.18,1.39,8.76-0.45l42.11-30.08
	l59.35,59.35l-30.08,42.11c-1.85,2.58-2.02,6-0.45,8.76c8.62,15.16,15.34,31.37,19.96,48.17c0.84,3.06,3.38,5.35,6.51,5.87
	l51.03,8.51V319.97z"/>
<path d="M278,82.53c-45.17,0-89.23,15.78-124.07,44.42c-3.47,2.86-3.97,7.99-1.12,11.46c2.86,3.47,7.99,3.97,11.46,1.12
	c31.93-26.25,72.31-40.71,113.72-40.71c98.8,0,179.18,80.38,179.18,179.18S376.8,457.18,278,457.18S98.82,376.8,98.82,278
	c0-42.8,15.34-84.23,43.19-116.66c2.93-3.41,2.54-8.55-0.87-11.48c-3.41-2.93-8.55-2.54-11.48,0.87
	C99.26,186.12,82.53,231.31,82.53,278c0,107.78,87.69,195.47,195.47,195.47S473.47,385.78,473.47,278S385.78,82.53,278,82.53z"/>
</svg>
