<?xml version="1.0" encoding="utf-8"?>
<!-- Generator: Adobe Illustrator 24.2.1, SVG Export Plug-In . SVG Version: 6.00 Build 0)  -->
<svg version="1.1" id="Layer_1" xmlns="http://www.w3.org/2000/svg" xmlns:xlink="http://www.w3.org/1999/xlink" x="0px" y="0px"
	 viewBox="0 0 1024 1024" style="enable-background:new 0 0 1024 1024;" xml:space="preserve">
<style type="text/css">
	.st0{fill-rule:evenodd;clip-rule:evenodd;fill:#383A42;}
</style>
<path class="st0" d="M512,0C229.12,0,0,229.12,0,512c0,226.56,146.56,417.92,350.08,485.76c25.6,4.48,35.2-10.88,35.2-24.32
	c0-12.16-0.64-52.48-0.64-95.36C256,901.76,222.72,846.72,212.48,817.92c-5.76-14.72-30.72-60.16-52.48-72.32
	c-17.92-9.6-43.52-33.28-0.64-33.92c40.32-0.64,69.12,37.12,78.72,52.48c46.08,77.44,119.68,55.68,149.12,42.24
	c4.48-33.28,17.92-55.68,32.64-68.48c-113.92-12.8-232.96-56.96-232.96-252.8c0-55.68,19.84-101.76,52.48-137.6
	c-5.12-12.8-23.04-65.28,5.12-135.68c0,0,42.88-13.44,140.8,52.48c40.96-11.52,84.48-17.28,128-17.28c43.52,0,87.04,5.76,128,17.28
	c97.92-66.56,140.8-52.48,140.8-52.48c28.16,70.4,10.24,122.88,5.12,135.68c32.64,35.84,52.48,81.28,52.48,137.6
	c0,196.48-119.68,240-233.6,252.8c18.56,16,34.56,46.72,34.56,94.72c0,68.48-0.64,123.52-0.64,140.8c0,13.44,9.6,29.44,35.2,24.32
	C877.44,929.92,1024,737.92,1024,512C1024,229.12,794.88,0,512,0z"/>
</svg>
