<?xml version="1.0" encoding="utf-8"?>
<!-- Generator: Adobe Illustrator 24.2.1, SVG Export Plug-In . SVG Version: 6.00 Build 0)  -->
<svg version="1.1" xmlns="http://www.w3.org/2000/svg" xmlns:xlink="http://www.w3.org/1999/xlink" x="0px" y="0px"
	 viewBox="0 0 280 60" style="enable-background:new 0 0 280 60;" xml:space="preserve">
<style type="text/css">
	.st0{display:none;}
	.st1{display:inline;}
	.st2{fill:#BA7C00;}
	.st3{display:inline;fill:#BA7C00;}
	.st4{fill:#002B6D;}
	.st5{display:inline;fill:#002B6D;}
	.st6{fill:#D9AC59;}
	.st7{fill:#4B4A59;}
</style>
<g id="Layer_2" class="st0">
	<g class="st1">
		<polygon class="st2" points="278.16,45.74 269.71,45.74 269.71,54.19 278.16,54.19 278.16,45.74 		"/>
	</g>
	<polygon class="st3" points="254.89,54.19 222.79,12.49 229.49,7.34 260.37,47.5 	"/>
	<g class="st1">
		<polygon class="st4" points="263.33,54.19 254.89,54.19 254.89,16.29 263.33,5.3 		"/>
	</g>
	<g class="st1">
		<rect x="221.04" y="7.34" class="st4" width="8.45" height="46.89"/>
	</g>
	<path class="st5" d="M194.59,15.72c8.27,0,15,6.73,15,15c0,8.27-6.73,15-15,15c-8.27,0-15-6.73-15-15
		C179.59,22.45,186.32,15.72,194.59,15.72 M194.59,7.28c-12.95,0-23.44,10.5-23.44,23.44s10.5,23.44,23.44,23.44
		c12.95,0,23.44-10.5,23.44-23.44S207.53,7.28,194.59,7.28L194.59,7.28z"/>
	<path class="st5" d="M160.6,54.23L145.82,39h-1.04v15.23h-8.45V7.39l18.52-0.03c8.73,0,15.83,7.1,15.83,15.82
		c0,7.86-5.76,14.4-13.29,15.62l14.94,15.43H160.6z M144.78,30.55h10.08c4.07,0,7.38-3.31,7.38-7.38s-3.31-7.38-7.38-7.38
		l-10.08,0.02V30.55z"/>
	<g class="st1">
		<g>
			<g>
				<polygon class="st4" points="94.38,54.19 94.4,40.3 119.71,7.38 130.4,7.35 				"/>
			</g>
		</g>
		<g>
			<polygon class="st4" points="94.38,54.23 94.38,7.38 102.83,7.38 102.83,43.21 			"/>
		</g>
	</g>
	<polygon class="st3" points="107.69,38.48 119.79,54.26 130.47,54.24 113.02,31.55 	"/>
	<path class="st5" d="M81.63,54.19L66.85,38.96h-1.04v15.23h-8.45V7.34l18.52-0.03c8.73,0,15.83,7.1,15.83,15.82
		c0,7.86-5.76,14.4-13.29,15.62l14.94,15.43H81.63z M65.81,30.51h10.08c4.07,0,7.38-3.31,7.38-7.38s-3.31-7.38-7.38-7.38
		l-10.08,0.02V30.51z"/>
	<g class="st1">
		<polygon class="st4" points="53.78,54.19 45.33,54.19 45.27,17.17 53.72,6.19 		"/>
	</g>
	<g class="st1">
		<g>
			<g>
				<polygon class="st4" points="2,54.18 2.02,40.3 27.33,7.37 38.02,7.34 				"/>
			</g>
		</g>
		<g>
			<polygon class="st4" points="2,54.22 2,7.37 10.45,7.37 10.45,43.2 			"/>
		</g>
	</g>
	<polygon class="st3" points="15.31,38.47 27.41,54.25 38.09,54.23 20.64,31.54 	"/>
</g>
<g id="Layer_3">
	<g>
		<rect x="270.35" y="44.83" class="st2" width="8.45" height="8.45"/>
		<polygon class="st6" points="278.79,44.83 270.35,44.83 270.35,53.27 278.79,53.27 278.79,44.83 		"/>
	</g>
	<polygon class="st6" points="256.52,53.27 224.43,11.58 231.13,6.43 262,46.58 	"/>
	<g>
		<polygon class="st7" points="264.97,53.27 256.52,53.27 256.52,15.37 264.97,4.39 		"/>
	</g>
	<g>
		<rect x="222.68" y="6.43" class="st7" width="8.45" height="46.89"/>
	</g>
	<path class="st7" d="M196.23,14.81c8.27,0,15,6.73,15,15c0,8.27-6.73,15-15,15s-15-6.73-15-15
		C181.23,21.54,187.96,14.81,196.23,14.81 M196.23,6.37c-12.95,0-23.44,10.49-23.44,23.44s10.49,23.44,23.44,23.44
		s23.44-10.49,23.44-23.44S209.17,6.37,196.23,6.37L196.23,6.37z"/>
	<path class="st7" d="M162.24,53.31l-14.77-15.23h-1.04v15.23h-8.45V6.47l18.52-0.03c8.73,0,15.83,7.1,15.83,15.82
		c0,7.86-5.76,14.4-13.29,15.62l14.93,15.43H162.24z M146.43,29.64h10.08c4.07,0,7.37-3.31,7.37-7.37s-3.31-7.37-7.37-7.37
		l-10.08,0.02V29.64z"/>
	<g>
		<g>
			<polygon class="st7" points="97.65,53.31 97.65,6.47 106.1,6.47 106.1,42.29 			"/>
		</g>
		<g>
			<g>
				<polygon class="st7" points="97.65,55.08 97.65,41.22 124.38,6.46 135.07,6.43 				"/>
			</g>
		</g>
	</g>
	<polygon class="st6" points="112.36,37.56 124.46,53.34 135.14,53.32 117.69,30.63 	"/>
	<path class="st7" d="M83.27,53.27L68.5,38.05h-1.04v15.23h-8.45V6.43l18.52-0.03c8.73,0,15.83,7.1,15.83,15.82
		c0,7.86-5.76,14.4-13.29,15.62l14.93,15.43H83.27z M67.46,29.6h10.08c4.07,0,7.37-3.31,7.37-7.37s-3.31-7.37-7.37-7.37l-10.08,0.02
		V29.6z"/>
	<g>
		<polygon class="st7" points="53.43,53.28 44.98,53.28 44.97,15.53 53.42,4.55 		"/>
	</g>
	<g>
		<g>
			<polygon class="st7" points="2.26,53.31 2.26,6.47 10.71,6.47 10.71,42.29 			"/>
		</g>
		<g>
			<g>
				<polygon class="st7" points="2.26,55.08 2.26,41.22 28.99,6.46 39.68,6.43 				"/>
			</g>
		</g>
	</g>
	<polygon class="st6" points="16.97,37.56 29.07,53.34 39.75,53.32 22.3,30.63 	"/>
</g>
</svg>
