<?xml version="1.0" encoding="utf-8"?>
<!-- Generator: Adobe Illustrator 25.0.0, SVG Export Plug-In . SVG Version: 6.00 Build 0)  -->
<svg version="1.1" id="Layer_1" xmlns="http://www.w3.org/2000/svg" xmlns:xlink="http://www.w3.org/1999/xlink" x="0px" y="0px"
	 viewBox="0 0 1549.9 584" style="enable-background:new 0 0 1549.9 584;" xml:space="preserve">
<style type="text/css">
	.st0{fill:#FCFCFC;}
</style>
<g>
	<path class="st0" d="M1485,31.8c-7.6,76.3,32.7,149.3,44.7,208.1s-42.5,162.4-66.5,201.6s-94.8,97-94.8,97s-87.6,51-152.9,40.9
		s-189.5-22-234.1-13.1c-44.6,8.9-90.3-4.2-90.3-4.2s-42.1-20.2-94.5-8.5c-321.1,89.9-373-48.6-373-48.6
		c-22.6-54.1-72.3-72.3-72.3-72.3C247,380.7,245.8,281.1,245.8,281.1C223.3,82,12.3-0.8,12.3-0.8h1393.8
		C1506.2-0.8,1485,31.8,1485,31.8z"/>
</g>
</svg>
