<?xml version="1.0" encoding="utf-8"?>
<!-- Generator: Adobe Illustrator 25.0.0, SVG Export Plug-In . SVG Version: 6.00 Build 0)  -->
<svg version="1.1" id="Layer_1" xmlns="http://www.w3.org/2000/svg" xmlns:xlink="http://www.w3.org/1999/xlink" x="0px" y="0px"
	 viewBox="0 0 401.9 879.6" style="enable-background:new 0 0 401.9 879.6;" xml:space="preserve">
<style type="text/css">
	.st0{fill:url(#SVGID_1_);}
	.st1{display:none;}
	.st2{display:inline;fill:#E6E6E6;}
	.st3{display:inline;fill:#FBB03B;}
	.st4{display:inline;}
	.st5{fill:#FFC06C;}
	.st6{display:inline;fill:none;stroke:#FFFFFF;stroke-width:3;stroke-miterlimit:10;}
	.st7{display:inline;fill:#CCCCCC;}
	.st8{fill:none;stroke:#FBB03B;stroke-width:5;stroke-miterlimit:10;}
	.st9{fill:none;}
	.st10{fill:#4D4D4D;}
	.st11{fill:#405A7F;}
	.st12{fill:#754C24;}
	.st13{fill:#BF844F;}
	.st14{fill:#A06D42;}
	.st15{fill:#603813;}
	.st16{fill:#8C6239;}
	.st17{fill:#333333;}
</style>
<radialGradient id="SVGID_1_" cx="191.9325" cy="845.2532" r="193.7566" gradientTransform="matrix(1 0 0 0.1815 0 691.8257)" gradientUnits="userSpaceOnUse">
	<stop  offset="0" style="stop-color:#020202;stop-opacity:0.3"/>
	<stop  offset="9.538452e-02" style="stop-color:#080808;stop-opacity:0.2714"/>
	<stop  offset="0.2205" style="stop-color:#181818;stop-opacity:0.2339"/>
	<stop  offset="0.3622" style="stop-color:#333333;stop-opacity:0.1913"/>
	<stop  offset="0.5161" style="stop-color:#595959;stop-opacity:0.1452"/>
	<stop  offset="0.6799" style="stop-color:#8A8A8A;stop-opacity:9.601679e-02"/>
	<stop  offset="0.8492" style="stop-color:#C5C5C5;stop-opacity:4.522541e-02"/>
	<stop  offset="1" style="stop-color:#FFFFFF;stop-opacity:0"/>
</radialGradient>
<ellipse class="st0" cx="191.9" cy="845.3" rx="196.8" ry="34.3"/>
<g>
	<g class="st1">
		<circle class="st2" cx="200.8" cy="-59.5" r="7.2"/>
		<path class="st3" d="M202.8-174c-0.5,0-1.1,0-1.6,0s-1.1,0-1.6,0c-26.1,1-45.7,29.2-34.1,52.7l0.5,1.1
			c6.1,10.6,14.1,7.7,14.1,19.8v8.5h42.3v-8.6c0-12,7.2-9.5,13.2-19.6l0.6-1.3C247.5-145,228.8-173,202.8-174z"/>
		<g class="st4">
			<path class="st5" d="M202.8-174c-0.5,0-1.1,0-1.6,0s-1.1,0-1.6,0c-11.5,0.5-21.7,6.1-28.5,14.4c6.4-5.3,14.5-8.8,23.3-9.2
				c0.5,0,1,0,1.6,0c0.5,0,1.1,0,1.6,0c26.1,1.1,44.8,29,33.5,52.6l-0.6,1.3c-0.5,0.8-0.9,1.5-1.4,2.1c2.1-1.6,4.4-3.7,6.6-7.3
				l0.6-1.3C247.5-145,228.8-173,202.8-174z"/>
		</g>
		<path class="st6" d="M205.1-95.1c-0.8-6.7-1.5-13.5-1.2-20.3s1.6-13.6,4.9-19.6c0.8-1.5,1.8-3,3.2-4c2.4-1.7,5.8-1.6,8.1,0.1
			s3.3,5,2.3,7.8c-1,2.7-3.5,4.5-6,5.7c-5.1,2.4-27,2.4-32.1,0c-2.6-1.2-5.1-3-6-5.7c-1-2.7,0-6,2.3-7.8c2.3-1.7,5.7-1.8,8.1-0.1
			c1.4,1,2.4,2.5,3.2,4c3.2,6,4.6,12.8,4.9,19.6s-0.5,13.6-1.2,20.3"/>
		<path class="st7" d="M216.5-59.5h-30.3c-2.4,0-6.2-1.9-6.2-4.2l0,0v-30.5c0-1.6,1.3-2.9,2.9-2.9h36.8c1.6,0,2.9,1.3,2.9,2.9v30.3
			v0.1C222.7-61.4,218.9-59.5,216.5-59.5z"/>
		<path class="st2" d="M222.8-92l-45.3,5.5c-1.9,0.2-3.7-1.1-3.9-3.1l-0.1-0.7c-0.2-1.9,1.1-3.7,3.1-3.9l45.3-5.5
			c1.9-0.2,3.7,1.1,3.9,3.1l0.1,0.7C226.1-94,224.7-92.3,222.8-92z"/>
		<path class="st2" d="M224.3-79.3L179-73.8c-1.9,0.2-3.7-1.1-3.9-3.1l-0.1-0.7c-0.2-1.9,1.1-3.7,3.1-3.9l45.3-5.5
			c1.9-0.2,3.7,1.1,3.9,3.1l0.1,0.7C227.6-81.3,226.3-79.5,224.3-79.3z"/>
		<path class="st2" d="M225.9-66.5L180.6-61c-1.9,0.2-3.7-1.1-3.9-3.1l-0.1-0.7c-0.2-1.9,1.1-3.7,3.1-3.9l45.3-5.5
			c1.9-0.2,3.7,1.1,3.9,3.1l0.1,0.7C229.2-68.5,227.8-66.8,225.9-66.5z"/>
		<g class="st4">
			<g>
				<g>
					<g>
						<line class="st8" x1="153.3" y1="-97.1" x2="164.5" y2="-106.7"/>
						<line class="st8" x1="153.3" y1="-97.1" x2="164.5" y2="-106.7"/>
						<path class="st9" d="M159.9-124.9c0,0,0.1,0.3,0.2,0.7c0.2,0.4,0.4,1.1,0.7,1.8c0.6,1.5,1.5,3.5,2.5,5.4s2.3,3.7,3.2,5
							c1,1.3,1.7,2.1,1.7,2.1l-17.1,14.6c0,0-1.1-1.2-2.6-3.2s-3.3-4.7-4.9-7.6c-1.6-2.9-3-5.9-3.8-8.2c-0.5-1.1-0.8-2.1-1-2.8
							s-0.4-1.1-0.4-1.1L159.9-124.9z"/>
					</g>
					<g>
						<line class="st8" x1="140.4" y1="-121.7" x2="154.6" y2="-125.5"/>
						<line class="st8" x1="140.4" y1="-121.7" x2="154.6" y2="-125.5"/>
						<path class="st9" d="M158.3-143.9c0,0-0.1,1.1-0.2,2.7c-0.2,1.6-0.2,3.8-0.1,6s0.4,4.3,0.8,5.9c0.1,0.8,0.3,1.5,0.4,1.9
							c0.1,0.5,0.2,0.7,0.2,0.7l-21.7,5.8c0,0-0.1-0.4-0.3-1.1c-0.2-0.7-0.4-1.7-0.7-2.9c-0.5-2.4-1-5.7-1.2-9s-0.1-6.6,0.1-9
							c0.2-2.5,0.4-4.1,0.4-4.1L158.3-143.9z"/>
					</g>
					<g>
						<line class="st8" x1="139.4" y1="-149.5" x2="153.9" y2="-146.7"/>
						<line class="st8" x1="139.4" y1="-149.5" x2="153.9" y2="-146.7"/>
						<path class="st9" d="M165.2-161.7c0,0-0.2,0.2-0.4,0.6c-0.1,0.2-0.3,0.4-0.5,0.7c-0.1,0.1-0.2,0.3-0.3,0.4
							c-0.1,0.2-0.2,0.3-0.3,0.5c-0.4,0.7-0.8,1.6-1.3,2.4c-0.1,0.2-0.2,0.4-0.4,0.7c-0.1,0.2-0.2,0.5-0.3,0.7
							c-0.2,0.5-0.4,1-0.6,1.5s-0.4,1-0.6,1.5s-0.3,1-0.5,1.5c-0.3,1-0.6,1.9-0.8,2.6c-0.2,0.8-0.3,1.5-0.4,1.9
							c-0.1,0.5-0.1,0.7-0.1,0.7l-22.1-4.1c0,0,0.1-0.4,0.2-1.1c0.2-0.7,0.3-1.7,0.6-2.9c0.4-1.2,0.8-2.6,1.2-4
							c0.2-0.7,0.4-1.5,0.7-2.3c0.3-0.8,0.6-1.5,0.9-2.3s0.6-1.5,0.9-2.3c0.2-0.4,0.3-0.7,0.5-1.1c0.2-0.4,0.4-0.7,0.5-1
							c0.7-1.4,1.4-2.6,2-3.7c0.1-0.3,0.3-0.5,0.4-0.8c0.2-0.2,0.3-0.5,0.4-0.7c0.3-0.4,0.5-0.8,0.7-1.1c0.4-0.6,0.6-0.9,0.6-0.9
							L165.2-161.7z"/>
					</g>
					<g>
						<line class="st8" x1="150.4" y1="-175" x2="162.3" y2="-166.3"/>
						<line class="st8" x1="150.4" y1="-175" x2="162.3" y2="-166.3"/>
						<path class="st9" d="M179-174.9c0,0-0.2,0.1-0.7,0.4c-0.4,0.3-0.9,0.7-1.6,1.1c-0.3,0.2-0.7,0.5-1.1,0.7
							c-0.2,0.1-0.4,0.3-0.6,0.4c-0.2,0.1-0.4,0.3-0.6,0.5c-0.8,0.7-1.6,1.3-2.4,2s-1.5,1.5-2.3,2.3c-0.4,0.4-0.7,0.7-1,1.1
							c-0.3,0.4-0.6,0.7-0.8,1c-0.5,0.6-0.9,1.2-1.2,1.5c-0.3,0.4-0.5,0.6-0.5,0.6l-18.1-13.3c0,0,0.2-0.3,0.7-0.9
							c0.5-0.6,1.1-1.4,1.9-2.3c0.4-0.5,0.8-1,1.3-1.5s1-1.1,1.5-1.6c1.1-1.1,2.2-2.3,3.4-3.4c1.3-1.1,2.5-2.1,3.7-3.1
							c0.3-0.2,0.6-0.5,0.9-0.7s0.6-0.4,0.9-0.6c0.6-0.4,1.1-0.8,1.6-1.1c1-0.7,1.9-1.3,2.5-1.7s1-0.6,1-0.6L179-174.9z"/>
					</g>
					<g>
						<line class="st8" x1="171.4" y1="-193.1" x2="178.4" y2="-180.2"/>
						<line class="st8" x1="171.4" y1="-193.1" x2="178.4" y2="-180.2"/>
						<path class="st9" d="M197.2-180.8c0,0-1.1,0.1-2.7,0.3c-0.8,0.1-1.7,0.4-2.7,0.6c-0.5,0.1-1,0.2-1.5,0.3
							c-0.5,0.1-1,0.3-1.5,0.5c-1,0.3-2.1,0.6-3,1c-0.9,0.4-1.8,0.8-2.5,1.1c-0.4,0.2-0.7,0.3-1,0.4c-0.3,0.2-0.5,0.3-0.7,0.4
							c-0.4,0.2-0.6,0.4-0.6,0.4l-10.6-19.8c0,0,0.4-0.2,1-0.5c0.3-0.2,0.7-0.4,1.1-0.6c0.5-0.2,1-0.4,1.5-0.7
							c1.1-0.5,2.5-1.1,3.9-1.7c1.4-0.5,3-1,4.6-1.5c0.8-0.2,1.6-0.5,2.4-0.7s1.6-0.3,2.3-0.5c1.5-0.3,2.9-0.7,4.1-0.8
							c2.5-0.3,4.1-0.5,4.1-0.5L197.2-180.8z"/>
					</g>
					<g>
						<line class="st8" x1="198.2" y1="-200.5" x2="198.9" y2="-185.8"/>
						<line class="st8" x1="198.2" y1="-200.5" x2="198.9" y2="-185.8"/>
						<path class="st9" d="M216.1-178.3c0,0-0.1,0-0.2-0.1c-0.1,0-0.3-0.1-0.5-0.2c-0.5-0.1-1.1-0.3-1.9-0.6
							c-0.4-0.1-0.8-0.2-1.3-0.4c-0.4-0.1-0.9-0.3-1.4-0.4c-1-0.2-2.1-0.4-3.1-0.6c-0.5-0.1-1.1-0.1-1.6-0.2c-0.5,0-1.1-0.1-1.6-0.1
							c-0.5-0.1-1-0.1-1.5-0.1c-0.5-0.1-0.9,0-1.3,0c-1.6,0-2.7,0-2.7,0l-1-22.4c0,0,1.6,0,4.1,0c0.6,0,1.3,0,2,0
							c0.7,0.1,1.4,0.1,2.2,0.2c0.8,0.1,1.6,0.1,2.4,0.2c0.8,0.1,1.6,0.1,2.4,0.3c1.6,0.3,3.2,0.6,4.7,0.9c0.8,0.1,1.5,0.3,2.2,0.5
							s1.3,0.4,1.9,0.6c1.2,0.4,2.2,0.7,2.9,0.9c0.3,0.1,0.6,0.2,0.8,0.3c0.2,0.1,0.3,0.1,0.3,0.1L216.1-178.3z"/>
					</g>
					<g>
						<line class="st8" x1="225.5" y1="-195.6" x2="219.8" y2="-182.1"/>
						<line class="st8" x1="225.5" y1="-195.6" x2="219.8" y2="-182.1"/>
						<path class="st9" d="M232.1-167.8c0,0-0.8-0.8-1.9-1.9c-0.6-0.6-1.4-1.1-2.1-1.8c-0.4-0.3-0.8-0.7-1.2-1
							c-0.4-0.3-0.9-0.6-1.3-0.9c-0.9-0.6-1.8-1.2-2.7-1.7c-0.9-0.5-1.7-0.9-2.4-1.3c-0.4-0.2-0.7-0.4-1-0.5
							c-0.3-0.1-0.6-0.2-0.8-0.3c-0.4-0.2-0.7-0.3-0.7-0.3l8.8-20.7c0,0,0.4,0.2,1,0.4c0.3,0.1,0.7,0.3,1.2,0.5s1,0.5,1.5,0.8
							c1.1,0.6,2.4,1.3,3.7,2c1.3,0.8,2.7,1.7,4.1,2.6c0.7,0.5,1.4,0.9,2,1.4s1.3,1,1.9,1.5c1.2,1,2.3,1.9,3.2,2.7
							c1.8,1.7,2.9,2.9,2.9,2.9L232.1-167.8z"/>
					</g>
					<g>
						<line class="st8" x1="248.1" y1="-179.4" x2="237.1" y2="-169.6"/>
						<line class="st8" x1="248.1" y1="-179.4" x2="237.1" y2="-169.6"/>
						<path class="st9" d="M242-151.5c0,0-0.1-0.3-0.2-0.7c-0.1-0.2-0.2-0.5-0.3-0.8c-0.1-0.3-0.3-0.6-0.4-1
							c-0.3-0.7-0.7-1.6-1.1-2.5s-1-1.8-1.5-2.8c-0.3-0.5-0.5-1-0.8-1.4s-0.6-0.9-0.9-1.3s-0.6-0.8-0.8-1.2
							c-0.3-0.4-0.5-0.8-0.8-1.1c-1-1.2-1.7-2.1-1.7-2.1l16.8-14.9c0,0,1.1,1.3,2.6,3.2c0.4,0.5,0.8,1,1.2,1.6
							c0.4,0.6,0.8,1.2,1.3,1.8c0.4,0.6,0.9,1.3,1.3,2c0.5,0.7,0.8,1.4,1.2,2.1c0.8,1.4,1.6,2.9,2.3,4.3c0.6,1.4,1.2,2.7,1.7,3.9
							c0.2,0.6,0.5,1.1,0.7,1.6s0.3,0.9,0.4,1.2c0.2,0.7,0.3,1.1,0.3,1.1L242-151.5z"/>
					</g>
					<g>
						<line class="st8" x1="261.4" y1="-155" x2="247.3" y2="-151"/>
						<line class="st8" x1="261.4" y1="-155" x2="247.3" y2="-151"/>
						<path class="st9" d="M243.8-133.2c0,0,0-0.1,0-0.2c0-0.1,0.1-0.3,0.1-0.5s0.1-0.5,0.1-0.7c0-0.3,0.1-0.6,0.1-0.9
							c0.1-0.4,0-1.5,0-2.5c0-0.5,0-1,0-1.6c0-0.5,0-1.1-0.1-1.6c-0.1-1.1-0.2-2.2-0.3-3.2c0-0.5-0.2-1-0.3-1.4
							c-0.1-0.5-0.2-0.9-0.3-1.3c-0.2-0.8-0.3-1.5-0.4-1.9s-0.2-0.7-0.2-0.7l21.6-6.1c0,0,0.1,0.4,0.3,1.1c0.2,0.7,0.4,1.7,0.6,2.9
							c0.1,0.6,0.3,1.3,0.4,2s0.3,1.4,0.4,2.2c0.2,1.5,0.4,3.2,0.5,4.8c0.1,0.8,0.1,1.6,0.1,2.4c0,0.8,0,1.6,0,2.4
							c0,1.6,0.1,2.9-0.1,4.5c-0.1,0.7-0.1,1.3-0.2,1.9c-0.1,0.5-0.2,1-0.2,1.4c-0.1,0.4-0.1,0.7-0.1,0.9s-0.1,0.3-0.1,0.3
							L243.8-133.2z"/>
					</g>
					<g>
						<line class="st8" x1="262.5" y1="-126.8" x2="248.2" y2="-130.2"/>
						<line class="st8" x1="262.5" y1="-126.8" x2="248.2" y2="-130.2"/>
						<path class="st9" d="M236.7-113.4c0,0,0.6-1.1,1.3-2.7c0.8-1.7,1.8-3.9,2.6-6.2c0.9-2.3,1.6-4.6,2.1-6.2
							c0.5-1.7,0.7-2.7,0.7-2.7l21.9,5.1c0,0-0.4,1.6-1,3.9c-0.6,2.3-1.6,5.2-2.7,8s-2.3,5.6-3.2,7.6c-1,2-1.6,3.4-1.6,3.4
							L236.7-113.4z"/>
					</g>
					<g>
						<line class="st8" x1="252.9" y1="-102.2" x2="240" y2="-109.2"/>
						<line class="st8" x1="252.9" y1="-102.2" x2="240" y2="-109.2"/>
						<path class="st9" d="M226.6-99.3c0,0,0,0,0.1-0.1s0.3-0.2,0.7-0.5c0.7-0.6,2.1-2.1,3.3-3.8c1.3-1.7,2.5-3.7,3.4-5.2
							s1.5-2.6,1.5-2.6l19.8,10.6c0,0-0.7,1.3-1.9,3.3c-1.2,2-2.8,4.7-4.8,7.3c-2,2.7-4.3,5.3-6.7,7.4c-1.2,1-2.3,1.9-3.2,2.4
							c-0.9,0.6-1.5,0.9-1.5,0.9L226.6-99.3z"/>
					</g>
				</g>
			</g>
		</g>
	</g>
	<g>
		<path class="st10" d="M200.9,539.7h-1.3c-41.6,0-75.4-34.2-75.4-75.8v-0.2h152v0.2C276.2,505.5,242.5,539.7,200.9,539.7z"/>
		<path class="st11" d="M230.6,265.8L230.6,265.8c-6.7,7.6-6,19.3,1.6,26l102.9,91c7.6,6.7,19.3,6,26-1.6l0,0c6.7-7.6,6-19.3-1.6-26
			l-102.9-91C249,257.5,237.4,258.2,230.6,265.8z"/>
		<path class="st11" d="M5.6,293L5.6,293c1.1,10.1,10.2,17.5,20.3,16.4l136.6-14.7c10.1-1.1,17.5-10.2,16.4-20.3l0,0
			c-1.1-10.1-10.2-17.5-20.3-16.4L22,272.7C11.9,273.7,4.5,282.8,5.6,293z"/>
		<path class="st11" d="M19.1,309.7L19.1,309.7c10.1,1.6,19.5-5.2,21.2-15.2l22.1-135.6c1.6-10.1-5.2-19.5-15.2-21.2l0,0
			c-10.1-1.6-19.5,5.2-21.2,15.2L3.9,288.5C2.3,298.6,9.1,308.1,19.1,309.7z"/>
		<path class="st11" d="M256.1,461L256.1,461c7,7.4,18.6,7.8,26.1,0.9l80.2-75.1c7.4-7,7.8-18.6,0.9-26.1l0,0
			c-7-7.4-18.6-7.8-26.1-0.9l-80.3,75.1C249.5,441.9,249.1,453.6,256.1,461z"/>
		<path class="st12" d="M175.8,805.7v41L95,847.1c0,0,3-18.4,22.9-21.9c19.8-3.6,36.6,7.8,36.6,7.8l2.1-27.3H175.8z"/>
		<rect x="145.2" y="463.7" class="st10" width="41" height="342"/>
		<path class="st12" d="M223.9,805.7v41l80.8,0.4c0,0-3-18.4-22.9-21.9c-19.8-3.6-36.6,7.8-36.6,7.8l-2.1-27.3H223.9z"/>
		<rect x="213.2" y="463.7" class="st10" width="41" height="342"/>
		<path class="st11" d="M171.4,256.1h57.7c26,0,47.2,21.1,47.2,47.2v160.4h-152V303.3C124.2,277.2,145.3,256.1,171.4,256.1z"/>
		<g>
			<path class="st13" d="M54.9,150L54.9,150c-0.4-3.5,2-6.7,5.5-7.2l29.2-3.7c3.5-0.4,6.7,2,7.2,5.5l0,0c0.4,3.5-2,6.7-5.5,7.2
				l-29.2,3.7C58.5,156,55.3,153.5,54.9,150z"/>
			<path class="st13" d="M22.5,133.7l3.3-9.8c1.4-4.2,6-6.5,10.2-5.1L69.3,130c4.2,1.4,6.5,6,5.1,10.2l-3.3,9.8
				c-1.5,4.5-6.4,6.9-10.9,5.4l-32.3-10.8C23.4,143.1,21,138.2,22.5,133.7z"/>
			<path class="st13" d="M64.8,148.8L64.8,148.8c-3.3-1.1-5.1-4.8-4-8.1l18.9-56.3c1.1-3.3,4.8-5.1,8.1-4l0,0c3.3,1.1,5.1,4.8,4,8.1
				l-18.9,56.3C71.8,148.2,68.1,150,64.8,148.8z"/>
			<path class="st13" d="M54.5,139.3L54.5,139.3c-3.3-1.1-5.1-4.8-4-8.1l9.4-27.9c1.1-3.3,4.8-5.1,8.1-4l0,0c3.3,1.1,5.1,4.8,4,8.1
				l-9.4,27.9C61.5,138.6,57.8,140.4,54.5,139.3z"/>
			<path class="st13" d="M41.3,138.2L41.3,138.2c-3.3-1.1-5.1-4.8-4-8.1l9.4-27.9c1.1-3.3,4.8-5.1,8.1-4l0,0c3.3,1.1,5.1,4.8,4,8.1
				l-9.4,27.9C48.3,137.6,44.7,139.4,41.3,138.2z"/>
			<path class="st13" d="M27.7,138.6L27.7,138.6c-3.3-1.1-5.1-4.8-4-8.1l9.4-27.9c1.1-3.3,4.8-5.1,8.1-4l0,0c3.3,1.1,5.1,4.8,4,8.1
				l-9.4,27.9C34.7,137.9,31.1,139.7,27.7,138.6z"/>
		</g>
		<g>
			<path class="st13" d="M270.4,462l9.9,5.6l-17.5,30.9c-1.5,2.7-5,3.7-7.7,2.1l0,0c-2.7-1.5-3.7-5-2.1-7.7L270.4,462z"/>
			<path class="st13" d="M260.1,456.2l9.7,5.9l-22.4,36.6c-1.6,2.7-5.1,3.5-7.8,1.9l0,0c-2.7-1.6-3.5-5.1-1.9-7.8L260.1,456.2z"/>
			<path class="st13" d="M249.1,454.4l9,6.9l-26.2,34c-1.9,2.5-5.5,2.9-8,1l0,0c-2.5-1.9-2.9-5.5-1-8L249.1,454.4z"/>
			<path class="st13" d="M246.2,445.3l7.6,8.5l-32.1,28.5c-2.3,2.1-5.9,1.9-8-0.5l0,0c-2.1-2.3-1.9-5.9,0.5-8L246.2,445.3z"/>
			<path class="st13" d="M249.5,437.9l2.9,11l-25,6.7c-3,0.8-6.1-1-7-4l0,0c-0.8-3,1-6.1,4-7L249.5,437.9z"/>
			<path class="st13" d="M243.4,441.7l-5.5,7.1c-1,1.3-0.8,3.2,0.5,4.2l31.4,24.2c1.3,1,3.2,0.8,4.2-0.5l5.5-7.2
				c3.8-4.9,2.9-12.1-2-15.9l-18.2-14.1C254.4,435.8,247.2,436.7,243.4,441.7z"/>
		</g>
		<path class="st13" d="M230.1,260.1c0,13.4-10.9,24.5-24.3,24.5l0,0h-0.2c-13.4,0-24.5-11.1-24.5-24.5v-21.5h49V260.1z"/>
		<path class="st14" d="M181.1,254.5c9.5,4.1,19.4,6.3,28.9,6.3c6.6,0,13.4-1.1,20.1-3.1v-15.5h-49V254.5z"/>
		<g>
			<path class="st15" d="M332.8,129.1c0-9.9-6.3-18.4-15.2-21.5c6.1-5.6,10-13.6,10-22.6c0-15.9-12.2-29-27.8-30.4
				c1.3-3.1,2-6.5,2-10.1c0-14.9-12.1-27-27-27c-7.4,0-14,2.9-18.9,7.7c0-0.1,0-0.1,0-0.2c0-13.8-11.2-25-25-25
				c-8.8,0-16.5,4.5-21,11.4c-5.3-6.1-13.2-9.9-21.9-9.9c-13.3,0-24.5,8.9-27.9,21c-4.3-2.6-9.4-4-14.8-4c-16.1,0-29.1,13-29.1,29.1
				c0,2.2,0.2,4.3,0.7,6.3C100,54.1,86.3,67.8,86.3,84.8c0,11.4,6.2,21.3,15.3,26.7c-7.1,3.8-11.9,11.3-11.9,20
				c0,9.5,5.8,17.6,14.1,21c-2.4,3.2-3.9,7.2-3.9,11.6c0,10.1,7.7,18.4,17.6,19.3c-0.9,2.3-1.4,4.8-1.4,7.4c0,11,8.9,19.9,19.9,19.9
				c7.6,0,14.2-4.3,17.5-10.5c15.1,10.5,33.5,16.7,53.4,16.7c20.1,0,38.8-6.3,54-17.1c3.2,7.2,10.4,12.2,18.8,12.2
				c11.4,0,20.7-9.2,20.7-20.7c0-2-0.3-4-0.9-5.9c0.6,0,1.2,0.1,1.8,0.1c12.9,0,23.4-10.5,23.4-23.4c0-4.7-1.4-9.1-3.8-12.8
				C328,145.2,332.8,137.7,332.8,129.1z"/>
			<path class="st13" d="M209.6,248.1c-34.9,0-76.8-30.5-76.8-73.2v-66.2c0-34.4,27.9-62.4,62.4-62.4h29.4
				c34.4,0,62.4,27.9,62.4,62.4v66.2C286.8,217.6,244.5,248.1,209.6,248.1z"/>
			<rect x="114.6" y="103.4" class="st15" width="36.3" height="39"/>
			<circle class="st13" cx="132.4" cy="140.2" r="21.9"/>
			<path class="st16" d="M128,143.3c0-4.3,3.5-7.8,7.8-7.8c1.2,0,2.3,0.3,3.3,0.7c-1.4-2.3-3.8-3.8-6.7-3.8c-4.3,0-7.8,3.5-7.8,7.8
				c0,3.1,1.8,5.8,4.5,7C128.4,146.1,128,144.7,128,143.3z"/>
			<ellipse class="st17" cx="184.7" cy="142.8" rx="5" ry="8.8"/>
			<ellipse class="st17" cx="248.2" cy="142.8" rx="5" ry="8.8"/>
			<path class="st16" d="M211.6,151.9v15.9c0,0.7,0.9,1.3,1.6,1.3h9.4c2.6,0,4-3,2.3-4.9l-10.9-13
				C213.3,150.2,211.6,150.7,211.6,151.9z"/>
			<circle class="st13" cx="288.5" cy="140.2" r="21.9"/>
			<path class="st16" d="M295.8,143.3c0-4.3-3.5-7.8-7.8-7.8c-1.2,0-2.3,0.3-3.3,0.7c1.4-2.3,3.8-3.8,6.7-3.8c4.3,0,7.8,3.5,7.8,7.8
				c0,3.1-1.8,5.8-4.5,7C295.4,146.1,295.8,144.7,295.8,143.3z"/>
			<path class="st15" d="M291,81.7v-8.5c0-16.8-13.6-30.4-30.4-30.4h-97.1c-16.8,0-30.4,13.6-30.4,30.4v23.3c-1,2.8-1,5.6,0,8.4
				l3.4,6.5c5.5,6,15.2,7.2,23.4,2.5c7.8-4.5,11.6-12.9,9.9-20.4l1.9-1c2.8,1.5,6,2.4,9.4,2.4c8.7,0,16.1-5.7,18.6-13.7
				c3.2,9,12.5,15.5,23.4,15.5c8.1,0,15.4-3.6,19.8-9.2c1.6,6.4,6,12.6,12.6,16.8c12.2,7.7,27.4,5.7,33.9-4.4
				C292.8,94.5,293,87.9,291,81.7z"/>
		</g>
		<path class="st16" d="M191.9,180.9c0,13.6,11.1,24.7,24.7,24.7l0,0c13.6,0,24.7-11.1,24.7-24.7"/>
	</g>
</g>
</svg>
