<?xml version="1.0" encoding="utf-8"?>
<!-- Generator: Adobe Illustrator 24.2.1, SVG Export Plug-In . SVG Version: 6.00 Build 0)  -->
<svg version="1.1" id="Layer_1" xmlns="http://www.w3.org/2000/svg" xmlns:xlink="http://www.w3.org/1999/xlink" x="0px" y="0px"
	 viewBox="0 0 432.07 445.38" style="enable-background:new 0 0 432.07 445.38;" xml:space="preserve">
<style type="text/css">
	.st0{display:none;}
	.st1{display:none;fill:#383A42;}
	.st2{fill:none;stroke:#383A42;stroke-width:6;}
	.st3{fill:#383A42;}
</style>
<g id="orginal">
</g>
<g id="Layer_x0020_3">
	<rect x="-171" y="-108" class="st0" width="854" height="693"/>
	<path class="st1" d="M402.39,271.23c-50.3,10.38-53.76-6.65-53.76-6.65c53.11-78.81,75.31-178.84,56.15-203.33
		c-52.27-66.79-142.75-35.2-144.26-34.38l-0.49,0.09c-9.94-2.06-21.06-3.29-33.56-3.5c-22.76-0.37-40.03,5.97-53.13,15.9
		c0,0-161.41-66.5-153.9,83.63c1.6,31.94,45.78,241.66,98.47,178.31c19.26-23.16,37.87-42.75,37.87-42.75
		c9.24,6.14,20.31,9.27,31.91,8.15l0.9-0.77c-0.28,2.88-0.15,5.69,0.36,9.02c-13.57,15.17-9.59,17.83-36.72,23.42
		c-27.46,5.66-11.33,15.73-0.8,18.37c12.77,3.19,42.31,7.72,62.27-20.22l-0.8,3.19c5.32,4.26,9.05,27.71,8.43,48.97
		c-0.63,21.26-1.04,35.85,3.15,47.25c4.19,11.4,8.37,37.05,44.04,29.41c29.81-6.39,45.26-22.94,47.4-50.55
		c1.52-19.63,4.98-16.73,5.19-34.28l2.77-8.31c3.19-26.61,0.51-35.2,18.87-31.2l4.46,0.39c13.52,0.61,31.21-2.17,41.59-7
		C411.18,284,424.44,266.68,402.39,271.23L402.39,271.23z"/>
	<path class="st2" d="M323.2,324.23c2.83-23.6,1.98-27.06,19.56-23.24l4.46,0.39c13.52,0.61,31.2-2.17,41.59-7
		c22.36-10.38,35.62-27.7,13.57-23.15c-50.3,10.38-53.76-6.65-53.76-6.65c53.11-78.8,75.31-178.84,56.15-203.32
		C352.51-5.53,262.04,26.05,260.52,26.87l-0.48,0.09c-9.94-2.06-21.06-3.29-33.55-3.5c-22.76-0.37-40.03,5.97-53.13,15.9
		c0,0-161.41-66.5-153.9,83.63c1.6,31.94,45.78,241.65,98.47,178.31c19.26-23.16,37.87-42.75,37.87-42.75
		c9.24,6.14,20.31,9.27,31.91,8.15l0.9-0.77c-0.28,2.88-0.16,5.69,0.36,9.02c-13.57,15.17-9.58,17.83-36.72,23.42
		c-27.46,5.66-11.33,15.73-0.8,18.37c12.77,3.19,42.3,7.72,62.27-20.22l-0.79,3.19c5.32,4.26,0.8,30.81,1.56,49.64
		c0.76,18.83,2.88,36.86,6.72,47.22s11.67,36.41,47.34,28.77C302.63,423.45,321.13,409.75,323.2,324.23"/>
	<g>
		<path class="st3" d="M208.28,292.26c1.88-2.64,1.31-6.03,0.8-7.81c-1.08-3.79-3.75-7.22-6.49-8.36c-3.5-1.44-5.26-2.16-9.34,2.4
			c0,0,0,0,0,0c-2.74,3.06-4.72,5.57-6.46,7.79c-7.6,9.66-11.09,12.93-33.64,17.58c-4.66,0.96-7.35,1.93-8.86,2.64
			c1.81,1.23,4.89,2.72,8.31,3.57C169.22,314.23,192.38,314.52,208.28,292.26z"/>
		<path class="st3" d="M270.66,419.92c26.61-5.7,36.08-15.29,40.52-41.01c3.42-19.82,9.89-73.75,10.9-86.18
			c-1.22-23.62,11.49-28.33,18.56-30.36c-0.9-1.29-2.09-2.78-3.31-4.31c-4-4.99-9.47-11.83-13.69-22.07
			c-0.64-1.56-2.7-5.24-5.07-9.5c-12.98-23.27-39.98-71.69-22.53-96.64c8.02-11.47,23.85-16.06,47.11-13.69
			c-3.09-9.19-10.85-26.23-25.16-43.15c-16.61-19.63-46.05-43.19-91.95-43.94c-23.33-0.37-42.42,6.77-56.78,21.25
			c-22.8,23-28.9,59.36-30.51,78.81c1.06-0.59,2.2-1.2,3.44-1.83c5.78-2.93,17.37-8.04,30.05-9.36
			c21.14-2.18,35.07,7.24,39.24,26.54c11.14,51.54,0.87,74.35-6.62,91.01c-1.39,3.09-2.7,6-3.75,8.82l-0.93,2.48
			c-2.22,5.94-4.26,11.42-5.44,16.28c5.52-1.41,10.11,0.48,12.62,1.51c6.32,2.62,11.56,8.92,13.72,16.45
			c0.55,1.91,0.86,3.79,0.95,5.63l0.09,0c-1.44,51.76,0.6,98.62,4.75,109C233.29,411.75,243.05,425.84,270.66,419.92z"/>
		<path class="st3" d="M182.24,141.4c-4.25-0.6-6.96,0.18-7.63,0.7c0.31,1.39,3.29,5.22,7.18,5.76c3.91,0.54,7.13-2.54,7.61-3.67
			C188.95,143.52,186.55,141.99,182.24,141.4z"/>
		<path class="st3" d="M199.28,147.11c-1.98-9.18-6.76-14.52-14.6-16.31c-17.18-3.93-41.27,8.97-46.47,13.58
			c0.05,1.04,0.13,2.36,0.22,3.87c0.64,10.76,1.82,30.78-1.39,53.77c-2.29,16.42,2.72,32.44,13.76,43.96
			c8.68,9.06,20.09,14.07,31.83,14.11c1.35-5.54,3.53-11.38,5.87-17.65l0.92-2.46c1.19-3.21,2.59-6.31,4.06-9.59
			C200.64,214.45,209.55,194.63,199.28,147.11z M193.56,144.63c-0.41,2.88-5.01,7.44-10.81,7.44c-0.5,0-1.01-0.03-1.53-0.11
			c-3.3-0.46-6.63-2.54-8.9-5.56c-0.8-1.06-2.11-3.13-1.85-4.99c0.1-0.71,0.46-1.73,1.62-2.61c2.08-1.58,6.19-2.16,10.73-1.52
			C188.36,138.04,194.1,140.67,193.56,144.63z"/>
		<path class="st3" d="M161.29,40.68c-21.68-7.07-75.64-21-108.46,2.28c-20.17,14.3-29.43,40.92-27.52,79.11
			c0.6,12.08,8.25,55.14,21.32,97.96c15.11,49.49,32.24,80.7,47,85.62c2.26,0.75,9.16,3.05,19.13-8.94
			c14.11-16.97,27.36-31.41,33.45-37.93c-1.53-1.31-3.01-2.7-4.43-4.18c-13.7-14.29-19.93-34.08-17.1-54.31
			c3.05-21.76,1.91-40.98,1.3-51.3c-0.17-2.89-0.29-4.97-0.29-6.43c0-0.07,0-0.15,0-0.23c-0.1-6.13-0.14-65.62,34.65-100.75
			C160.66,41.26,160.98,40.98,161.29,40.68z"/>
		<path class="st3" d="M315.88,138.1c-1.39,0.78-1.95,1.54-1.9,1.95c0.2,1.4,4.16,5.33,8.84,4.67c4.79-0.67,8.28-5.66,8.09-7.04
			c-0.1-0.71-2.15-1.69-5.74-1.69c-0.93,0-1.97,0.07-3.1,0.22C319.66,136.54,317.46,137.21,315.88,138.1z"/>
		<path class="st3" d="M355.11,294.49c11.45-0.54,23.51-3.05,30.73-6.39c8.38-3.89,14.29-8.22,17.74-11.45
			c-0.09,0.02-0.19,0.04-0.28,0.06c-25.6,5.29-43.74,4.57-53.91-2.15c-0.63-0.42-1.21-0.85-1.74-1.28c-0.85,0.3-1.74,0.55-2.65,0.8
			c-5.76,1.62-11.2,3.15-10.5,17.75C336.02,293.07,342.45,295.08,355.11,294.49z"/>
		<path class="st3" d="M314.7,24.35c-14.26-0.31-26.97,1.48-36.27,3.41c21.62,9.54,37.46,23.69,48.32,36.33
			c19.86,23.11,29.6,48.65,30.41,57.19c0.12,1.31,0.03,2.41-0.21,3.35c0.31,8.89-0.83,16.44-1.95,23.73
			c-0.91,5.92-1.86,12.05-2.08,19.19c-0.22,6.73,0.64,13.9,1.56,21.49c2.22,18.5,4.72,39.37-8.05,60.46
			c0.21,0.26,0.42,0.53,0.63,0.78c0.52,0.65,1.02,1.27,1.51,1.9c49.41-77.76,66.48-167.89,50.98-187.69
			C379.32,38.65,350.78,25.15,314.7,24.35z"/>
		<path class="st3" d="M306.24,136.99c-12.98,18.55,12.38,64.01,23.2,83.42c2.78,4.98,4.79,8.58,5.71,10.82
			c1.02,2.48,2.14,4.73,3.3,6.78c7.45-15.85,5.53-31.9,3.65-47.5c-0.93-7.72-1.89-15.7-1.64-23.38c0.25-7.89,1.25-14.4,2.22-20.69
			c0.9-5.84,1.75-11.44,1.85-17.6C319.91,125.79,310.1,131.47,306.24,136.99z M332.97,137.4L332.97,137.4
			c0.39,2.89-4.33,8.61-9.87,9.38c-0.46,0.06-0.92,0.09-1.37,0.09c-5.21,0-9.46-4.07-9.81-6.54c-0.2-1.44,0.85-2.88,2.94-4.05
			c1.81-1.01,4.27-1.77,6.92-2.13C327.02,133.43,332.54,134.32,332.97,137.4z"/>
	</g>
</g>
</svg>
