<?xml version="1.0" encoding="utf-8"?>
<!-- Generator: Adobe Illustrator 24.2.1, SVG Export Plug-In . SVG Version: 6.00 Build 0)  -->
<svg version="1.1"
	 id="svg2169" inkscape:output_extension="org.inkscape.output.svg.inkscape" inkscape:version="0.45.1" sodipodi:docbase="/home/bene/Desktop" sodipodi:docname="dessin-1.svg" sodipodi:version="0.32" xmlns:cc="http://web.resource.org/cc/" xmlns:dc="http://purl.org/dc/elements/1.1/" xmlns:inkscape="http://www.inkscape.org/namespaces/inkscape" xmlns:rdf="http://www.w3.org/1999/02/22-rdf-syntax-ns#" xmlns:sodipodi="http://sodipodi.sourceforge.net/DTD/sodipodi-0.dtd" xmlns:svg="http://www.w3.org/2000/svg"
	 xmlns="http://www.w3.org/2000/svg" xmlns:xlink="http://www.w3.org/1999/xlink" x="0px" y="0px" viewBox="0 0 110.42 109.85"
	 style="enable-background:new 0 0 110.42 109.85;" xml:space="preserve">
<style type="text/css">
	.st0{fill:#383A42;}
</style>
<sodipodi:namedview  bordercolor="#666666" borderopacity="1.0" height="184.25197px" id="base" inkscape:current-layer="layer1" inkscape:cx="-260.46312" inkscape:cy="316.02744" inkscape:document-units="px" inkscape:pageopacity="0.0" inkscape:pageshadow="2" inkscape:window-height="624" inkscape:window-width="872" inkscape:window-x="5" inkscape:window-y="48" inkscape:zoom="0.24748737" pagecolor="#ffffff" width="131.10236px">
	</sodipodi:namedview>
<g id="layer1" transform="translate(-473.36088,-251.72485)" inkscape:groupmode="layer" inkscape:label="Calque 1">
	<g id="g1894" transform="translate(428.42338,184.2561)">
		<path id="path8615" class="st0" d="M99.75,67.47c-28.03,0-26.28,12.16-26.28,12.16l0.03,12.59h26.75V96H62.88
			c0,0-17.94-2.03-17.94,26.25c0,28.28,15.66,27.28,15.66,27.28h9.34v-13.12c0,0-0.5-15.66,15.41-15.66s26.53,0,26.53,0
			s14.91,0.24,14.91-14.41s0-24.22,0-24.22S129.04,67.47,99.75,67.47z M85,75.94c2.66,0,4.81,2.15,4.81,4.81s-2.15,4.81-4.81,4.81
			s-4.81-2.15-4.81-4.81S82.34,75.94,85,75.94z"/>
		<path id="path8620" class="st0" d="M100.55,177.31c28.03,0,26.28-12.16,26.28-12.16l-0.03-12.59h-26.75v-3.78h37.38
			c0,0,17.94,2.03,17.94-26.25c0-28.28-15.66-27.28-15.66-27.28h-9.34v13.12c0,0,0.5,15.66-15.41,15.66s-26.53,0-26.53,0
			s-14.91-0.24-14.91,14.41c0,14.65,0,24.22,0,24.22S71.25,177.31,100.55,177.31z M115.3,168.85c-2.66,0-4.81-2.15-4.81-4.81
			s2.15-4.81,4.81-4.81s4.81,2.15,4.81,4.81C120.11,166.7,117.96,168.85,115.3,168.85z"/>
	</g>
</g>
</svg>
