<?xml version="1.0" encoding="utf-8"?>
<!-- Generator: Adobe Illustrator 25.0.0, SVG Export Plug-In . SVG Version: 6.00 Build 0)  -->
<svg version="1.1" id="Layer_1" xmlns="http://www.w3.org/2000/svg" xmlns:xlink="http://www.w3.org/1999/xlink" x="0px" y="0px"
	 viewBox="0 0 100 100" style="enable-background:new 0 0 100 100;" xml:space="preserve">
<style type="text/css">
	.st0{fill:url(#SVGID_1_);}
	.st1{fill:#FFFFFF;}
</style>
<g>
	<radialGradient id="SVGID_1_" cx="97.9477" cy="100.0279" r="97.9347" gradientUnits="userSpaceOnUse">
		<stop  offset="0" style="stop-color:#FFCF7B"/>
		<stop  offset="1" style="stop-color:#ED2F8B"/>
	</radialGradient>
	<circle class="st0" cx="50" cy="50" r="50"/>
</g>
<g>
	<path class="st1" d="M48.8,73.5L35.6,60.3c-0.6-0.6-0.6-1.7,0-2.3l1.5-1.5c0.6-0.6,1.7-0.6,2.3,0L50,66.9l10.5-10.5
		c0.6-0.6,1.7-0.6,2.3,0l1.5,1.5c0.6,0.6,0.6,1.7,0,2.3L51.2,73.5C50.5,74.2,49.5,74.2,48.8,73.5L48.8,73.5z"/>
</g>
<g>
	<path class="st1" d="M51.2,26.5l13.2,13.2c0.6,0.6,0.6,1.7,0,2.3l-1.5,1.5c-0.6,0.6-1.7,0.6-2.3,0L50,33.1L39.5,43.5
		c-0.6,0.6-1.7,0.6-2.3,0L35.6,42c-0.6-0.6-0.6-1.7,0-2.3l13.2-13.2C49.5,25.8,50.5,25.8,51.2,26.5L51.2,26.5z"/>
</g>
</svg>
