<?xml version="1.0" encoding="utf-8"?>
<!-- Generator: Adobe Illustrator 24.2.1, SVG Export Plug-In . SVG Version: 6.00 Build 0)  -->
<svg version="1.1" id="Layer_1" xmlns="http://www.w3.org/2000/svg" xmlns:xlink="http://www.w3.org/1999/xlink" x="0px" y="0px"
	 viewBox="0 0 2500 2490" style="enable-background:new 0 0 2500 2490;" xml:space="preserve">
<style type="text/css">
	.st0{fill:#383A42;}
</style>
<ellipse class="st0" cx="257.06" cy="1245.2" rx="257.06" ry="240.49"/>
<ellipse class="st0" cx="2055.47" cy="2249.28" rx="257.06" ry="240.5"/>
<path class="st0" d="M1455.97,644.91c312.3,0,571.42,224.3,614.32,515.1H2500c-19.51-228.5-117.46-441.48-281.2-609.45
	c-104.87,51.66-233.82,52.65-343.37-8.51c-109.63-61.23-173.24-169.82-179.33-283.62c-78.8-17.75-159.34-26.68-240.12-26.64
	c-156.79,0-308.3,33.11-446.11,95.88l215.12,360.42C1298.63,659.47,1376.96,644.82,1455.97,644.91L1455.97,644.91z"/>
<path class="st0" d="M2070.32,1330.13c-42.8,290.91-301.96,515.35-614.35,515.35c-81.63,0-159.62-15.36-231.06-43.24l-215.16,360.44
	c137.77,62.81,289.35,95.93,446.2,95.93c81.93,0,162.45-9.15,240.31-26.7c5.99-113.92,69.63-222.71,179.32-283.96
	c109.58-61.21,238.58-60.22,343.48-8.45c163.62-167.99,261.45-380.95,280.91-609.37H2070.32L2070.32,1330.13z"/>
<path class="st0" d="M835.39,1245.19c0-191.25,92.94-361.88,237.4-471.87L857.71,412.96c-50.81,34.33-98.53,73.02-142.62,115.64
	C590.63,648.99,501.37,794.36,452.25,953.01c98.96,62.01,164.49,169.64,164.49,292.19c0,122.53-65.54,230.19-164.5,292.17
	c49.12,158.66,138.38,304.01,262.85,424.42c44.05,42.6,91.73,81.28,142.5,115.6l215.11-360.39
	C928.27,1607.01,835.39,1436.38,835.39,1245.19z"/>
<ellipse class="st0" cx="2055.26" cy="240.72" rx="257.05" ry="240.51"/>
</svg>
