<?xml version="1.0" encoding="utf-8"?>
<!-- Generator: Adobe Illustrator 24.2.1, SVG Export Plug-In . SVG Version: 6.00 Build 0)  -->
<svg version="1.1" id="Layer_1" xmlns="http://www.w3.org/2000/svg" xmlns:xlink="http://www.w3.org/1999/xlink" x="0px" y="0px"
	 viewBox="0 0 4099.91 1080.24" style="enable-background:new 0 0 4099.91 1080.24;" xml:space="preserve">
<style type="text/css">
	.st0{display:none;stroke:#FFFFFF;stroke-miterlimit:10;}
	.st1{opacity:0.15;fill:#FFFFFF;}
	.st2{font-family:'Raleway-Black';}
	.st3{font-size:500px;}
</style>
<rect class="st0" width="4099.91" height="1080.24"/>
<text transform="matrix(0.9132 -0.4076 0.4076 0.9132 1093.6427 563.6647)" class="st1 st2 st3">~</text>
<text transform="matrix(0.9447 0.328 -0.328 0.9447 2084.9072 433.0205)" class="st1 st2 st3">,</text>
<text transform="matrix(0.9868 0.1622 -0.1622 0.9868 2582.3699 1020.8474)" class="st1 st2 st3">}</text>
<text transform="matrix(0.9425 -0.3342 0.3342 0.9425 1270.8767 924.2719)" class="st1 st2 st3">{</text>
<text transform="matrix(1 0 0 1 2302.2778 449.6068)" class="st1 st2 st3">%</text>
<text transform="matrix(0.9431 0.3324 -0.3324 0.9431 1647.0989 982.4933)" class="st1 st2 st3">/</text>
<text transform="matrix(0.966 0.2585 -0.2585 0.966 2207.7278 842.205)" class="st1 st2 st3">&gt;</text>
<text transform="matrix(0.9465 -0.3228 0.3228 0.9465 1633.5833 725.2624)" class="st1 st2 st3">&lt;</text>
<text transform="matrix(0.9439 0.3303 -0.3303 0.9439 3040.697 924.2715)" class="st1 st2 st3">!</text>
<text transform="matrix(0.8484 0.5293 -0.5293 0.8484 1324.3855 270.6968)" class="st1 st2 st3">=</text>
<text transform="matrix(0.9582 -0.2862 0.2862 0.9582 2912.0293 619.6468)" class="st1 st2 st3">;</text>
<text transform="matrix(0.9553 0.2958 -0.2958 0.9553 847.4388 982.4933)" class="st1 st2 st3">:</text>
<text transform="matrix(1 0 0 1 1862.8698 465.587)" class="st1 st2 st3">“</text>
<text transform="matrix(0.9132 -0.4076 0.4076 0.9132 2947.8423 433.0212)" class="st1 st2 st3">*</text>
<text transform="matrix(0.9149 0.4037 -0.4037 0.9149 631.212 315.8127)" class="st1 st2 st3">$</text>
<text transform="matrix(0.9132 -0.4076 0.4076 0.9132 3243.0703 449.6071)" class="st1 st2 st3">&amp;</text>
</svg>
