<?xml version="1.0" encoding="utf-8"?>
<!-- Generator: Adobe Illustrator 24.2.1, SVG Export Plug-In . SVG Version: 6.00 Build 0)  -->
<svg version="1.1" id="Layer_1" xmlns="http://www.w3.org/2000/svg" xmlns:xlink="http://www.w3.org/1999/xlink" x="0px" y="0px"
	 viewBox="0 0 4099.91 1080.24" style="enable-background:new 0 0 4099.91 1080.24;" xml:space="preserve">
<style type="text/css">
	.st0{display:none;stroke:#FFFFFF;stroke-miterlimit:10;}
	.st1{opacity:0.15;enable-background:new    ;}
	.st2{fill:#FFFFFF;}
</style>
<rect class="st0" width="4099.91" height="1080.24"/>
<g class="st1">
	<path class="st2" d="M1065.98,436.66c-1.17-9.15-0.58-19.08,1.75-29.8c2.34-10.71,6.94-21.25,13.81-31.63
		c6.87-10.37,17.61-18.81,32.22-25.33c9.13-4.08,17.97-6.56,26.52-7.45c8.54-0.89,16.81-1.39,24.8-1.49
		c7.98-0.09,15.72-0.35,23.2-0.77c7.48-0.41,14.87-2.26,22.18-5.52c6.69-2.99,11.66-6.57,14.91-10.76
		c3.24-4.18,5.32-8.12,6.23-11.81c0.9-3.69,1.2-6.92,0.87-9.7c-0.33-2.77-0.62-4.46-0.9-5.08l45.66-20.38
		c1.09,2.44,2.06,8.11,2.95,17.03c0.87,8.92,0.25,18.97-1.88,30.13c-2.13,11.17-6.69,22.24-13.65,33.2
		c-6.97,10.97-17.92,19.77-32.83,26.43c-8.83,3.94-17.4,6.4-25.73,7.38c-8.33,0.98-16.52,1.63-24.59,1.94s-15.89,0.8-23.45,1.43
		c-7.57,0.64-15,2.59-22.3,5.85c-7.01,3.13-12.01,6.64-15.01,10.53c-3.01,3.9-4.81,7.62-5.41,11.18c-0.6,3.55-0.62,6.58-0.06,9.06
		s0.91,3.89,1.05,4.19l-46.12,20.58C1068.54,452.21,1067.14,445.82,1065.98,436.66z"/>
</g>
<g class="st1">
	<path class="st2" d="M2092.7,518.82l42.75-68.25l-26.92-9.35l30.18-86.91l74.16,25.75l-30.18,86.91l-51.25,65.3L2092.7,518.82z"/>
</g>
<g class="st1">
	<path class="st2" d="M2656.86,734.12l12.17-74.01l99.67,16.38c1.97,0.32,4.19,1.7,6.67,4.14c2.47,2.43,3.22,6.61,2.25,12.53
		l-16.95,103.12c-0.76,4.61-0.6,9.28,0.48,14.01c1.07,4.74,2.73,9.06,4.96,12.98c2.22,3.91,4.89,7.23,8,9.93
		c3.1,2.71,6.46,4.36,10.08,4.95l-10.54,64.14c-7.18,0.51-14.51,3.53-22.01,9.05c-7.5,5.53-12.11,13.55-13.84,24.08l-17.84,108.55
		c-1.03,6.25-3.09,10.05-6.18,11.4c-3.09,1.34-5.63,1.86-7.6,1.54l-99.67-16.38l12.16-74.01l27.14,4.46l13.38-81.41
		c1.46-8.88,4.8-15.85,10.02-20.9c5.22-5.05,10.68-9.47,16.37-13.27c-4.51-5.47-8.36-11.33-11.55-17.61
		c-3.2-6.27-4.03-14-2.52-23.22l12.49-75.98L2656.86,734.12z"/>
</g>
<g class="st1">
	<path class="st2" d="M1297.17,601.95l25.73,72.57c3.12,8.8,3.66,16.56,1.63,23.29c-2.04,6.74-4.79,13.19-8.25,19.37
		c6.27,2.73,12.42,6.12,18.46,10.17c6.03,4.05,10.55,10.32,13.56,18.8l27.57,77.76l25.92-9.19l25.06,70.69l-95.19,33.75
		c-1.88,0.67-4.48,0.61-7.75-0.17c-3.29-0.78-5.99-4.16-8.1-10.13l-36.76-103.67c-3.56-10.05-9.52-17.13-17.88-21.25
		c-8.35-4.11-16.11-5.78-23.26-5.01l-21.72-61.26c3.14-1.11,6.08-3.3,8.81-6.57c2.73-3.26,4.85-7.02,6.35-11.27
		c1.5-4.24,2.36-8.79,2.59-13.65c0.22-4.85-0.44-9.48-2-13.88L1197,573.81c-2.01-5.66-2.01-9.9,0-12.73c2-2.83,3.95-4.58,5.83-5.25
		l95.19-33.75l25.07,70.69L1297.17,601.95z"/>
</g>
<g class="st1">
	<path class="st2" d="M2407.78,247.61c-12.67,0-24.42-2.08-35.25-6.25c-10.84-4.16-20.25-9.75-28.25-16.75s-14.25-15.33-18.75-25
		c-4.5-9.66-6.75-20-6.75-31s2.25-21.33,6.75-31c4.5-9.66,10.75-18,18.75-25s17.41-12.58,28.25-16.75
		c10.83-4.16,22.58-6.25,35.25-6.25c12.33,0,23.91,2.09,34.75,6.25c10.83,4.17,20.25,9.75,28.25,16.75s14.33,15.34,19,25
		c4.66,9.67,7,20,7,31s-2.34,21.34-7,31c-4.67,9.67-11,18-19,25s-17.42,12.59-28.25,16.75
		C2431.69,245.53,2420.11,247.61,2407.78,247.61z M2360.78,417.11l141.5-159.5l125.5-168.5l41.5,37.5l-135.5,154.5l-131.5,173.5
		L2360.78,417.11z M2407.78,202.61c6.66,0,12.33-3.33,17-10c4.66-6.66,7-14.66,7-24c0-9.33-2.34-17.33-7-24
		c-4.67-6.66-10.34-10-17-10c-6.67,0-12.34,3.34-17,10c-4.67,6.67-7,14.67-7,24c0,9.34,2.33,17.34,7,24
		C2395.44,199.28,2401.11,202.61,2407.78,202.61z M2622.28,454.61c-12.67,0-24.42-2.09-35.25-6.25
		c-10.84-4.16-20.25-9.75-28.25-16.75s-14.25-15.33-18.75-25c-4.5-9.66-6.75-20-6.75-31s2.25-21.33,6.75-31
		c4.5-9.66,10.75-18,18.75-25s17.41-12.58,28.25-16.75c10.83-4.16,22.58-6.25,35.25-6.25c12.33,0,23.91,2.09,34.75,6.25
		c10.83,4.17,20.25,9.75,28.25,16.75s14.33,15.34,19,25c4.66,9.67,7,20,7,31s-2.34,21.34-7,31c-4.67,9.67-11,18-19,25
		s-17.42,12.59-28.25,16.75C2646.19,452.52,2634.61,454.61,2622.28,454.61z M2622.28,409.61c6.66,0,12.33-3.33,17-10
		c4.66-6.66,7-14.66,7-24c0-9.33-2.34-17.33-7-24c-4.67-6.66-10.34-10-17-10c-6.67,0-12.34,3.34-17,10c-4.67,6.67-7,14.67-7,24
		c0,9.34,2.33,17.34,7,24C2609.94,406.28,2615.61,409.61,2622.28,409.61z"/>
</g>
<g class="st1">
	<path class="st2" d="M2119.23,772.51l-361.32,249.04l-98.55-34.74l360.85-249.21L2119.23,772.51z"/>
</g>
<g class="st1">
	<path class="st2" d="M2471.54,804.11l-237.1,65.95l27.4-102.4l82.73-22.89l-59.21-65.01l26.11-97.57l171.45,179.42L2471.54,804.11z
		"/>
</g>
<g class="st1">
	<path class="st2" d="M1600.16,579.23l159.02-190.53l32.6,95.6l-54.71,68.85l84.08,17.29l34.22,100.33l-241.01-49.88L1600.16,579.23
		z"/>
</g>
<g class="st1">
	<path class="st2" d="M3081.29,938.47l30.39-86.84l89.67,31.38l-30.39,86.84L3081.29,938.47z M3130.83,796.89l68.87-196.8
		l89.67,31.38l-68.87,196.8L3130.83,796.89z"/>
</g>
<g class="st1">
	<path class="st2" d="M1374.45,242.41l31.76-50.9l137.02,85.48l-31.76,50.9L1374.45,242.41z M1435.32,144.84l31.76-50.9
		l137.02,85.48l-31.76,50.9L1435.32,144.84z"/>
</g>
<g class="st1">
	<path class="st2" d="M2900.5,448.27l-26.33-88.15l73.78-22.04l26.33,88.15L2900.5,448.27z M2980.01,681.27l-5.22-80.37l-27.31,8.16
		l-26.33-88.16l75.22-22.47l26.33,88.15l-3.41,82.95L2980.01,681.27z"/>
</g>
<g class="st1">
	<path class="st2" d="M883.26,993.58l27.21-87.89l73.56,22.78l-27.21,87.89L883.26,993.58z M932.81,833.57l27.21-87.89l73.56,22.78
		l-27.21,87.89L932.81,833.57z"/>
</g>
<g class="st1">
	<path class="st2" d="M1972.87,100.59l-13,65.5h26v80h-98.5v-82.5l21-63H1972.87z M2097.37,100.59l-13,65.5h26v80h-98.5v-82.5l21-63
		H2097.37z"/>
</g>
<g class="st1">
	<path class="st2" d="M2875.83,191.93l6.48-45.6l-37.16,5.08l-4.73-40.05l41.58,1.15l-19.91-36.01l43.83-19.57l13.52,38.87
		l26.91-31.72L2973,94.35l-28.6,24.26l38.27,25.63l-22.33,34.61l-38.83-28.12l-5,47.68L2875.83,191.93z"/>
</g>
<g class="st1">
	<path class="st2" d="M961,200.1c-4.83-7.23-10.4-14.43-16.71-21.58c-5.23-6.31-11.4-12.77-18.51-19.37
		c-7.11-6.6-14.6-12.54-22.46-17.83l-18.17,41.17c2.47,1.83,5,3.94,7.58,6.35c2.57,2.42,5.34,4.82,8.29,7.21
		c12.92,11.17,24.19,22.15,33.82,32.96c9.62,10.8,17.05,21.83,22.3,33.07c5.24,11.24,7.79,23.21,7.66,35.9
		c-0.14,12.7-3.57,26.67-10.3,41.91c-7.94,18-17.83,31.94-29.66,41.84c-11.84,9.9-24.65,16.64-38.43,20.21
		c-13.79,3.57-28.14,4.52-43.07,2.86c-14.93-1.67-29.62-5.14-44.04-10.42l-24.42,55.35l-36.6-16.15l24.83-56.27
		c-20.24-11.12-39.31-24.45-57.22-40c-17.92-15.56-32.95-31.84-45.11-48.87l72.94-61.27c5.94,8.82,12.64,17.6,20.07,26.35
		c6.18,7.46,13.69,15.42,22.53,23.88c8.84,8.46,18.41,15.87,28.72,22.24l17.76-40.26c-8.38-6.61-16.56-13.68-24.53-21.21
		c-12.19-11.2-22.22-21.91-30.09-32.13c-7.88-10.22-13.6-20.39-17.14-30.52c-3.55-10.12-4.9-20.47-4.07-31.03
		c0.83-10.56,3.88-21.79,9.12-33.68c7.27-16.47,16.44-29.82,27.51-40.05c11.07-10.23,23.35-17.84,36.85-22.82
		c13.49-4.98,27.77-7.42,42.85-7.32c15.07,0.09,30.11,2.54,45.13,7.34l20.39-46.2l36.6,16.15l-20.59,46.66
		c9.52,5.66,18.47,11.8,26.85,18.41c8.37,6.61,16.21,13.44,23.48,20.47s13.95,14,20.03,20.86c6.07,6.87,11.64,13.25,16.7,19.12
		L961,200.1z M854.62,306.18c1.88-4.27,1.7-8.81-0.54-13.63c-2.25-4.82-5.89-9.79-10.9-14.92l-14.94,33.85
		c7.59,2.62,13.44,3.39,17.57,2.29C849.92,312.67,852.87,310.15,854.62,306.18z M854.98,136.92c-2.02,4.57-2.15,8.98-0.37,13.23
		c1.76,4.25,5.16,8.93,10.19,14.06l15.34-34.77C867.26,125.59,858.88,128.08,854.98,136.92z"/>
</g>
<g class="st1">
	<path class="st2" d="M3474.11,346.48l-25.5-10.52c-9.56,13.76-20.6,25.62-33.12,35.59c-12.52,9.97-25.94,18.15-40.25,24.54
		c-18.88,8.43-36.74,12.75-53.62,12.98c-16.87,0.23-32.27-2.38-46.21-7.85c-13.94-5.46-26.1-13.27-36.46-23.42
		c-10.38-10.15-18.34-21.47-23.92-33.95c-8.29-18.56-10.97-36.63-8.03-54.18c2.93-17.55,8.39-34.14,16.4-49.75
		c-15.04-7.52-26.61-15.04-34.71-22.56c-8.1-7.51-14.66-16.9-19.69-28.17c-5.84-13.08-8.67-25.97-8.49-38.65
		c0.18-12.68,2.89-24.38,8.14-35.12c5.24-10.73,12.8-20.58,22.67-29.56c9.87-8.96,21.65-16.51,35.35-22.62
		c11.87-5.3,24.16-9.05,36.87-11.25c12.71-2.2,24.94-2.18,36.71,0.04c11.76,2.24,22.6,7.08,32.49,14.52
		c9.9,7.45,17.97,18.18,24.22,32.17c7.34,16.44,10.12,32.91,8.35,49.39c-1.77,16.49-6.6,33.06-14.49,49.73l55.17,23.01
		c-0.46-10.01-1.98-20.38-4.57-31.09c-2.59-10.7-6.46-21.84-11.63-33.41l69.86-31.18c10.16,23.58,16.83,45.88,20.01,66.91
		c3.18,21.03,3.69,40.98,1.52,59.83l106.63,43.85L3474.11,346.48z M3245.9,150.47c1.77,3.96,4.44,6.88,8.01,8.74
		c3.58,1.88,9.26,4.18,17.04,6.9c4.18-6.98,6.94-12.68,8.25-17.1c1.31-4.42,0.88-9.06-1.29-13.93c-2.31-5.17-5.52-8.48-9.64-9.94
		c-4.12-1.45-8.61-1.08-13.48,1.09c-5.18,2.31-8.5,5.71-9.96,10.19C3243.36,140.92,3243.72,145.61,3245.9,150.47z M3354.21,324.44
		c9.13-4.08,17.22-10.06,24.29-17.96l-76.25-32.22c-6.55,13.15-7.91,23.98-4.11,32.5c1.5,3.35,3.84,6.77,7.05,10.27
		s7.22,6.36,12.05,8.59c4.83,2.23,10.37,3.41,16.63,3.53C3340.12,329.27,3346.9,327.7,3354.21,324.44z"/>
</g>
</svg>
