<?xml version="1.0" encoding="utf-8"?>
<!-- Generator: Adobe Illustrator 24.2.1, SVG Export Plug-In . SVG Version: 6.00 Build 0)  -->
<svg version="1.1" id="Layer_1" xmlns="http://www.w3.org/2000/svg" xmlns:xlink="http://www.w3.org/1999/xlink" x="0px" y="0px"
	 viewBox="0 0 4099.91 1080.24" style="enable-background:new 0 0 4099.91 1080.24;" xml:space="preserve">
<style type="text/css">
	.st0{fill:url(#SVGID_1_);}
</style>
<g id="bWKBMz.tif">
	<linearGradient id="SVGID_1_" gradientUnits="userSpaceOnUse" x1="2049.9565" y1="1080.1218" x2="2049.9565" y2="-9.094947e-13">
		<stop  offset="0" style="stop-color:#FFCF7B"/>
		<stop  offset="0.1196" style="stop-color:#FEC67C"/>
		<stop  offset="0.3184" style="stop-color:#FBAC7E"/>
		<stop  offset="0.572" style="stop-color:#F68383"/>
		<stop  offset="0.8675" style="stop-color:#F04A88"/>
		<stop  offset="0.9944" style="stop-color:#ED2F8B"/>
	</linearGradient>
	<path class="st0" d="M3010.21,1017.13c-589.03,164.9-684.22-89.13-684.22-89.13c-17.39-80.43-132.61-132.61-132.61-132.61
		c-191.3-95.65-193.48-278.26-193.48-278.26C1958.6,151.91,1571.65,0,1571.65,0L0,0.12v1080l3010.21-0.12l1089.7,0.12v-26.75
		c0,0-201.48,29.42-321.35,10.9c-119.87-18.53-347.63-40.32-429.36-23.97c-81.73,16.35-165.64-7.63-165.64-7.63
		S3071.1,1000.08,3010.21,1017.13z"/>
</g>
</svg>
